<?xml version="1.0" encoding="utf-8" standalone="no"?>
<!DOCTYPE svg PUBLIC "-//W3C//DTD SVG 1.1//EN"
  "http://www.w3.org/Graphics/SVG/1.1/DTD/svg11.dtd">
<svg height="288pt" version="1.1" viewBox="0 0 432 288" width="432pt" xmlns="http://www.w3.org/2000/svg" xmlns:xlink="http://www.w3.org/1999/xlink">
 <metadata>
  <rdf:RDF xmlns:cc="http://creativecommons.org/ns#" xmlns:dc="http://purl.org/dc/elements/1.1/" xmlns:rdf="http://www.w3.org/1999/02/22-rdf-syntax-ns#">
   <cc:Work>
    <dc:type rdf:resource="http://purl.org/dc/dcmitype/StillImage"/>
    <dc:date>2021-04-13T13:23:33.811196</dc:date>
    <dc:format>image/svg+xml</dc:format>
    <dc:creator>
     <cc:Agent>
      <dc:title>Matplotlib v3.4.1, https://matplotlib.org/</dc:title>
     </cc:Agent>
    </dc:creator>
   </cc:Work>
  </rdf:RDF>
 </metadata>
 <defs>
  <style type="text/css">*{stroke-linecap:butt;stroke-linejoin:round;}</style>
 </defs>
 <g id="figure_1">
  <g id="patch_1">
   <path d="M 0 288 
L 432 288 
L 432 0 
L 0 0 
z
" style="fill:none;"/>
  </g>
  <g id="axes_1">
   <g id="patch_2">
    <path d="M 54 252 
L 321.84 252 
L 321.84 34.56 
L 54 34.56 
z
" style="fill:#ffffff;"/>
   </g>
   <g id="PathCollection_1">
    <path clip-path="url(#pabb50fc18a)" d="M 209.3472 177.488127 
L 212.0256 178.256635 
L 214.704 178.823908 
L 217.3824 179.161569 
L 220.0608 179.238565 
L 222.7392 179.02108 
L 225.4176 178.472361 
L 228.096 177.552439 
L 228.437465 177.388235 
L 230.7744 175.648175 
L 231.175666 175.256471 
L 232.198355 173.124706 
L 232.137274 170.992941 
L 231.151373 168.861176 
L 230.7744 168.417244 
L 229.177472 166.729412 
L 228.096 165.896525 
L 226.227297 164.597647 
L 225.4176 164.135442 
L 222.7392 162.749263 
L 222.128155 162.465882 
L 220.0608 161.609616 
L 217.3824 160.571767 
L 216.696063 160.334118 
L 214.704 159.671194 
L 212.0256 158.827077 
L 209.961118 158.202353 
L 209.3472 158.00949 
L 206.6688 157.244386 
L 203.9904 156.438395 
L 202.728686 156.070588 
L 201.312 155.56875 
L 198.6336 154.498965 
L 197.46005 153.938824 
L 195.9552 152.658668 
L 195.211318 151.807059 
L 194.393164 149.675294 
L 194.157545 147.543529 
L 194.182799 145.411765 
L 194.362379 143.28 
L 194.645083 141.148235 
L 194.99925 139.016471 
L 195.401549 136.884706 
L 195.832698 134.752941 
L 195.9552 134.193532 
L 196.256298 132.621176 
L 196.670855 130.489412 
L 197.069363 128.357647 
L 197.437854 126.225882 
L 197.763119 124.094118 
L 198.032655 121.962353 
L 198.234621 119.830588 
L 198.357794 117.698824 
L 198.391507 115.567059 
L 198.325557 113.435294 
L 198.15009 111.303529 
L 197.855452 109.171765 
L 197.432021 107.04 
L 196.870008 104.908235 
L 196.159247 102.776471 
L 195.9552 102.27108 
L 195.255341 100.644706 
L 194.161432 98.512941 
L 193.2768 97.038042 
L 192.847425 96.381176 
L 191.252218 94.249412 
L 190.5984 93.476261 
L 189.314787 92.117647 
L 187.92 90.796007 
L 186.940267 89.985882 
L 185.2416 88.707022 
L 183.902501 87.854118 
L 182.5632 87.065204 
L 179.8848 85.781425 
L 179.727184 85.722353 
L 177.2064 84.831468 
L 174.528 84.154488 
L 171.8496 83.738119 
L 169.408737 83.590588 
L 169.1712 83.576727 
L 168.746264 83.590588 
L 166.4928 83.66663 
L 163.8144 84.010567 
L 161.136 84.613208 
L 158.4576 85.483549 
L 157.892481 85.722353 
L 155.7792 86.673129 
L 153.673247 87.854118 
L 153.1008 88.201079 
L 150.633307 89.985882 
L 150.4224 90.153486 
L 148.281657 92.117647 
L 147.744 92.669529 
L 146.374859 94.249412 
L 145.0656 95.974592 
L 144.784892 96.381176 
L 143.50163 98.512941 
L 142.42421 100.644706 
L 142.3872 100.732775 
L 141.585523 102.776471 
L 140.925227 104.908235 
L 140.434649 107.04 
L 140.108529 109.171765 
L 139.942981 111.303529 
L 139.935356 113.435294 
L 140.084118 115.567059 
L 140.388711 117.698824 
L 140.849406 119.830588 
L 141.467146 121.962353 
L 142.24335 124.094118 
L 142.3872 124.425624 
L 143.219551 126.225882 
L 144.370916 128.357647 
L 145.0656 129.489093 
L 145.729971 130.489412 
L 147.306979 132.621176 
L 147.744 133.162026 
L 149.151753 134.752941 
L 150.4224 136.08753 
L 151.263455 136.884706 
L 153.1008 138.537811 
L 153.69637 139.016471 
L 155.7792 140.638495 
L 156.517375 141.148235 
L 158.4576 142.473135 
L 159.794082 143.28 
L 161.136 144.097596 
L 163.567317 145.411765 
L 163.8144 145.549329 
L 166.4928 146.859281 
L 168.073275 147.543529 
L 169.1712 148.051416 
L 171.8496 149.147425 
L 173.31135 149.675294 
L 174.528 150.16661 
L 177.2064 151.131262 
L 179.241842 151.807059 
L 179.8848 152.061297 
L 182.5632 153.003694 
L 185.070699 153.938824 
L 185.2416 154.023297 
L 187.92 155.328742 
L 189.10506 156.070588 
L 190.5984 157.756717 
L 190.907647 158.202353 
L 192.086343 160.334118 
L 193.044609 162.465882 
L 193.2768 162.886675 
L 194.150694 164.597647 
L 195.408662 166.729412 
L 195.9552 167.466303 
L 196.965756 168.861176 
L 198.6336 170.741346 
L 198.858236 170.992941 
L 201.272877 173.124706 
L 201.312 173.152759 
L 203.9904 174.94849 
L 204.488355 175.256471 
L 206.6688 176.338472 
L 209.069532 177.388235 
z
" style="fill:#4040ff;fill-opacity:0.3;"/>
   </g>
   <g id="PathCollection_2">
    <path clip-path="url(#pabb50fc18a)" d="M 209.3472 192.805992 
L 212.0256 193.206338 
L 214.704 193.510941 
L 217.3824 193.719878 
L 220.0608 193.832449 
L 222.7392 193.847117 
L 225.4176 193.761423 
L 228.096 193.571895 
L 230.7744 193.273927 
L 233.4528 192.86164 
L 236.1312 192.327718 
L 236.202084 192.310588 
L 238.8096 191.642504 
L 241.488 190.809672 
L 243.211142 190.178824 
L 244.1664 189.795204 
L 246.8448 188.555868 
L 247.813539 188.047059 
L 249.5232 187.023044 
L 251.17214 185.915294 
L 252.2016 185.093914 
L 253.700285 183.783529 
L 254.88 182.492949 
L 255.597103 181.651765 
L 256.967415 179.52 
L 257.5584 178.162955 
L 257.882638 177.388235 
L 258.377941 175.256471 
L 258.483033 173.124706 
L 258.209644 170.992941 
L 257.561853 168.861176 
L 257.5584 168.853877 
L 256.52948 166.729412 
L 255.114317 164.597647 
L 254.88 164.314422 
L 253.290545 162.465882 
L 252.2016 161.404314 
L 251.052519 160.334118 
L 249.5232 159.084126 
L 248.389918 158.202353 
L 246.8448 157.106284 
L 245.312196 156.070588 
L 244.1664 155.340646 
L 241.869617 153.938824 
L 241.488 153.712432 
L 238.8096 152.171396 
L 238.159254 151.807059 
L 236.1312 150.661459 
L 234.367369 149.675294 
L 233.4528 149.144471 
L 230.7744 147.576197 
L 230.719218 147.543529 
L 228.096 145.865348 
L 227.412184 145.411765 
L 225.4176 143.934185 
L 224.578629 143.28 
L 222.7392 141.618672 
L 222.249322 141.148235 
L 220.394096 139.016471 
L 220.0608 138.548205 
L 218.953016 136.884706 
L 217.849032 134.752941 
L 217.3824 133.585837 
L 217.020108 132.621176 
L 216.411246 130.489412 
L 215.965694 128.357647 
L 215.641946 126.225882 
L 215.404778 124.094118 
L 215.224154 121.962353 
L 215.074363 119.830588 
L 214.933329 117.698824 
L 214.782023 115.567059 
L 214.704 114.635854 
L 214.606347 113.435294 
L 214.392454 111.303529 
L 214.126068 109.171765 
L 213.796013 107.04 
L 213.392027 104.908235 
L 212.904434 102.776471 
L 212.323841 100.644706 
L 212.0256 99.704266 
L 211.647305 98.512941 
L 210.865617 96.381176 
L 209.963693 94.249412 
L 209.3472 92.962999 
L 208.933974 92.117647 
L 207.767259 89.985882 
L 206.6688 88.204284 
L 206.445055 87.854118 
L 204.950956 85.722353 
L 203.9904 84.483245 
L 203.261262 83.590588 
L 201.351595 81.458824 
L 201.312 81.417532 
L 199.162566 79.327059 
L 198.6336 78.84883 
L 196.641941 77.195294 
L 195.9552 76.658992 
L 193.692516 75.063529 
L 193.2768 74.784634 
L 190.5984 73.181703 
L 190.121755 72.931765 
L 187.92 71.815598 
L 185.558024 70.8 
L 185.2416 70.667037 
L 182.5632 69.71228 
L 179.8848 68.946269 
L 178.632263 68.668235 
L 177.2064 68.352568 
L 174.528 67.925391 
L 171.8496 67.662625 
L 169.1712 67.560385 
L 166.4928 67.617164 
L 163.8144 67.833799 
L 161.136 68.213494 
L 158.90883 68.668235 
L 158.4576 68.760485 
L 155.7792 69.474901 
L 153.1008 70.374448 
L 152.043388 70.8 
L 150.4224 71.466631 
L 147.744 72.769008 
L 147.449917 72.931765 
L 145.0656 74.301586 
L 143.896291 75.063529 
L 142.3872 76.095772 
L 140.942016 77.195294 
L 139.7088 78.191617 
L 138.423076 79.327059 
L 137.0304 80.648815 
L 136.237165 81.458824 
L 134.352 83.553715 
L 134.320706 83.590588 
L 132.639956 85.722353 
L 131.6736 87.085264 
L 131.150765 87.854118 
L 129.838102 89.985882 
L 128.9952 91.529424 
L 128.682149 92.117647 
L 127.668757 94.249412 
L 126.792139 96.381176 
L 126.3168 97.723783 
L 126.039412 98.512941 
L 125.401887 100.644706 
L 124.880245 102.776471 
L 124.469332 104.908235 
L 124.165066 107.04 
L 123.964362 109.171765 
L 123.865064 111.303529 
L 123.865899 113.435294 
L 123.966427 115.567059 
L 124.167009 117.698824 
L 124.468769 119.830588 
L 124.87357 121.962353 
L 125.383984 124.094118 
L 126.00326 126.225882 
L 126.3168 127.149323 
L 126.72854 128.357647 
L 127.563624 130.489412 
L 128.518144 132.621176 
L 128.9952 133.577803 
L 129.591662 134.752941 
L 130.788127 136.884706 
L 131.6736 138.319927 
L 132.115522 139.016471 
L 133.575024 141.148235 
L 134.352 142.202963 
L 135.17438 143.28 
L 136.91246 145.411765 
L 137.0304 145.550084 
L 138.80028 147.543529 
L 139.7088 148.520163 
L 140.831616 149.675294 
L 142.3872 151.22238 
L 143.002354 151.807059 
L 145.0656 153.725592 
L 145.305323 153.938824 
L 147.728347 156.070588 
L 147.744 156.084265 
L 150.25481 158.202353 
L 150.4224 158.343581 
L 152.85387 160.334118 
L 153.1008 160.537182 
L 155.496931 162.465882 
L 155.7792 162.694771 
L 158.157434 164.597647 
L 158.4576 164.839533 
L 160.816364 166.729412 
L 161.136 166.986398 
L 163.466807 168.861176 
L 163.8144 169.139781 
L 166.116233 170.992941 
L 166.4928 171.292113 
L 168.786388 173.124706 
L 169.1712 173.424666 
L 171.511784 175.256471 
L 171.8496 175.511388 
L 174.338304 177.388235 
L 174.528 177.524728 
L 177.2064 179.437292 
L 177.323299 179.52 
L 179.8848 181.2248 
L 180.539971 181.651765 
L 182.5632 182.887027 
L 184.083108 183.783529 
L 185.2416 184.423692 
L 187.92 185.833537 
L 188.082821 185.915294 
L 190.5984 187.099092 
L 192.771301 188.047059 
L 193.2768 188.255432 
L 195.9552 189.280656 
L 198.557809 190.178824 
L 198.6336 190.203785 
L 201.312 191.005272 
L 203.9904 191.706423 
L 206.6688 192.309084 
L 206.676665 192.310588 
z
M 209.069532 177.388235 
L 206.6688 176.338472 
L 204.488355 175.256471 
L 203.9904 174.94849 
L 201.312 173.152759 
L 201.272877 173.124706 
L 198.858236 170.992941 
L 198.6336 170.741346 
L 196.965756 168.861176 
L 195.9552 167.466303 
L 195.408662 166.729412 
L 194.150694 164.597647 
L 193.2768 162.886675 
L 193.044609 162.465882 
L 192.086343 160.334118 
L 190.907647 158.202353 
L 190.5984 157.756717 
L 189.10506 156.070588 
L 187.92 155.328742 
L 185.2416 154.023297 
L 185.070699 153.938824 
L 182.5632 153.003694 
L 179.8848 152.061297 
L 179.241842 151.807059 
L 177.2064 151.131262 
L 174.528 150.16661 
L 173.31135 149.675294 
L 171.8496 149.147425 
L 169.1712 148.051416 
L 168.073275 147.543529 
L 166.4928 146.859281 
L 163.8144 145.549329 
L 163.567317 145.411765 
L 161.136 144.097596 
L 159.794082 143.28 
L 158.4576 142.473135 
L 156.517375 141.148235 
L 155.7792 140.638495 
L 153.69637 139.016471 
L 153.1008 138.537811 
L 151.263455 136.884706 
L 150.4224 136.08753 
L 149.151753 134.752941 
L 147.744 133.162026 
L 147.306979 132.621176 
L 145.729971 130.489412 
L 145.0656 129.489093 
L 144.370916 128.357647 
L 143.219551 126.225882 
L 142.3872 124.425624 
L 142.24335 124.094118 
L 141.467146 121.962353 
L 140.849406 119.830588 
L 140.388711 117.698824 
L 140.084118 115.567059 
L 139.935356 113.435294 
L 139.942981 111.303529 
L 140.108529 109.171765 
L 140.434649 107.04 
L 140.925227 104.908235 
L 141.585523 102.776471 
L 142.3872 100.732775 
L 142.42421 100.644706 
L 143.50163 98.512941 
L 144.784892 96.381176 
L 145.0656 95.974592 
L 146.374859 94.249412 
L 147.744 92.669529 
L 148.281657 92.117647 
L 150.4224 90.153486 
L 150.633307 89.985882 
L 153.1008 88.201079 
L 153.673247 87.854118 
L 155.7792 86.673129 
L 157.892481 85.722353 
L 158.4576 85.483549 
L 161.136 84.613208 
L 163.8144 84.010567 
L 166.4928 83.66663 
L 168.746264 83.590588 
L 169.1712 83.576727 
L 169.408737 83.590588 
L 171.8496 83.738119 
L 174.528 84.154488 
L 177.2064 84.831468 
L 179.727184 85.722353 
L 179.8848 85.781425 
L 182.5632 87.065204 
L 183.902501 87.854118 
L 185.2416 88.707022 
L 186.940267 89.985882 
L 187.92 90.796007 
L 189.314787 92.117647 
L 190.5984 93.476261 
L 191.252218 94.249412 
L 192.847425 96.381176 
L 193.2768 97.038042 
L 194.161432 98.512941 
L 195.255341 100.644706 
L 195.9552 102.27108 
L 196.159247 102.776471 
L 196.870008 104.908235 
L 197.432021 107.04 
L 197.855452 109.171765 
L 198.15009 111.303529 
L 198.325557 113.435294 
L 198.391507 115.567059 
L 198.357794 117.698824 
L 198.234621 119.830588 
L 198.032655 121.962353 
L 197.763119 124.094118 
L 197.437854 126.225882 
L 197.069363 128.357647 
L 196.670855 130.489412 
L 196.256298 132.621176 
L 195.9552 134.193532 
L 195.832698 134.752941 
L 195.401549 136.884706 
L 194.99925 139.016471 
L 194.645083 141.148235 
L 194.362379 143.28 
L 194.182799 145.411765 
L 194.157545 147.543529 
L 194.393164 149.675294 
L 195.211318 151.807059 
L 195.9552 152.658668 
L 197.46005 153.938824 
L 198.6336 154.498965 
L 201.312 155.56875 
L 202.728686 156.070588 
L 203.9904 156.438395 
L 206.6688 157.244386 
L 209.3472 158.00949 
L 209.961118 158.202353 
L 212.0256 158.827077 
L 214.704 159.671194 
L 216.696063 160.334118 
L 217.3824 160.571767 
L 220.0608 161.609616 
L 222.128155 162.465882 
L 222.7392 162.749263 
L 225.4176 164.135442 
L 226.227297 164.597647 
L 228.096 165.896525 
L 229.177472 166.729412 
L 230.7744 168.417244 
L 231.151373 168.861176 
L 232.137274 170.992941 
L 232.198355 173.124706 
L 231.175666 175.256471 
L 230.7744 175.648175 
L 228.437465 177.388235 
L 228.096 177.552439 
L 225.4176 178.472361 
L 222.7392 179.02108 
L 220.0608 179.238565 
L 217.3824 179.161569 
L 214.704 178.823908 
L 212.0256 178.256635 
L 209.3472 177.488127 
z
" style="fill:#c0c0ff;fill-opacity:0.3;"/>
   </g>
   <g id="PathCollection_3">
    <path clip-path="url(#pabb50fc18a)" d="M 203.9904 205.218515 
L 206.6688 205.616888 
L 209.3472 205.94778 
L 212.0256 206.213727 
L 214.704 206.416629 
L 217.3824 206.557748 
L 220.0608 206.637707 
L 222.7392 206.656473 
L 225.4176 206.613331 
L 228.096 206.506851 
L 230.7744 206.334831 
L 233.4528 206.094234 
L 236.1312 205.781103 
L 238.8096 205.390454 
L 240.461715 205.101176 
L 241.488 204.928328 
L 244.1664 204.40002 
L 246.8448 203.778062 
L 249.5232 203.052437 
L 249.799141 202.969412 
L 252.2016 202.25057 
L 254.88 201.329814 
L 256.161917 200.837647 
L 257.5584 200.291082 
L 260.2368 199.118374 
L 261.095695 198.705882 
L 262.9152 197.791679 
L 265.099507 196.574118 
L 265.5936 196.279438 
L 268.272 194.547258 
L 268.42427 194.442353 
L 270.9504 192.525226 
L 271.216936 192.310588 
L 273.56218 190.178824 
L 273.6288 190.109163 
L 275.537444 188.047059 
L 276.3072 187.048339 
L 277.166831 185.915294 
L 278.48256 183.783529 
L 278.9856 182.742551 
L 279.518181 181.651765 
L 280.290574 179.52 
L 280.797786 177.388235 
L 281.055366 175.256471 
L 281.072031 173.124706 
L 280.850186 170.992941 
L 280.386206 168.861176 
L 279.670488 166.729412 
L 278.9856 165.229551 
L 278.702566 164.597647 
L 277.496111 162.465882 
L 276.3072 160.76553 
L 276.005227 160.334118 
L 274.256253 158.202353 
L 273.6288 157.53583 
L 272.224038 156.070588 
L 270.9504 154.888195 
L 269.899802 153.938824 
L 268.272 152.592734 
L 267.289778 151.807059 
L 265.5936 150.53324 
L 264.408841 149.675294 
L 262.9152 148.634967 
L 261.291106 147.543529 
L 260.2368 146.846076 
L 258.00064 145.411765 
L 257.5584 145.126158 
L 254.88 143.426615 
L 254.646526 143.28 
L 252.2016 141.688411 
L 251.369313 141.148235 
L 249.5232 139.877503 
L 248.289647 139.016471 
L 246.8448 137.921739 
L 245.518429 136.884706 
L 244.1664 135.709429 
L 243.117054 134.752941 
L 241.488 133.060309 
L 241.090196 132.621176 
L 239.43698 130.489412 
L 238.8096 129.529901 
L 238.098519 128.357647 
L 237.029293 126.225882 
L 236.155448 124.094118 
L 236.1312 124.022142 
L 235.491595 121.962353 
L 234.949762 119.830588 
L 234.497776 117.698824 
L 234.108211 115.567059 
L 233.756773 113.435294 
L 233.4528 111.498322 
L 233.424378 111.303529 
L 233.112435 109.171765 
L 232.784197 107.04 
L 232.426483 104.908235 
L 232.02764 102.776471 
L 231.577158 100.644706 
L 231.065318 98.512941 
L 230.7744 97.436517 
L 230.502534 96.381176 
L 229.885084 94.249412 
L 229.184686 92.117647 
L 228.392279 89.985882 
L 228.096 89.263182 
L 227.534787 87.854118 
L 226.590041 85.722353 
L 225.528855 83.590588 
L 225.4176 83.383241 
L 224.397856 81.458824 
L 223.138008 79.327059 
L 222.7392 78.70214 
L 221.776592 77.195294 
L 220.275262 75.063529 
L 220.0608 74.777564 
L 218.655913 72.931765 
L 217.3824 71.398774 
L 216.872027 70.8 
L 214.923264 68.668235 
L 214.704 68.441019 
L 212.790924 66.536471 
L 212.0256 65.819574 
L 210.434934 64.404706 
L 209.3472 63.485114 
L 207.818804 62.272941 
L 206.6688 61.397402 
L 204.887421 60.141176 
L 203.9904 59.527968 
L 201.55976 58.009412 
L 201.312 57.857908 
L 198.6336 56.354362 
L 197.684629 55.877647 
L 195.9552 55.014954 
L 193.2768 53.84129 
L 193.032317 53.745882 
L 190.5984 52.789113 
L 187.92 51.890957 
L 186.95648 51.614118 
L 185.2416 51.110685 
L 182.5632 50.454859 
L 179.8848 49.928689 
L 177.2064 49.524147 
L 176.823332 49.482353 
L 174.528 49.220279 
L 171.8496 49.031815 
L 169.1712 48.95848 
L 166.4928 48.999194 
L 163.8144 49.154555 
L 161.136 49.42686 
L 160.752714 49.482353 
L 158.4576 49.800998 
L 155.7792 50.291686 
L 153.1008 50.909529 
L 150.59459 51.614118 
L 150.4224 51.66143 
L 147.744 52.516979 
L 145.0656 53.526976 
L 144.550343 53.745882 
L 142.3872 54.661418 
L 139.883535 55.877647 
L 139.7088 55.963009 
L 137.0304 57.40624 
L 136.021914 58.009412 
L 134.352 59.028419 
L 132.690584 60.141176 
L 131.6736 60.842856 
L 129.759213 62.272941 
L 128.9952 62.866667 
L 127.143469 64.404706 
L 126.3168 65.126132 
L 124.786085 66.536471 
L 123.6384 67.658794 
L 122.649085 68.668235 
L 120.96 70.516432 
L 120.708786 70.8 
L 118.926714 72.931765 
L 118.2816 73.7663 
L 117.295692 75.063529 
L 115.814543 77.195294 
L 115.6032 77.521622 
L 114.437571 79.327059 
L 113.19902 81.458824 
L 112.9248 81.970925 
L 112.048377 83.590588 
L 111.010842 85.722353 
L 110.2464 87.481012 
L 110.080308 87.854118 
L 109.215095 89.985882 
L 108.454337 92.117647 
L 107.790109 94.249412 
L 107.568 95.061017 
L 107.190734 96.381176 
L 106.66554 98.512941 
L 106.22498 100.644706 
L 105.864717 102.776471 
L 105.58123 104.908235 
L 105.371754 107.04 
L 105.234233 109.171765 
L 105.167283 111.303529 
L 105.170164 113.435294 
L 105.242762 115.567059 
L 105.385578 117.698824 
L 105.599726 119.830588 
L 105.886935 121.962353 
L 106.249561 124.094118 
L 106.690604 126.225882 
L 107.213731 128.357647 
L 107.568 129.6091 
L 107.806298 130.489412 
L 108.460551 132.621176 
L 109.205424 134.752941 
L 110.047044 136.884706 
L 110.2464 137.346914 
L 110.946601 139.016471 
L 111.937885 141.148235 
L 112.9248 143.063449 
L 113.034463 143.28 
L 114.188955 145.411765 
L 115.464796 147.543529 
L 115.6032 147.762214 
L 116.806094 149.675294 
L 118.272238 151.807059 
L 118.2816 151.820095 
L 119.80456 153.938824 
L 120.96 155.432279 
L 121.457008 156.070588 
L 123.204055 158.202353 
L 123.6384 158.709264 
L 125.045631 160.334118 
L 126.3168 161.729137 
L 126.997429 162.465882 
L 128.9952 164.537228 
L 129.054397 164.597647 
L 131.196591 166.729412 
L 131.6736 167.188415 
L 133.439539 168.861176 
L 134.352 169.69969 
L 135.781782 170.992941 
L 137.0304 172.092409 
L 138.221037 173.124706 
L 139.7088 174.383164 
L 140.756812 175.256471 
L 142.3872 176.583197 
L 143.391109 177.388235 
L 145.0656 178.699384 
L 146.129372 179.52 
L 147.744 180.735183 
L 148.981596 181.651765 
L 150.4224 182.691551 
L 151.963597 183.783529 
L 153.1008 184.567751 
L 155.098467 185.915294 
L 155.7792 186.361939 
L 158.418343 188.047059 
L 158.4576 188.071446 
L 161.136 189.706229 
L 161.937302 190.178824 
L 163.8144 191.255912 
L 165.734987 192.310588 
L 166.4928 192.716764 
L 169.1712 194.096061 
L 169.872359 194.442353 
L 171.8496 195.399363 
L 174.452085 196.574118 
L 174.528 196.607935 
L 177.2064 197.757648 
L 179.616625 198.705882 
L 179.8848 198.810929 
L 182.5632 199.809373 
L 185.2416 200.713468 
L 185.633561 200.837647 
L 187.92 201.56814 
L 190.5984 202.341747 
L 193.019595 202.969412 
L 193.2768 203.037624 
L 195.9552 203.692383 
L 198.6336 204.269719 
L 201.312 204.774338 
L 203.305794 205.101176 
z
M 206.676665 192.310588 
L 206.6688 192.309084 
L 203.9904 191.706423 
L 201.312 191.005272 
L 198.6336 190.203785 
L 198.557809 190.178824 
L 195.9552 189.280656 
L 193.2768 188.255432 
L 192.771301 188.047059 
L 190.5984 187.099092 
L 188.082821 185.915294 
L 187.92 185.833537 
L 185.2416 184.423692 
L 184.083108 183.783529 
L 182.5632 182.887027 
L 180.539971 181.651765 
L 179.8848 181.2248 
L 177.323299 179.52 
L 177.2064 179.437292 
L 174.528 177.524728 
L 174.338304 177.388235 
L 171.8496 175.511388 
L 171.511784 175.256471 
L 169.1712 173.424666 
L 168.786388 173.124706 
L 166.4928 171.292113 
L 166.116233 170.992941 
L 163.8144 169.139781 
L 163.466807 168.861176 
L 161.136 166.986398 
L 160.816364 166.729412 
L 158.4576 164.839533 
L 158.157434 164.597647 
L 155.7792 162.694771 
L 155.496931 162.465882 
L 153.1008 160.537182 
L 152.85387 160.334118 
L 150.4224 158.343581 
L 150.25481 158.202353 
L 147.744 156.084265 
L 147.728347 156.070588 
L 145.305323 153.938824 
L 145.0656 153.725592 
L 143.002354 151.807059 
L 142.3872 151.22238 
L 140.831616 149.675294 
L 139.7088 148.520163 
L 138.80028 147.543529 
L 137.0304 145.550084 
L 136.91246 145.411765 
L 135.17438 143.28 
L 134.352 142.202963 
L 133.575024 141.148235 
L 132.115522 139.016471 
L 131.6736 138.319927 
L 130.788127 136.884706 
L 129.591662 134.752941 
L 128.9952 133.577803 
L 128.518144 132.621176 
L 127.563624 130.489412 
L 126.72854 128.357647 
L 126.3168 127.149323 
L 126.00326 126.225882 
L 125.383984 124.094118 
L 124.87357 121.962353 
L 124.468769 119.830588 
L 124.167009 117.698824 
L 123.966427 115.567059 
L 123.865899 113.435294 
L 123.865064 111.303529 
L 123.964362 109.171765 
L 124.165066 107.04 
L 124.469332 104.908235 
L 124.880245 102.776471 
L 125.401887 100.644706 
L 126.039412 98.512941 
L 126.3168 97.723783 
L 126.792139 96.381176 
L 127.668757 94.249412 
L 128.682149 92.117647 
L 128.9952 91.529424 
L 129.838102 89.985882 
L 131.150765 87.854118 
L 131.6736 87.085264 
L 132.639956 85.722353 
L 134.320706 83.590588 
L 134.352 83.553715 
L 136.237165 81.458824 
L 137.0304 80.648815 
L 138.423076 79.327059 
L 139.7088 78.191617 
L 140.942016 77.195294 
L 142.3872 76.095772 
L 143.896291 75.063529 
L 145.0656 74.301586 
L 147.449917 72.931765 
L 147.744 72.769008 
L 150.4224 71.466631 
L 152.043388 70.8 
L 153.1008 70.374448 
L 155.7792 69.474901 
L 158.4576 68.760485 
L 158.90883 68.668235 
L 161.136 68.213494 
L 163.8144 67.833799 
L 166.4928 67.617164 
L 169.1712 67.560385 
L 171.8496 67.662625 
L 174.528 67.925391 
L 177.2064 68.352568 
L 178.632263 68.668235 
L 179.8848 68.946269 
L 182.5632 69.71228 
L 185.2416 70.667037 
L 185.558024 70.8 
L 187.92 71.815598 
L 190.121755 72.931765 
L 190.5984 73.181703 
L 193.2768 74.784634 
L 193.692516 75.063529 
L 195.9552 76.658992 
L 196.641941 77.195294 
L 198.6336 78.84883 
L 199.162566 79.327059 
L 201.312 81.417532 
L 201.351595 81.458824 
L 203.261262 83.590588 
L 203.9904 84.483245 
L 204.950956 85.722353 
L 206.445055 87.854118 
L 206.6688 88.204284 
L 207.767259 89.985882 
L 208.933974 92.117647 
L 209.3472 92.962999 
L 209.963693 94.249412 
L 210.865617 96.381176 
L 211.647305 98.512941 
L 212.0256 99.704266 
L 212.323841 100.644706 
L 212.904434 102.776471 
L 213.392027 104.908235 
L 213.796013 107.04 
L 214.126068 109.171765 
L 214.392454 111.303529 
L 214.606347 113.435294 
L 214.704 114.635854 
L 214.782023 115.567059 
L 214.933329 117.698824 
L 215.074363 119.830588 
L 215.224154 121.962353 
L 215.404778 124.094118 
L 215.641946 126.225882 
L 215.965694 128.357647 
L 216.411246 130.489412 
L 217.020108 132.621176 
L 217.3824 133.585837 
L 217.849032 134.752941 
L 218.953016 136.884706 
L 220.0608 138.548205 
L 220.394096 139.016471 
L 222.249322 141.148235 
L 222.7392 141.618672 
L 224.578629 143.28 
L 225.4176 143.934185 
L 227.412184 145.411765 
L 228.096 145.865348 
L 230.719218 147.543529 
L 230.7744 147.576197 
L 233.4528 149.144471 
L 234.367369 149.675294 
L 236.1312 150.661459 
L 238.159254 151.807059 
L 238.8096 152.171396 
L 241.488 153.712432 
L 241.869617 153.938824 
L 244.1664 155.340646 
L 245.312196 156.070588 
L 246.8448 157.106284 
L 248.389918 158.202353 
L 249.5232 159.084126 
L 251.052519 160.334118 
L 252.2016 161.404314 
L 253.290545 162.465882 
L 254.88 164.314422 
L 255.114317 164.597647 
L 256.52948 166.729412 
L 257.5584 168.853877 
L 257.561853 168.861176 
L 258.209644 170.992941 
L 258.483033 173.124706 
L 258.377941 175.256471 
L 257.882638 177.388235 
L 257.5584 178.162955 
L 256.967415 179.52 
L 255.597103 181.651765 
L 254.88 182.492949 
L 253.700285 183.783529 
L 252.2016 185.093914 
L 251.17214 185.915294 
L 249.5232 187.023044 
L 247.813539 188.047059 
L 246.8448 188.555868 
L 244.1664 189.795204 
L 243.211142 190.178824 
L 241.488 190.809672 
L 238.8096 191.642504 
L 236.202084 192.310588 
L 236.1312 192.327718 
L 233.4528 192.86164 
L 230.7744 193.273927 
L 228.096 193.571895 
L 225.4176 193.761423 
L 222.7392 193.847117 
L 220.0608 193.832449 
L 217.3824 193.719878 
L 214.704 193.510941 
L 212.0256 193.206338 
L 209.3472 192.805992 
z
" style="fill:#ffbebe;fill-opacity:0.3;"/>
   </g>
   <g id="PathCollection_4">
    <path clip-path="url(#pabb50fc18a)" d="M 56.6784 252 
L 59.3568 252 
L 62.0352 252 
L 64.7136 252 
L 67.392 252 
L 70.0704 252 
L 72.7488 252 
L 75.4272 252 
L 78.1056 252 
L 80.784 252 
L 83.4624 252 
L 86.1408 252 
L 88.8192 252 
L 91.4976 252 
L 94.176 252 
L 96.8544 252 
L 99.5328 252 
L 102.2112 252 
L 104.8896 252 
L 107.568 252 
L 110.2464 252 
L 112.9248 252 
L 115.6032 252 
L 118.2816 252 
L 120.96 252 
L 123.6384 252 
L 126.3168 252 
L 128.9952 252 
L 131.6736 252 
L 134.352 252 
L 137.0304 252 
L 139.7088 252 
L 142.3872 252 
L 145.0656 252 
L 147.744 252 
L 150.4224 252 
L 153.1008 252 
L 155.7792 252 
L 158.4576 252 
L 161.136 252 
L 163.8144 252 
L 166.4928 252 
L 169.1712 252 
L 171.8496 252 
L 174.528 252 
L 177.2064 252 
L 179.8848 252 
L 182.5632 252 
L 185.2416 252 
L 187.92 252 
L 190.5984 252 
L 193.2768 252 
L 195.9552 252 
L 198.6336 252 
L 201.312 252 
L 203.9904 252 
L 206.6688 252 
L 209.3472 252 
L 212.0256 252 
L 214.704 252 
L 217.3824 252 
L 220.0608 252 
L 222.7392 252 
L 225.4176 252 
L 228.096 252 
L 230.7744 252 
L 233.4528 252 
L 236.1312 252 
L 238.8096 252 
L 241.488 252 
L 244.1664 252 
L 246.8448 252 
L 249.5232 252 
L 252.2016 252 
L 254.88 252 
L 257.5584 252 
L 260.2368 252 
L 262.9152 252 
L 265.5936 252 
L 268.272 252 
L 270.9504 252 
L 273.6288 252 
L 276.3072 252 
L 278.9856 252 
L 281.664 252 
L 284.3424 252 
L 287.0208 252 
L 289.6992 252 
L 292.3776 252 
L 295.056 252 
L 297.7344 252 
L 300.4128 252 
L 303.0912 252 
L 305.7696 252 
L 308.448 252 
L 311.1264 252 
L 313.8048 252 
L 316.4832 252 
L 319.1616 252 
L 321.84 252 
L 321.84 249.868235 
L 321.84 247.736471 
L 321.84 245.604706 
L 321.84 243.472941 
L 321.84 241.341176 
L 321.84 239.209412 
L 321.84 237.077647 
L 321.84 234.945882 
L 321.84 232.814118 
L 321.84 230.682353 
L 321.84 228.550588 
L 321.84 226.418824 
L 321.84 224.287059 
L 321.84 222.155294 
L 321.84 220.023529 
L 321.84 217.891765 
L 321.84 215.76 
L 321.84 213.628235 
L 321.84 211.496471 
L 321.84 209.364706 
L 321.84 207.232941 
L 321.84 205.101176 
L 321.84 202.969412 
L 321.84 200.837647 
L 321.84 198.705882 
L 321.84 196.574118 
L 321.84 194.442353 
L 321.84 192.310588 
L 321.84 190.178824 
L 321.84 188.047059 
L 321.84 185.915294 
L 321.84 183.783529 
L 321.84 181.651765 
L 321.84 179.52 
L 321.84 177.388235 
L 321.84 175.256471 
L 321.84 173.124706 
L 321.84 170.992941 
L 321.84 168.861176 
L 321.84 166.729412 
L 321.84 164.597647 
L 321.84 162.465882 
L 321.84 160.334118 
L 321.84 158.202353 
L 321.84 156.070588 
L 321.84 153.938824 
L 321.84 151.807059 
L 321.84 149.675294 
L 321.84 147.543529 
L 321.84 145.411765 
L 321.84 143.28 
L 321.84 141.148235 
L 321.84 139.016471 
L 321.84 136.884706 
L 321.84 134.752941 
L 321.84 132.621176 
L 321.84 130.489412 
L 321.84 128.357647 
L 321.84 126.225882 
L 321.84 124.094118 
L 321.84 121.962353 
L 321.84 119.830588 
L 321.84 117.698824 
L 321.84 115.567059 
L 321.84 113.435294 
L 321.84 111.303529 
L 321.84 109.171765 
L 321.84 107.04 
L 321.84 104.908235 
L 321.84 102.776471 
L 321.84 100.644706 
L 321.84 98.512941 
L 321.84 96.381176 
L 321.84 94.249412 
L 321.84 92.117647 
L 321.84 89.985882 
L 321.84 87.854118 
L 321.84 85.722353 
L 321.84 83.590588 
L 321.84 81.458824 
L 321.84 79.327059 
L 321.84 77.195294 
L 321.84 75.063529 
L 321.84 72.931765 
L 321.84 70.8 
L 321.84 68.668235 
L 321.84 66.536471 
L 321.84 64.404706 
L 321.84 62.272941 
L 321.84 60.141176 
L 321.84 58.009412 
L 321.84 55.877647 
L 321.84 53.745882 
L 321.84 51.614118 
L 321.84 49.482353 
L 321.84 47.350588 
L 321.84 45.218824 
L 321.84 43.087059 
L 321.84 40.955294 
L 321.84 38.823529 
L 321.84 36.691765 
L 321.84 34.56 
L 319.1616 34.56 
L 316.4832 34.56 
L 313.8048 34.56 
L 311.1264 34.56 
L 308.448 34.56 
L 305.7696 34.56 
L 303.0912 34.56 
L 300.4128 34.56 
L 297.7344 34.56 
L 295.056 34.56 
L 292.3776 34.56 
L 289.6992 34.56 
L 287.0208 34.56 
L 284.3424 34.56 
L 281.664 34.56 
L 278.9856 34.56 
L 276.3072 34.56 
L 273.6288 34.56 
L 270.9504 34.56 
L 268.272 34.56 
L 265.5936 34.56 
L 262.9152 34.56 
L 260.2368 34.56 
L 257.5584 34.56 
L 254.88 34.56 
L 252.2016 34.56 
L 249.5232 34.56 
L 246.8448 34.56 
L 244.1664 34.56 
L 241.488 34.56 
L 238.8096 34.56 
L 236.1312 34.56 
L 233.4528 34.56 
L 230.7744 34.56 
L 228.096 34.56 
L 225.4176 34.56 
L 222.7392 34.56 
L 220.0608 34.56 
L 217.3824 34.56 
L 214.704 34.56 
L 212.0256 34.56 
L 209.3472 34.56 
L 206.6688 34.56 
L 203.9904 34.56 
L 201.312 34.56 
L 198.6336 34.56 
L 195.9552 34.56 
L 193.2768 34.56 
L 190.5984 34.56 
L 187.92 34.56 
L 185.2416 34.56 
L 182.5632 34.56 
L 179.8848 34.56 
L 177.2064 34.56 
L 174.528 34.56 
L 171.8496 34.56 
L 169.1712 34.56 
L 166.4928 34.56 
L 163.8144 34.56 
L 161.136 34.56 
L 158.4576 34.56 
L 155.7792 34.56 
L 153.1008 34.56 
L 150.4224 34.56 
L 147.744 34.56 
L 145.0656 34.56 
L 142.3872 34.56 
L 139.7088 34.56 
L 137.0304 34.56 
L 134.352 34.56 
L 131.6736 34.56 
L 128.9952 34.56 
L 126.3168 34.56 
L 123.6384 34.56 
L 120.96 34.56 
L 118.2816 34.56 
L 115.6032 34.56 
L 112.9248 34.56 
L 110.2464 34.56 
L 107.568 34.56 
L 104.8896 34.56 
L 102.2112 34.56 
L 99.5328 34.56 
L 96.8544 34.56 
L 94.176 34.56 
L 91.4976 34.56 
L 88.8192 34.56 
L 86.1408 34.56 
L 83.4624 34.56 
L 80.784 34.56 
L 78.1056 34.56 
L 75.4272 34.56 
L 72.7488 34.56 
L 70.0704 34.56 
L 67.392 34.56 
L 64.7136 34.56 
L 62.0352 34.56 
L 59.3568 34.56 
L 56.6784 34.56 
L 54 34.56 
L 54 36.691765 
L 54 38.823529 
L 54 40.955294 
L 54 43.087059 
L 54 45.218824 
L 54 47.350588 
L 54 49.482353 
L 54 51.614118 
L 54 53.745882 
L 54 55.877647 
L 54 58.009412 
L 54 60.141176 
L 54 62.272941 
L 54 64.404706 
L 54 66.536471 
L 54 68.668235 
L 54 70.8 
L 54 72.931765 
L 54 75.063529 
L 54 77.195294 
L 54 79.327059 
L 54 81.458824 
L 54 83.590588 
L 54 85.722353 
L 54 87.854118 
L 54 89.985882 
L 54 92.117647 
L 54 94.249412 
L 54 96.381176 
L 54 98.512941 
L 54 100.644706 
L 54 102.776471 
L 54 104.908235 
L 54 107.04 
L 54 109.171765 
L 54 111.303529 
L 54 113.435294 
L 54 115.567059 
L 54 117.698824 
L 54 119.830588 
L 54 121.962353 
L 54 124.094118 
L 54 126.225882 
L 54 128.357647 
L 54 130.489412 
L 54 132.621176 
L 54 134.752941 
L 54 136.884706 
L 54 139.016471 
L 54 141.148235 
L 54 143.28 
L 54 145.411765 
L 54 147.543529 
L 54 149.675294 
L 54 151.807059 
L 54 153.938824 
L 54 156.070588 
L 54 158.202353 
L 54 160.334118 
L 54 162.465882 
L 54 164.597647 
L 54 166.729412 
L 54 168.861176 
L 54 170.992941 
L 54 173.124706 
L 54 175.256471 
L 54 177.388235 
L 54 179.52 
L 54 181.651765 
L 54 183.783529 
L 54 185.915294 
L 54 188.047059 
L 54 190.178824 
L 54 192.310588 
L 54 194.442353 
L 54 196.574118 
L 54 198.705882 
L 54 200.837647 
L 54 202.969412 
L 54 205.101176 
L 54 207.232941 
L 54 209.364706 
L 54 211.496471 
L 54 213.628235 
L 54 215.76 
L 54 217.891765 
L 54 220.023529 
L 54 222.155294 
L 54 224.287059 
L 54 226.418824 
L 54 228.550588 
L 54 230.682353 
L 54 232.814118 
L 54 234.945882 
L 54 237.077647 
L 54 239.209412 
L 54 241.341176 
L 54 243.472941 
L 54 245.604706 
L 54 247.736471 
L 54 249.868235 
L 54 252 
z
M 203.305794 205.101176 
L 201.312 204.774338 
L 198.6336 204.269719 
L 195.9552 203.692383 
L 193.2768 203.037624 
L 193.019595 202.969412 
L 190.5984 202.341747 
L 187.92 201.56814 
L 185.633561 200.837647 
L 185.2416 200.713468 
L 182.5632 199.809373 
L 179.8848 198.810929 
L 179.616625 198.705882 
L 177.2064 197.757648 
L 174.528 196.607935 
L 174.452085 196.574118 
L 171.8496 195.399363 
L 169.872359 194.442353 
L 169.1712 194.096061 
L 166.4928 192.716764 
L 165.734987 192.310588 
L 163.8144 191.255912 
L 161.937302 190.178824 
L 161.136 189.706229 
L 158.4576 188.071446 
L 158.418343 188.047059 
L 155.7792 186.361939 
L 155.098467 185.915294 
L 153.1008 184.567751 
L 151.963597 183.783529 
L 150.4224 182.691551 
L 148.981596 181.651765 
L 147.744 180.735183 
L 146.129372 179.52 
L 145.0656 178.699384 
L 143.391109 177.388235 
L 142.3872 176.583197 
L 140.756812 175.256471 
L 139.7088 174.383164 
L 138.221037 173.124706 
L 137.0304 172.092409 
L 135.781782 170.992941 
L 134.352 169.69969 
L 133.439539 168.861176 
L 131.6736 167.188415 
L 131.196591 166.729412 
L 129.054397 164.597647 
L 128.9952 164.537228 
L 126.997429 162.465882 
L 126.3168 161.729137 
L 125.045631 160.334118 
L 123.6384 158.709264 
L 123.204055 158.202353 
L 121.457008 156.070588 
L 120.96 155.432279 
L 119.80456 153.938824 
L 118.2816 151.820095 
L 118.272238 151.807059 
L 116.806094 149.675294 
L 115.6032 147.762214 
L 115.464796 147.543529 
L 114.188955 145.411765 
L 113.034463 143.28 
L 112.9248 143.063449 
L 111.937885 141.148235 
L 110.946601 139.016471 
L 110.2464 137.346914 
L 110.047044 136.884706 
L 109.205424 134.752941 
L 108.460551 132.621176 
L 107.806298 130.489412 
L 107.568 129.6091 
L 107.213731 128.357647 
L 106.690604 126.225882 
L 106.249561 124.094118 
L 105.886935 121.962353 
L 105.599726 119.830588 
L 105.385578 117.698824 
L 105.242762 115.567059 
L 105.170164 113.435294 
L 105.167283 111.303529 
L 105.234233 109.171765 
L 105.371754 107.04 
L 105.58123 104.908235 
L 105.864717 102.776471 
L 106.22498 100.644706 
L 106.66554 98.512941 
L 107.190734 96.381176 
L 107.568 95.061017 
L 107.790109 94.249412 
L 108.454337 92.117647 
L 109.215095 89.985882 
L 110.080308 87.854118 
L 110.2464 87.481012 
L 111.010842 85.722353 
L 112.048377 83.590588 
L 112.9248 81.970925 
L 113.19902 81.458824 
L 114.437571 79.327059 
L 115.6032 77.521622 
L 115.814543 77.195294 
L 117.295692 75.063529 
L 118.2816 73.7663 
L 118.926714 72.931765 
L 120.708786 70.8 
L 120.96 70.516432 
L 122.649085 68.668235 
L 123.6384 67.658794 
L 124.786085 66.536471 
L 126.3168 65.126132 
L 127.143469 64.404706 
L 128.9952 62.866667 
L 129.759213 62.272941 
L 131.6736 60.842856 
L 132.690584 60.141176 
L 134.352 59.028419 
L 136.021914 58.009412 
L 137.0304 57.40624 
L 139.7088 55.963009 
L 139.883535 55.877647 
L 142.3872 54.661418 
L 144.550343 53.745882 
L 145.0656 53.526976 
L 147.744 52.516979 
L 150.4224 51.66143 
L 150.59459 51.614118 
L 153.1008 50.909529 
L 155.7792 50.291686 
L 158.4576 49.800998 
L 160.752714 49.482353 
L 161.136 49.42686 
L 163.8144 49.154555 
L 166.4928 48.999194 
L 169.1712 48.95848 
L 171.8496 49.031815 
L 174.528 49.220279 
L 176.823332 49.482353 
L 177.2064 49.524147 
L 179.8848 49.928689 
L 182.5632 50.454859 
L 185.2416 51.110685 
L 186.95648 51.614118 
L 187.92 51.890957 
L 190.5984 52.789113 
L 193.032317 53.745882 
L 193.2768 53.84129 
L 195.9552 55.014954 
L 197.684629 55.877647 
L 198.6336 56.354362 
L 201.312 57.857908 
L 201.55976 58.009412 
L 203.9904 59.527968 
L 204.887421 60.141176 
L 206.6688 61.397402 
L 207.818804 62.272941 
L 209.3472 63.485114 
L 210.434934 64.404706 
L 212.0256 65.819574 
L 212.790924 66.536471 
L 214.704 68.441019 
L 214.923264 68.668235 
L 216.872027 70.8 
L 217.3824 71.398774 
L 218.655913 72.931765 
L 220.0608 74.777564 
L 220.275262 75.063529 
L 221.776592 77.195294 
L 222.7392 78.70214 
L 223.138008 79.327059 
L 224.397856 81.458824 
L 225.4176 83.383241 
L 225.528855 83.590588 
L 226.590041 85.722353 
L 227.534787 87.854118 
L 228.096 89.263182 
L 228.392279 89.985882 
L 229.184686 92.117647 
L 229.885084 94.249412 
L 230.502534 96.381176 
L 230.7744 97.436517 
L 231.065318 98.512941 
L 231.577158 100.644706 
L 232.02764 102.776471 
L 232.426483 104.908235 
L 232.784197 107.04 
L 233.112435 109.171765 
L 233.424378 111.303529 
L 233.4528 111.498322 
L 233.756773 113.435294 
L 234.108211 115.567059 
L 234.497776 117.698824 
L 234.949762 119.830588 
L 235.491595 121.962353 
L 236.1312 124.022142 
L 236.155448 124.094118 
L 237.029293 126.225882 
L 238.098519 128.357647 
L 238.8096 129.529901 
L 239.43698 130.489412 
L 241.090196 132.621176 
L 241.488 133.060309 
L 243.117054 134.752941 
L 244.1664 135.709429 
L 245.518429 136.884706 
L 246.8448 137.921739 
L 248.289647 139.016471 
L 249.5232 139.877503 
L 251.369313 141.148235 
L 252.2016 141.688411 
L 254.646526 143.28 
L 254.88 143.426615 
L 257.5584 145.126158 
L 258.00064 145.411765 
L 260.2368 146.846076 
L 261.291106 147.543529 
L 262.9152 148.634967 
L 264.408841 149.675294 
L 265.5936 150.53324 
L 267.289778 151.807059 
L 268.272 152.592734 
L 269.899802 153.938824 
L 270.9504 154.888195 
L 272.224038 156.070588 
L 273.6288 157.53583 
L 274.256253 158.202353 
L 276.005227 160.334118 
L 276.3072 160.76553 
L 277.496111 162.465882 
L 278.702566 164.597647 
L 278.9856 165.229551 
L 279.670488 166.729412 
L 280.386206 168.861176 
L 280.850186 170.992941 
L 281.072031 173.124706 
L 281.055366 175.256471 
L 280.797786 177.388235 
L 280.290574 179.52 
L 279.518181 181.651765 
L 278.9856 182.742551 
L 278.48256 183.783529 
L 277.166831 185.915294 
L 276.3072 187.048339 
L 275.537444 188.047059 
L 273.6288 190.109163 
L 273.56218 190.178824 
L 271.216936 192.310588 
L 270.9504 192.525226 
L 268.42427 194.442353 
L 268.272 194.547258 
L 265.5936 196.279438 
L 265.099507 196.574118 
L 262.9152 197.791679 
L 261.095695 198.705882 
L 260.2368 199.118374 
L 257.5584 200.291082 
L 256.161917 200.837647 
L 254.88 201.329814 
L 252.2016 202.25057 
L 249.799141 202.969412 
L 249.5232 203.052437 
L 246.8448 203.778062 
L 244.1664 204.40002 
L 241.488 204.928328 
L 240.461715 205.101176 
L 238.8096 205.390454 
L 236.1312 205.781103 
L 233.4528 206.094234 
L 230.7744 206.334831 
L 228.096 206.506851 
L 225.4176 206.613331 
L 222.7392 206.656473 
L 220.0608 206.637707 
L 217.3824 206.557748 
L 214.704 206.416629 
L 212.0256 206.213727 
L 209.3472 205.94778 
L 206.6688 205.616888 
L 203.9904 205.218515 
z
" style="fill:#ff3e3e;fill-opacity:0.3;"/>
   </g>
   <g id="matplotlib.axis_1">
    <g id="xtick_1">
     <g id="line2d_1">
      <defs>
       <path d="M 0 0 
L 0 3.5 
" id="m2049fd7377" style="stroke:#000000;stroke-width:0.8;"/>
      </defs>
      <g>
       <use style="stroke:#000000;stroke-width:0.8;" x="73.131429" xlink:href="#m2049fd7377" y="252"/>
      </g>
     </g>
     <g id="text_1">
      <!-- −6 -->
      <g transform="translate(65.760335 266.598437)scale(0.1 -0.1)">
       <defs>
        <path d="M 678 2272 
L 4684 2272 
L 4684 1741 
L 678 1741 
L 678 2272 
z
" id="DejaVuSans-2212" transform="scale(0.015625)"/>
        <path d="M 2113 2584 
Q 1688 2584 1439 2293 
Q 1191 2003 1191 1497 
Q 1191 994 1439 701 
Q 1688 409 2113 409 
Q 2538 409 2786 701 
Q 3034 994 3034 1497 
Q 3034 2003 2786 2293 
Q 2538 2584 2113 2584 
z
M 3366 4563 
L 3366 3988 
Q 3128 4100 2886 4159 
Q 2644 4219 2406 4219 
Q 1781 4219 1451 3797 
Q 1122 3375 1075 2522 
Q 1259 2794 1537 2939 
Q 1816 3084 2150 3084 
Q 2853 3084 3261 2657 
Q 3669 2231 3669 1497 
Q 3669 778 3244 343 
Q 2819 -91 2113 -91 
Q 1303 -91 875 529 
Q 447 1150 447 2328 
Q 447 3434 972 4092 
Q 1497 4750 2381 4750 
Q 2619 4750 2861 4703 
Q 3103 4656 3366 4563 
z
" id="DejaVuSans-36" transform="scale(0.015625)"/>
       </defs>
       <use xlink:href="#DejaVuSans-2212"/>
       <use x="83.789062" xlink:href="#DejaVuSans-36"/>
      </g>
     </g>
    </g>
    <g id="xtick_2">
     <g id="line2d_2">
      <g>
       <use style="stroke:#000000;stroke-width:0.8;" x="111.394286" xlink:href="#m2049fd7377" y="252"/>
      </g>
     </g>
     <g id="text_2">
      <!-- −4 -->
      <g transform="translate(104.023192 266.598437)scale(0.1 -0.1)">
       <defs>
        <path d="M 2419 4116 
L 825 1625 
L 2419 1625 
L 2419 4116 
z
M 2253 4666 
L 3047 4666 
L 3047 1625 
L 3713 1625 
L 3713 1100 
L 3047 1100 
L 3047 0 
L 2419 0 
L 2419 1100 
L 313 1100 
L 313 1709 
L 2253 4666 
z
" id="DejaVuSans-34" transform="scale(0.015625)"/>
       </defs>
       <use xlink:href="#DejaVuSans-2212"/>
       <use x="83.789062" xlink:href="#DejaVuSans-34"/>
      </g>
     </g>
    </g>
    <g id="xtick_3">
     <g id="line2d_3">
      <g>
       <use style="stroke:#000000;stroke-width:0.8;" x="149.657143" xlink:href="#m2049fd7377" y="252"/>
      </g>
     </g>
     <g id="text_3">
      <!-- −2 -->
      <g transform="translate(142.286049 266.598437)scale(0.1 -0.1)">
       <defs>
        <path d="M 1228 531 
L 3431 531 
L 3431 0 
L 469 0 
L 469 531 
Q 828 903 1448 1529 
Q 2069 2156 2228 2338 
Q 2531 2678 2651 2914 
Q 2772 3150 2772 3378 
Q 2772 3750 2511 3984 
Q 2250 4219 1831 4219 
Q 1534 4219 1204 4116 
Q 875 4013 500 3803 
L 500 4441 
Q 881 4594 1212 4672 
Q 1544 4750 1819 4750 
Q 2544 4750 2975 4387 
Q 3406 4025 3406 3419 
Q 3406 3131 3298 2873 
Q 3191 2616 2906 2266 
Q 2828 2175 2409 1742 
Q 1991 1309 1228 531 
z
" id="DejaVuSans-32" transform="scale(0.015625)"/>
       </defs>
       <use xlink:href="#DejaVuSans-2212"/>
       <use x="83.789062" xlink:href="#DejaVuSans-32"/>
      </g>
     </g>
    </g>
    <g id="xtick_4">
     <g id="line2d_4">
      <g>
       <use style="stroke:#000000;stroke-width:0.8;" x="187.92" xlink:href="#m2049fd7377" y="252"/>
      </g>
     </g>
     <g id="text_4">
      <!-- 0 -->
      <g transform="translate(184.73875 266.598437)scale(0.1 -0.1)">
       <defs>
        <path d="M 2034 4250 
Q 1547 4250 1301 3770 
Q 1056 3291 1056 2328 
Q 1056 1369 1301 889 
Q 1547 409 2034 409 
Q 2525 409 2770 889 
Q 3016 1369 3016 2328 
Q 3016 3291 2770 3770 
Q 2525 4250 2034 4250 
z
M 2034 4750 
Q 2819 4750 3233 4129 
Q 3647 3509 3647 2328 
Q 3647 1150 3233 529 
Q 2819 -91 2034 -91 
Q 1250 -91 836 529 
Q 422 1150 422 2328 
Q 422 3509 836 4129 
Q 1250 4750 2034 4750 
z
" id="DejaVuSans-30" transform="scale(0.015625)"/>
       </defs>
       <use xlink:href="#DejaVuSans-30"/>
      </g>
     </g>
    </g>
    <g id="xtick_5">
     <g id="line2d_5">
      <g>
       <use style="stroke:#000000;stroke-width:0.8;" x="226.182857" xlink:href="#m2049fd7377" y="252"/>
      </g>
     </g>
     <g id="text_5">
      <!-- 2 -->
      <g transform="translate(223.001607 266.598437)scale(0.1 -0.1)">
       <use xlink:href="#DejaVuSans-32"/>
      </g>
     </g>
    </g>
    <g id="xtick_6">
     <g id="line2d_6">
      <g>
       <use style="stroke:#000000;stroke-width:0.8;" x="264.445714" xlink:href="#m2049fd7377" y="252"/>
      </g>
     </g>
     <g id="text_6">
      <!-- 4 -->
      <g transform="translate(261.264464 266.598437)scale(0.1 -0.1)">
       <use xlink:href="#DejaVuSans-34"/>
      </g>
     </g>
    </g>
    <g id="xtick_7">
     <g id="line2d_7">
      <g>
       <use style="stroke:#000000;stroke-width:0.8;" x="302.708571" xlink:href="#m2049fd7377" y="252"/>
      </g>
     </g>
     <g id="text_7">
      <!-- 6 -->
      <g transform="translate(299.527321 266.598437)scale(0.1 -0.1)">
       <use xlink:href="#DejaVuSans-36"/>
      </g>
     </g>
    </g>
   </g>
   <g id="matplotlib.axis_2">
    <g id="ytick_1">
     <g id="line2d_8">
      <defs>
       <path d="M 0 0 
L -3.5 0 
" id="mb4115f12a6" style="stroke:#000000;stroke-width:0.8;"/>
      </defs>
      <g>
       <use style="stroke:#000000;stroke-width:0.8;" x="54" xlink:href="#mb4115f12a6" y="236.468571"/>
      </g>
     </g>
     <g id="text_8">
      <!-- −6 -->
      <g transform="translate(32.257812 240.26779)scale(0.1 -0.1)">
       <use xlink:href="#DejaVuSans-2212"/>
       <use x="83.789062" xlink:href="#DejaVuSans-36"/>
      </g>
     </g>
    </g>
    <g id="ytick_2">
     <g id="line2d_9">
      <g>
       <use style="stroke:#000000;stroke-width:0.8;" x="54" xlink:href="#mb4115f12a6" y="205.405714"/>
      </g>
     </g>
     <g id="text_9">
      <!-- −4 -->
      <g transform="translate(32.257812 209.204933)scale(0.1 -0.1)">
       <use xlink:href="#DejaVuSans-2212"/>
       <use x="83.789062" xlink:href="#DejaVuSans-34"/>
      </g>
     </g>
    </g>
    <g id="ytick_3">
     <g id="line2d_10">
      <g>
       <use style="stroke:#000000;stroke-width:0.8;" x="54" xlink:href="#mb4115f12a6" y="174.342857"/>
      </g>
     </g>
     <g id="text_10">
      <!-- −2 -->
      <g transform="translate(32.257812 178.142076)scale(0.1 -0.1)">
       <use xlink:href="#DejaVuSans-2212"/>
       <use x="83.789062" xlink:href="#DejaVuSans-32"/>
      </g>
     </g>
    </g>
    <g id="ytick_4">
     <g id="line2d_11">
      <g>
       <use style="stroke:#000000;stroke-width:0.8;" x="54" xlink:href="#mb4115f12a6" y="143.28"/>
      </g>
     </g>
     <g id="text_11">
      <!-- 0 -->
      <g transform="translate(40.6375 147.079219)scale(0.1 -0.1)">
       <use xlink:href="#DejaVuSans-30"/>
      </g>
     </g>
    </g>
    <g id="ytick_5">
     <g id="line2d_12">
      <g>
       <use style="stroke:#000000;stroke-width:0.8;" x="54" xlink:href="#mb4115f12a6" y="112.217143"/>
      </g>
     </g>
     <g id="text_12">
      <!-- 2 -->
      <g transform="translate(40.6375 116.016362)scale(0.1 -0.1)">
       <use xlink:href="#DejaVuSans-32"/>
      </g>
     </g>
    </g>
    <g id="ytick_6">
     <g id="line2d_13">
      <g>
       <use style="stroke:#000000;stroke-width:0.8;" x="54" xlink:href="#mb4115f12a6" y="81.154286"/>
      </g>
     </g>
     <g id="text_13">
      <!-- 4 -->
      <g transform="translate(40.6375 84.953504)scale(0.1 -0.1)">
       <use xlink:href="#DejaVuSans-34"/>
      </g>
     </g>
    </g>
    <g id="ytick_7">
     <g id="line2d_14">
      <g>
       <use style="stroke:#000000;stroke-width:0.8;" x="54" xlink:href="#mb4115f12a6" y="50.091429"/>
      </g>
     </g>
     <g id="text_14">
      <!-- 6 -->
      <g transform="translate(40.6375 53.890647)scale(0.1 -0.1)">
       <use xlink:href="#DejaVuSans-36"/>
      </g>
     </g>
    </g>
   </g>
   <g id="LineCollection_1">
    <path clip-path="url(#pabb50fc18a)" d="M 54 252 
" style="fill:none;stroke:#ffffff;stroke-width:1.25;"/>
   </g>
   <g id="LineCollection_2">
    <path clip-path="url(#pabb50fc18a)" d="M 220.0608 215.769207 
L 225.4176 215.738812 
L 230.7744 215.521076 
L 236.1312 215.099224 
L 241.488 214.446393 
L 246.8448 213.533688 
L 252.2016 212.419251 
L 257.5584 210.993427 
L 262.9152 209.247968 
L 265.5936 208.267576 
L 270.9504 205.95591 
L 273.6288 204.616136 
L 276.589466 202.969412 
L 279.993911 200.837647 
L 282.954138 198.705882 
L 285.539304 196.574118 
L 287.792711 194.442353 
L 289.736637 192.310588 
L 291.453896 190.178824 
L 292.894353 188.047059 
L 294.118916 185.915294 
L 295.090374 183.783529 
L 295.901273 181.651765 
L 296.489423 179.52 
L 296.872223 177.388235 
L 297.061032 175.256471 
L 297.061743 173.124706 
L 296.875105 170.992941 
L 296.496826 168.861176 
L 295.91746 166.729412 
L 295.056 164.455322 
L 294.173326 162.465882 
L 292.3776 159.406059 
L 291.602486 158.202353 
L 289.6992 155.741314 
L 287.0208 152.758512 
L 286.093704 151.807059 
L 283.786421 149.675294 
L 281.249747 147.543529 
L 276.3072 143.812245 
L 270.9504 140.111458 
L 265.5936 136.467883 
L 262.9152 134.542728 
L 260.2368 132.439702 
L 257.5584 130.022739 
L 254.88 127.079534 
L 254.208122 126.225882 
L 252.2016 123.115072 
L 251.594389 121.962353 
L 250.651488 119.830588 
L 249.5232 116.636105 
L 248.698777 113.435294 
L 247.414892 107.04 
L 245.298585 96.381176 
L 244.157376 92.117647 
L 242.86109 87.854118 
L 241.255061 83.590588 
L 239.399706 79.327059 
L 237.228077 75.063529 
L 234.701254 70.8 
L 231.781301 66.536471 
L 228.402249 62.272941 
L 225.4176 58.949624 
L 222.323943 55.877647 
L 219.952934 53.745882 
L 217.376881 51.614118 
L 214.559711 49.482353 
L 211.449586 47.350588 
L 207.973282 45.218824 
L 206.6688 44.465226 
L 201.312 41.764958 
L 195.9552 39.555409 
L 190.5984 37.788783 
L 185.2416 36.452143 
L 179.8848 35.481736 
L 174.528 34.912342 
L 169.1712 34.7096 
L 163.8144 34.861444 
L 158.4576 35.376902 
L 153.1008 36.286993 
L 147.744 37.571727 
L 142.3872 39.281587 
L 138.154661 40.955294 
L 137.0304 41.425421 
L 131.6736 44.046095 
L 128.9952 45.56548 
L 126.129097 47.350588 
L 123.01264 49.482353 
L 120.190857 51.614118 
L 117.615725 53.745882 
L 115.254004 55.877647 
L 111.042461 60.141176 
L 109.163237 62.272941 
L 105.79769 66.536471 
L 102.884179 70.8 
L 100.356469 75.063529 
L 98.17708 79.327059 
L 96.332582 83.590588 
L 94.768786 87.854118 
L 93.48107 92.117647 
L 92.452344 96.381176 
L 91.703334 100.644706 
L 91.171296 104.908235 
L 90.872579 109.171765 
L 90.818667 113.435294 
L 91.007037 117.698824 
L 91.4976 122.328095 
L 92.079517 126.225882 
L 92.969469 130.489412 
L 94.176 134.827442 
L 95.526522 139.016471 
L 97.217585 143.28 
L 99.169519 147.543529 
L 102.2112 153.180737 
L 103.947565 156.070588 
L 107.568 161.349762 
L 110.2464 164.852221 
L 113.592627 168.861176 
L 118.2816 173.879873 
L 121.882224 177.388235 
L 126.68395 181.651765 
L 131.975764 185.915294 
L 137.839236 190.178824 
L 142.3872 193.183101 
L 148.057142 196.574118 
L 153.1008 199.319027 
L 158.4576 201.946952 
L 163.8144 204.300357 
L 169.1712 206.402561 
L 174.528 208.267971 
L 179.8848 209.900522 
L 186.037572 211.496471 
L 190.5984 212.552827 
L 196.470709 213.628235 
L 201.312 214.399766 
L 206.6688 215.036424 
L 212.0256 215.469759 
L 217.3824 215.714295 
L 220.0608 215.769207 
L 220.0608 215.769207 
" style="fill:none;stroke:#f0f0f0;stroke-width:1.25;"/>
   </g>
   <g id="LineCollection_3">
    <path clip-path="url(#pabb50fc18a)" d="M 203.9904 205.218515 
L 209.3472 205.94778 
L 214.704 206.416629 
L 220.0608 206.637707 
L 225.4176 206.613331 
L 230.7744 206.334831 
L 236.1312 205.781103 
L 241.488 204.928328 
L 246.8448 203.778062 
L 252.2016 202.25057 
L 256.161917 200.837647 
L 257.5584 200.291082 
L 261.095695 198.705882 
L 265.099507 196.574118 
L 265.5936 196.279438 
L 268.42427 194.442353 
L 271.216936 192.310588 
L 273.6288 190.109163 
L 275.537444 188.047059 
L 277.166831 185.915294 
L 278.48256 183.783529 
L 279.518181 181.651765 
L 280.290574 179.52 
L 280.797786 177.388235 
L 281.055366 175.256471 
L 281.072031 173.124706 
L 280.850186 170.992941 
L 280.386206 168.861176 
L 279.670488 166.729412 
L 278.702566 164.597647 
L 277.496111 162.465882 
L 276.005227 160.334118 
L 273.6288 157.53583 
L 270.9504 154.888195 
L 268.272 152.592734 
L 265.5936 150.53324 
L 261.291106 147.543529 
L 254.646526 143.28 
L 248.289647 139.016471 
L 245.518429 136.884706 
L 243.117054 134.752941 
L 241.090196 132.621176 
L 238.8096 129.529901 
L 238.098519 128.357647 
L 237.029293 126.225882 
L 236.1312 124.022142 
L 235.491595 121.962353 
L 234.497776 117.698824 
L 233.424378 111.303529 
L 232.426483 104.908235 
L 231.577158 100.644706 
L 230.502534 96.381176 
L 229.184686 92.117647 
L 227.534787 87.854118 
L 225.528855 83.590588 
L 223.138008 79.327059 
L 221.776592 77.195294 
L 218.655913 72.931765 
L 216.872027 70.8 
L 214.704 68.441019 
L 212.0256 65.819574 
L 209.3472 63.485114 
L 206.6688 61.397402 
L 203.9904 59.527968 
L 201.312 57.857908 
L 197.684629 55.877647 
L 195.9552 55.014954 
L 193.032317 53.745882 
L 190.5984 52.789113 
L 186.95648 51.614118 
L 185.2416 51.110685 
L 182.5632 50.454859 
L 179.8848 49.928689 
L 174.528 49.220279 
L 171.8496 49.031815 
L 169.1712 48.95848 
L 166.4928 48.999194 
L 163.8144 49.154555 
L 158.4576 49.800998 
L 155.7792 50.291686 
L 153.1008 50.909529 
L 147.744 52.516979 
L 144.550343 53.745882 
L 142.3872 54.661418 
L 139.7088 55.963009 
L 136.021914 58.009412 
L 132.690584 60.141176 
L 129.759213 62.272941 
L 127.143469 64.404706 
L 124.786085 66.536471 
L 122.649085 68.668235 
L 120.708786 70.8 
L 118.2816 73.7663 
L 115.814543 77.195294 
L 114.437571 79.327059 
L 112.048377 83.590588 
L 110.080308 87.854118 
L 108.454337 92.117647 
L 107.190734 96.381176 
L 106.22498 100.644706 
L 105.58123 104.908235 
L 105.234233 109.171765 
L 105.170164 113.435294 
L 105.385578 117.698824 
L 105.886935 121.962353 
L 106.690604 126.225882 
L 107.806298 130.489412 
L 109.205424 134.752941 
L 110.946601 139.016471 
L 113.034463 143.28 
L 115.464796 147.543529 
L 118.2816 151.820095 
L 121.457008 156.070588 
L 125.045631 160.334118 
L 129.054397 164.597647 
L 133.439539 168.861176 
L 138.221037 173.124706 
L 143.391109 177.388235 
L 148.981596 181.651765 
L 153.1008 184.567751 
L 158.4576 188.071446 
L 163.8144 191.255912 
L 169.1712 194.096061 
L 171.8496 195.399363 
L 177.2064 197.757648 
L 182.5632 199.809373 
L 187.92 201.56814 
L 193.2768 203.037624 
L 198.6336 204.269719 
L 203.9904 205.218515 
L 203.9904 205.218515 
" style="fill:none;stroke:#dadada;stroke-width:1.25;"/>
   </g>
   <g id="LineCollection_4">
    <path clip-path="url(#pabb50fc18a)" d="M 209.3472 199.033674 
L 214.704 199.615587 
L 220.0608 199.888681 
L 225.4176 199.852536 
L 230.7744 199.493692 
L 236.1312 198.783489 
L 241.488 197.698525 
L 245.526539 196.574118 
L 246.8448 196.157517 
L 251.329289 194.442353 
L 252.2016 194.058833 
L 255.672588 192.310588 
L 259.088549 190.178824 
L 261.829817 188.047059 
L 264.033707 185.915294 
L 265.7827 183.783529 
L 267.140823 181.651765 
L 268.272 179.080321 
L 268.802781 177.388235 
L 269.155506 175.256471 
L 269.202214 173.124706 
L 268.948285 170.992941 
L 268.272 168.560333 
L 267.542963 166.729412 
L 266.381382 164.597647 
L 264.899712 162.465882 
L 262.9152 160.158283 
L 260.2368 157.585478 
L 257.5584 155.386423 
L 254.88 153.431816 
L 249.5232 149.95869 
L 238.69609 143.28 
L 235.715894 141.148235 
L 233.146348 139.016471 
L 230.7744 136.611068 
L 229.284541 134.752941 
L 227.89581 132.621176 
L 226.824352 130.489412 
L 225.978538 128.357647 
L 225.319674 126.225882 
L 224.43182 121.962353 
L 223.839833 117.698824 
L 222.7392 108.821334 
L 222.106927 104.908235 
L 221.17723 100.644706 
L 219.93178 96.381176 
L 218.352029 92.117647 
L 216.349188 87.854118 
L 213.865302 83.590588 
L 212.0256 80.930137 
L 209.3472 77.567615 
L 207.039797 75.063529 
L 204.817537 72.931765 
L 202.311654 70.8 
L 199.454594 68.668235 
L 198.6336 68.098546 
L 195.9552 66.422097 
L 192.150427 64.404706 
L 190.5984 63.667316 
L 187.088209 62.272941 
L 185.2416 61.622625 
L 182.5632 60.837152 
L 179.526699 60.141176 
L 177.2064 59.707212 
L 174.528 59.348479 
L 171.8496 59.127814 
L 169.1712 59.04195 
L 166.4928 59.089622 
L 163.8144 59.271531 
L 161.136 59.590369 
L 158.053227 60.141176 
L 155.7792 60.641745 
L 153.1008 61.381738 
L 150.4224 62.285061 
L 147.744 63.33381 
L 145.0656 64.567627 
L 141.444533 66.536471 
L 138.12501 68.668235 
L 135.26682 70.8 
L 132.761921 72.931765 
L 130.53973 75.063529 
L 128.555051 77.195294 
L 126.3168 79.919632 
L 125.167019 81.458824 
L 122.419656 85.722353 
L 120.205399 89.985882 
L 118.45822 94.249412 
L 117.10686 98.512941 
L 116.152469 102.776471 
L 115.562507 107.04 
L 115.305533 111.303529 
L 115.396746 115.567059 
L 115.826364 119.830588 
L 116.59143 124.094118 
L 117.724112 128.357647 
L 119.218744 132.621176 
L 121.111312 136.884706 
L 123.402396 141.148235 
L 124.704239 143.28 
L 127.65499 147.543529 
L 131.069694 151.807059 
L 134.352 155.445578 
L 137.060349 158.202353 
L 142.3872 163.189446 
L 147.744 167.81345 
L 154.267202 173.124706 
L 161.136 178.380247 
L 166.4928 182.172467 
L 171.8496 185.612466 
L 174.528 187.184623 
L 177.2064 188.656903 
L 182.5632 191.296468 
L 187.92 193.544464 
L 193.2768 195.422543 
L 198.6336 196.949805 
L 203.9904 198.150165 
L 209.3472 199.033674 
L 209.3472 199.033674 
" style="fill:none;stroke:#bdbdbd;stroke-width:1.25;"/>
   </g>
   <g id="LineCollection_5">
    <path clip-path="url(#pabb50fc18a)" d="M 209.3472 192.805992 
L 214.704 193.510941 
L 220.0608 193.832449 
L 225.4176 193.761423 
L 230.7744 193.273927 
L 233.4528 192.86164 
L 236.202084 192.310588 
L 238.8096 191.642504 
L 243.211142 190.178824 
L 244.1664 189.795204 
L 247.813539 188.047059 
L 251.17214 185.915294 
L 253.700285 183.783529 
L 255.597103 181.651765 
L 256.967415 179.52 
L 257.882638 177.388235 
L 258.377941 175.256471 
L 258.483033 173.124706 
L 258.209644 170.992941 
L 257.5584 168.853877 
L 256.52948 166.729412 
L 254.88 164.314422 
L 253.290545 162.465882 
L 251.052519 160.334118 
L 248.389918 158.202353 
L 244.1664 155.340646 
L 238.8096 152.171396 
L 230.719218 147.543529 
L 227.412184 145.411765 
L 224.578629 143.28 
L 222.249322 141.148235 
L 220.0608 138.548205 
L 218.953016 136.884706 
L 217.849032 134.752941 
L 217.020108 132.621176 
L 216.411246 130.489412 
L 215.965694 128.357647 
L 215.404778 124.094118 
L 214.126068 109.171765 
L 213.392027 104.908235 
L 212.323841 100.644706 
L 210.865617 96.381176 
L 209.3472 92.962999 
L 208.933974 92.117647 
L 206.6688 88.204284 
L 206.445055 87.854118 
L 203.9904 84.483245 
L 203.261262 83.590588 
L 201.312 81.417532 
L 198.6336 78.84883 
L 195.9552 76.658992 
L 193.2768 74.784634 
L 190.121755 72.931765 
L 187.92 71.815598 
L 185.2416 70.667037 
L 182.5632 69.71228 
L 178.632263 68.668235 
L 177.2064 68.352568 
L 174.528 67.925391 
L 171.8496 67.662625 
L 169.1712 67.560385 
L 166.4928 67.617164 
L 163.8144 67.833799 
L 161.136 68.213494 
L 158.4576 68.760485 
L 155.7792 69.474901 
L 152.043388 70.8 
L 150.4224 71.466631 
L 147.449917 72.931765 
L 143.896291 75.063529 
L 140.942016 77.195294 
L 138.423076 79.327059 
L 136.237165 81.458824 
L 134.320706 83.590588 
L 131.6736 87.085264 
L 131.150765 87.854118 
L 128.9952 91.529424 
L 127.668757 94.249412 
L 126.3168 97.723783 
L 125.401887 100.644706 
L 124.469332 104.908235 
L 123.964362 109.171765 
L 123.865899 113.435294 
L 124.167009 117.698824 
L 124.87357 121.962353 
L 126.00326 126.225882 
L 127.563624 130.489412 
L 129.591662 134.752941 
L 131.6736 138.319927 
L 133.575024 141.148235 
L 135.17438 143.28 
L 137.0304 145.550084 
L 140.831616 149.675294 
L 143.002354 151.807059 
L 147.744 156.084265 
L 153.1008 160.537182 
L 171.8496 175.511388 
L 177.323299 179.52 
L 182.5632 182.887027 
L 185.2416 184.423692 
L 188.082821 185.915294 
L 193.2768 188.255432 
L 198.6336 190.203785 
L 203.9904 191.706423 
L 209.3472 192.805992 
L 209.3472 192.805992 
" style="fill:none;stroke:#959595;stroke-width:1.25;"/>
   </g>
   <g id="LineCollection_6">
    <path clip-path="url(#pabb50fc18a)" d="M 209.3472 186.300458 
L 212.0256 186.806606 
L 214.704 187.188419 
L 217.3824 187.442654 
L 220.0608 187.565276 
L 222.7392 187.551342 
L 225.4176 187.394851 
L 228.096 187.088567 
L 230.7744 186.623814 
L 233.705118 185.915294 
L 236.1312 185.088726 
L 239.15542 183.783529 
L 242.51912 181.651765 
L 244.780859 179.52 
L 246.236891 177.388235 
L 247.059251 175.256471 
L 247.304536 173.124706 
L 247.036923 170.992941 
L 246.247978 168.861176 
L 244.954524 166.729412 
L 243.13403 164.597647 
L 240.7719 162.465882 
L 237.840358 160.334118 
L 233.4528 157.692048 
L 228.096 154.88827 
L 222.044838 151.807059 
L 218.278346 149.675294 
L 215.128963 147.543529 
L 212.634184 145.411765 
L 210.738813 143.28 
L 209.3472 141.139677 
L 208.345276 139.016471 
L 207.652222 136.884706 
L 207.193268 134.752941 
L 206.90819 132.621176 
L 206.679233 128.357647 
L 206.514532 113.435294 
L 206.05476 109.171765 
L 205.233458 104.908235 
L 204.662879 102.776471 
L 203.97257 100.644706 
L 203.143059 98.512941 
L 201.312 94.743325 
L 201.040153 94.249412 
L 198.6336 90.570968 
L 198.195265 89.985882 
L 195.9552 87.340053 
L 193.2768 84.736444 
L 190.5984 82.591636 
L 187.92 80.814714 
L 185.2019 79.327059 
L 182.5632 78.153564 
L 179.877061 77.195294 
L 177.2064 76.46906 
L 174.528 75.94871 
L 171.8496 75.628642 
L 169.1712 75.504132 
L 166.4928 75.573352 
L 163.8144 75.83733 
L 161.136 76.299973 
L 157.758279 77.195294 
L 155.7792 77.858063 
L 152.409653 79.327059 
L 150.4224 80.369807 
L 147.744 82.052665 
L 145.0656 84.086301 
L 142.3872 86.557187 
L 141.176373 87.854118 
L 139.402943 89.985882 
L 137.0304 93.498139 
L 136.585919 94.249412 
L 135.47467 96.381176 
L 134.352 98.970222 
L 133.737847 100.644706 
L 133.095232 102.776471 
L 132.588653 104.908235 
L 132.213013 107.04 
L 131.964412 109.171765 
L 131.840061 111.303529 
L 131.838204 113.435294 
L 131.958045 115.567059 
L 132.199678 117.698824 
L 132.564027 119.830588 
L 133.052765 121.962353 
L 133.668243 124.094118 
L 134.414177 126.225882 
L 135.302993 128.357647 
L 137.0304 131.782306 
L 137.505635 132.621176 
L 139.7088 136.01212 
L 142.016688 139.016471 
L 143.887967 141.148235 
L 145.947137 143.28 
L 148.204162 145.411765 
L 150.665447 147.543529 
L 155.7792 151.531929 
L 169.1712 161.166172 
L 173.47445 164.597647 
L 178.403167 168.861176 
L 183.334271 173.124706 
L 187.92 176.667935 
L 190.5984 178.490441 
L 193.2768 180.125202 
L 196.091809 181.651765 
L 201.312 183.9323 
L 203.9904 184.852393 
L 207.699466 185.915294 
L 209.3472 186.300458 
L 209.3472 186.300458 
" style="fill:none;stroke:#727272;stroke-width:1.25;"/>
   </g>
   <g id="LineCollection_7">
    <path clip-path="url(#pabb50fc18a)" d="M 209.3472 177.488127 
L 212.0256 178.256635 
L 214.704 178.823908 
L 217.3824 179.161569 
L 220.0608 179.238565 
L 222.7392 179.02108 
L 225.4176 178.472361 
L 228.437465 177.388235 
L 231.175666 175.256471 
L 232.198355 173.124706 
L 232.137274 170.992941 
L 231.151373 168.861176 
L 230.7744 168.417244 
L 229.177472 166.729412 
L 228.096 165.896525 
L 225.4176 164.135442 
L 222.128155 162.465882 
L 216.696063 160.334118 
L 209.961118 158.202353 
L 203.9904 156.438395 
L 201.312 155.56875 
L 197.46005 153.938824 
L 195.9552 152.658668 
L 195.211318 151.807059 
L 194.393164 149.675294 
L 194.157545 147.543529 
L 194.182799 145.411765 
L 194.645083 141.148235 
L 195.401549 136.884706 
L 197.069363 128.357647 
L 197.763119 124.094118 
L 198.234621 119.830588 
L 198.391507 115.567059 
L 198.15009 111.303529 
L 197.855452 109.171765 
L 197.432021 107.04 
L 196.870008 104.908235 
L 195.9552 102.27108 
L 195.255341 100.644706 
L 194.161432 98.512941 
L 192.847425 96.381176 
L 190.5984 93.476261 
L 187.92 90.796007 
L 185.2416 88.707022 
L 182.5632 87.065204 
L 179.727184 85.722353 
L 177.2064 84.831468 
L 174.528 84.154488 
L 171.8496 83.738119 
L 168.746264 83.590588 
L 166.4928 83.66663 
L 163.8144 84.010567 
L 161.136 84.613208 
L 157.892481 85.722353 
L 155.7792 86.673129 
L 153.1008 88.201079 
L 150.4224 90.153486 
L 147.744 92.669529 
L 146.374859 94.249412 
L 144.784892 96.381176 
L 143.50163 98.512941 
L 142.3872 100.732775 
L 141.585523 102.776471 
L 140.925227 104.908235 
L 140.434649 107.04 
L 140.108529 109.171765 
L 139.942981 111.303529 
L 139.935356 113.435294 
L 140.084118 115.567059 
L 140.388711 117.698824 
L 140.849406 119.830588 
L 141.467146 121.962353 
L 142.3872 124.425624 
L 143.219551 126.225882 
L 145.0656 129.489093 
L 145.729971 130.489412 
L 147.744 133.162026 
L 150.4224 136.08753 
L 153.1008 138.537811 
L 156.517375 141.148235 
L 159.794082 143.28 
L 161.136 144.097596 
L 163.8144 145.549329 
L 169.1712 148.051416 
L 174.528 150.16661 
L 185.2416 154.023297 
L 187.92 155.328742 
L 189.10506 156.070588 
L 190.907647 158.202353 
L 192.086343 160.334118 
L 193.2768 162.886675 
L 194.150694 164.597647 
L 195.9552 167.466303 
L 196.965756 168.861176 
L 198.858236 170.992941 
L 201.312 173.152759 
L 204.488355 175.256471 
L 206.6688 176.338472 
L 209.3472 177.488127 
L 209.3472 177.488127 
" style="fill:none;stroke:#515151;stroke-width:1.25;"/>
   </g>
   <g id="LineCollection_8">
    <path clip-path="url(#pabb50fc18a)" d="M 169.1712 135.303115 
L 171.8496 135.572024 
L 174.528 135.432868 
L 177.2064 134.804809 
L 177.32802 134.752941 
L 179.8848 133.534811 
L 181.121221 132.621176 
L 182.5632 131.405352 
L 183.370251 130.489412 
L 184.991122 128.357647 
L 185.2416 127.976163 
L 186.180329 126.225882 
L 187.130076 124.094118 
L 187.889291 121.962353 
L 187.92 121.851277 
L 188.407109 119.830588 
L 188.757878 117.698824 
L 188.941361 115.567059 
L 188.952084 113.435294 
L 188.783052 111.303529 
L 188.426008 109.171765 
L 187.92 107.225779 
L 187.866106 107.04 
L 187.018415 104.908235 
L 185.926619 102.776471 
L 185.2416 101.687818 
L 184.480782 100.644706 
L 182.622426 98.512941 
L 182.5632 98.454227 
L 180.031643 96.381176 
L 179.8848 96.275422 
L 177.2064 94.759647 
L 175.953486 94.249412 
L 174.528 93.72531 
L 171.8496 93.116357 
L 169.1712 92.880546 
L 166.4928 93.014865 
L 163.8144 93.521671 
L 161.612472 94.249412 
L 161.136 94.423936 
L 158.4576 95.826933 
L 157.645515 96.381176 
L 155.7792 97.83391 
L 155.0683 98.512941 
L 153.165137 100.644706 
L 153.1008 100.731288 
L 151.803312 102.776471 
L 150.733965 104.908235 
L 150.4224 105.736701 
L 149.988546 107.04 
L 149.511597 109.171765 
L 149.263908 111.303529 
L 149.24077 113.435294 
L 149.438728 115.567059 
L 149.855272 117.698824 
L 150.4224 119.609176 
L 150.496026 119.830588 
L 151.439662 121.962353 
L 152.616984 124.094118 
L 153.1008 124.832262 
L 154.15054 126.225882 
L 155.7792 128.110862 
L 156.031273 128.357647 
L 158.444865 130.489412 
L 158.4576 130.499783 
L 161.136 132.299602 
L 161.7456 132.621176 
L 163.8144 133.665714 
L 166.4928 134.671073 
L 166.838889 134.752941 
L 169.1712 135.303115 
" style="fill:none;stroke:#252525;stroke-width:1.25;"/>
   </g>
   <g id="LineCollection_9"/>
   <g id="patch_3">
    <path d="M 54 252 
L 54 34.56 
" style="fill:none;stroke:#000000;stroke-linecap:square;stroke-linejoin:miter;stroke-width:0.8;"/>
   </g>
   <g id="patch_4">
    <path d="M 321.84 252 
L 321.84 34.56 
" style="fill:none;stroke:#000000;stroke-linecap:square;stroke-linejoin:miter;stroke-width:0.8;"/>
   </g>
   <g id="patch_5">
    <path d="M 54 252 
L 321.84 252 
" style="fill:none;stroke:#000000;stroke-linecap:square;stroke-linejoin:miter;stroke-width:0.8;"/>
   </g>
   <g id="patch_6">
    <path d="M 54 34.56 
L 321.84 34.56 
" style="fill:none;stroke:#000000;stroke-linecap:square;stroke-linejoin:miter;stroke-width:0.8;"/>
   </g>
   <g id="text_15">
    <!-- Loss landscape (simpler model) -->
    <g transform="translate(92.844375 28.56)scale(0.12 -0.12)">
     <defs>
      <path d="M 628 4666 
L 1259 4666 
L 1259 531 
L 3531 531 
L 3531 0 
L 628 0 
L 628 4666 
z
" id="DejaVuSans-4c" transform="scale(0.015625)"/>
      <path d="M 1959 3097 
Q 1497 3097 1228 2736 
Q 959 2375 959 1747 
Q 959 1119 1226 758 
Q 1494 397 1959 397 
Q 2419 397 2687 759 
Q 2956 1122 2956 1747 
Q 2956 2369 2687 2733 
Q 2419 3097 1959 3097 
z
M 1959 3584 
Q 2709 3584 3137 3096 
Q 3566 2609 3566 1747 
Q 3566 888 3137 398 
Q 2709 -91 1959 -91 
Q 1206 -91 779 398 
Q 353 888 353 1747 
Q 353 2609 779 3096 
Q 1206 3584 1959 3584 
z
" id="DejaVuSans-6f" transform="scale(0.015625)"/>
      <path d="M 2834 3397 
L 2834 2853 
Q 2591 2978 2328 3040 
Q 2066 3103 1784 3103 
Q 1356 3103 1142 2972 
Q 928 2841 928 2578 
Q 928 2378 1081 2264 
Q 1234 2150 1697 2047 
L 1894 2003 
Q 2506 1872 2764 1633 
Q 3022 1394 3022 966 
Q 3022 478 2636 193 
Q 2250 -91 1575 -91 
Q 1294 -91 989 -36 
Q 684 19 347 128 
L 347 722 
Q 666 556 975 473 
Q 1284 391 1588 391 
Q 1994 391 2212 530 
Q 2431 669 2431 922 
Q 2431 1156 2273 1281 
Q 2116 1406 1581 1522 
L 1381 1569 
Q 847 1681 609 1914 
Q 372 2147 372 2553 
Q 372 3047 722 3315 
Q 1072 3584 1716 3584 
Q 2034 3584 2315 3537 
Q 2597 3491 2834 3397 
z
" id="DejaVuSans-73" transform="scale(0.015625)"/>
      <path id="DejaVuSans-20" transform="scale(0.015625)"/>
      <path d="M 603 4863 
L 1178 4863 
L 1178 0 
L 603 0 
L 603 4863 
z
" id="DejaVuSans-6c" transform="scale(0.015625)"/>
      <path d="M 2194 1759 
Q 1497 1759 1228 1600 
Q 959 1441 959 1056 
Q 959 750 1161 570 
Q 1363 391 1709 391 
Q 2188 391 2477 730 
Q 2766 1069 2766 1631 
L 2766 1759 
L 2194 1759 
z
M 3341 1997 
L 3341 0 
L 2766 0 
L 2766 531 
Q 2569 213 2275 61 
Q 1981 -91 1556 -91 
Q 1019 -91 701 211 
Q 384 513 384 1019 
Q 384 1609 779 1909 
Q 1175 2209 1959 2209 
L 2766 2209 
L 2766 2266 
Q 2766 2663 2505 2880 
Q 2244 3097 1772 3097 
Q 1472 3097 1187 3025 
Q 903 2953 641 2809 
L 641 3341 
Q 956 3463 1253 3523 
Q 1550 3584 1831 3584 
Q 2591 3584 2966 3190 
Q 3341 2797 3341 1997 
z
" id="DejaVuSans-61" transform="scale(0.015625)"/>
      <path d="M 3513 2113 
L 3513 0 
L 2938 0 
L 2938 2094 
Q 2938 2591 2744 2837 
Q 2550 3084 2163 3084 
Q 1697 3084 1428 2787 
Q 1159 2491 1159 1978 
L 1159 0 
L 581 0 
L 581 3500 
L 1159 3500 
L 1159 2956 
Q 1366 3272 1645 3428 
Q 1925 3584 2291 3584 
Q 2894 3584 3203 3211 
Q 3513 2838 3513 2113 
z
" id="DejaVuSans-6e" transform="scale(0.015625)"/>
      <path d="M 2906 2969 
L 2906 4863 
L 3481 4863 
L 3481 0 
L 2906 0 
L 2906 525 
Q 2725 213 2448 61 
Q 2172 -91 1784 -91 
Q 1150 -91 751 415 
Q 353 922 353 1747 
Q 353 2572 751 3078 
Q 1150 3584 1784 3584 
Q 2172 3584 2448 3432 
Q 2725 3281 2906 2969 
z
M 947 1747 
Q 947 1113 1208 752 
Q 1469 391 1925 391 
Q 2381 391 2643 752 
Q 2906 1113 2906 1747 
Q 2906 2381 2643 2742 
Q 2381 3103 1925 3103 
Q 1469 3103 1208 2742 
Q 947 2381 947 1747 
z
" id="DejaVuSans-64" transform="scale(0.015625)"/>
      <path d="M 3122 3366 
L 3122 2828 
Q 2878 2963 2633 3030 
Q 2388 3097 2138 3097 
Q 1578 3097 1268 2742 
Q 959 2388 959 1747 
Q 959 1106 1268 751 
Q 1578 397 2138 397 
Q 2388 397 2633 464 
Q 2878 531 3122 666 
L 3122 134 
Q 2881 22 2623 -34 
Q 2366 -91 2075 -91 
Q 1284 -91 818 406 
Q 353 903 353 1747 
Q 353 2603 823 3093 
Q 1294 3584 2113 3584 
Q 2378 3584 2631 3529 
Q 2884 3475 3122 3366 
z
" id="DejaVuSans-63" transform="scale(0.015625)"/>
      <path d="M 1159 525 
L 1159 -1331 
L 581 -1331 
L 581 3500 
L 1159 3500 
L 1159 2969 
Q 1341 3281 1617 3432 
Q 1894 3584 2278 3584 
Q 2916 3584 3314 3078 
Q 3713 2572 3713 1747 
Q 3713 922 3314 415 
Q 2916 -91 2278 -91 
Q 1894 -91 1617 61 
Q 1341 213 1159 525 
z
M 3116 1747 
Q 3116 2381 2855 2742 
Q 2594 3103 2138 3103 
Q 1681 3103 1420 2742 
Q 1159 2381 1159 1747 
Q 1159 1113 1420 752 
Q 1681 391 2138 391 
Q 2594 391 2855 752 
Q 3116 1113 3116 1747 
z
" id="DejaVuSans-70" transform="scale(0.015625)"/>
      <path d="M 3597 1894 
L 3597 1613 
L 953 1613 
Q 991 1019 1311 708 
Q 1631 397 2203 397 
Q 2534 397 2845 478 
Q 3156 559 3463 722 
L 3463 178 
Q 3153 47 2828 -22 
Q 2503 -91 2169 -91 
Q 1331 -91 842 396 
Q 353 884 353 1716 
Q 353 2575 817 3079 
Q 1281 3584 2069 3584 
Q 2775 3584 3186 3129 
Q 3597 2675 3597 1894 
z
M 3022 2063 
Q 3016 2534 2758 2815 
Q 2500 3097 2075 3097 
Q 1594 3097 1305 2825 
Q 1016 2553 972 2059 
L 3022 2063 
z
" id="DejaVuSans-65" transform="scale(0.015625)"/>
      <path d="M 1984 4856 
Q 1566 4138 1362 3434 
Q 1159 2731 1159 2009 
Q 1159 1288 1364 580 
Q 1569 -128 1984 -844 
L 1484 -844 
Q 1016 -109 783 600 
Q 550 1309 550 2009 
Q 550 2706 781 3412 
Q 1013 4119 1484 4856 
L 1984 4856 
z
" id="DejaVuSans-28" transform="scale(0.015625)"/>
      <path d="M 603 3500 
L 1178 3500 
L 1178 0 
L 603 0 
L 603 3500 
z
M 603 4863 
L 1178 4863 
L 1178 4134 
L 603 4134 
L 603 4863 
z
" id="DejaVuSans-69" transform="scale(0.015625)"/>
      <path d="M 3328 2828 
Q 3544 3216 3844 3400 
Q 4144 3584 4550 3584 
Q 5097 3584 5394 3201 
Q 5691 2819 5691 2113 
L 5691 0 
L 5113 0 
L 5113 2094 
Q 5113 2597 4934 2840 
Q 4756 3084 4391 3084 
Q 3944 3084 3684 2787 
Q 3425 2491 3425 1978 
L 3425 0 
L 2847 0 
L 2847 2094 
Q 2847 2600 2669 2842 
Q 2491 3084 2119 3084 
Q 1678 3084 1418 2786 
Q 1159 2488 1159 1978 
L 1159 0 
L 581 0 
L 581 3500 
L 1159 3500 
L 1159 2956 
Q 1356 3278 1631 3431 
Q 1906 3584 2284 3584 
Q 2666 3584 2933 3390 
Q 3200 3197 3328 2828 
z
" id="DejaVuSans-6d" transform="scale(0.015625)"/>
      <path d="M 2631 2963 
Q 2534 3019 2420 3045 
Q 2306 3072 2169 3072 
Q 1681 3072 1420 2755 
Q 1159 2438 1159 1844 
L 1159 0 
L 581 0 
L 581 3500 
L 1159 3500 
L 1159 2956 
Q 1341 3275 1631 3429 
Q 1922 3584 2338 3584 
Q 2397 3584 2469 3576 
Q 2541 3569 2628 3553 
L 2631 2963 
z
" id="DejaVuSans-72" transform="scale(0.015625)"/>
      <path d="M 513 4856 
L 1013 4856 
Q 1481 4119 1714 3412 
Q 1947 2706 1947 2009 
Q 1947 1309 1714 600 
Q 1481 -109 1013 -844 
L 513 -844 
Q 928 -128 1133 580 
Q 1338 1288 1338 2009 
Q 1338 2731 1133 3434 
Q 928 4138 513 4856 
z
" id="DejaVuSans-29" transform="scale(0.015625)"/>
     </defs>
     <use xlink:href="#DejaVuSans-4c"/>
     <use x="53.962891" xlink:href="#DejaVuSans-6f"/>
     <use x="115.144531" xlink:href="#DejaVuSans-73"/>
     <use x="167.244141" xlink:href="#DejaVuSans-73"/>
     <use x="219.34375" xlink:href="#DejaVuSans-20"/>
     <use x="251.130859" xlink:href="#DejaVuSans-6c"/>
     <use x="278.914062" xlink:href="#DejaVuSans-61"/>
     <use x="340.193359" xlink:href="#DejaVuSans-6e"/>
     <use x="403.572266" xlink:href="#DejaVuSans-64"/>
     <use x="467.048828" xlink:href="#DejaVuSans-73"/>
     <use x="519.148438" xlink:href="#DejaVuSans-63"/>
     <use x="574.128906" xlink:href="#DejaVuSans-61"/>
     <use x="635.408203" xlink:href="#DejaVuSans-70"/>
     <use x="698.884766" xlink:href="#DejaVuSans-65"/>
     <use x="760.408203" xlink:href="#DejaVuSans-20"/>
     <use x="792.195312" xlink:href="#DejaVuSans-28"/>
     <use x="831.208984" xlink:href="#DejaVuSans-73"/>
     <use x="883.308594" xlink:href="#DejaVuSans-69"/>
     <use x="911.091797" xlink:href="#DejaVuSans-6d"/>
     <use x="1008.503906" xlink:href="#DejaVuSans-70"/>
     <use x="1071.980469" xlink:href="#DejaVuSans-6c"/>
     <use x="1099.763672" xlink:href="#DejaVuSans-65"/>
     <use x="1161.287109" xlink:href="#DejaVuSans-72"/>
     <use x="1202.400391" xlink:href="#DejaVuSans-20"/>
     <use x="1234.1875" xlink:href="#DejaVuSans-6d"/>
     <use x="1331.599609" xlink:href="#DejaVuSans-6f"/>
     <use x="1392.78125" xlink:href="#DejaVuSans-64"/>
     <use x="1456.257812" xlink:href="#DejaVuSans-65"/>
     <use x="1517.78125" xlink:href="#DejaVuSans-6c"/>
     <use x="1545.564453" xlink:href="#DejaVuSans-29"/>
    </g>
   </g>
  </g>
  <g id="axes_2">
   <g id="patch_7">
    <path d="M 338.58 252 
L 349.452 252 
L 349.452 34.56 
L 338.58 34.56 
z
" style="fill:#ffffff;"/>
   </g>
   <g id="patch_8">
    <path clip-path="url(#pd8a3211eab)" d="M 338.58 252 
L 338.58 197.64 
L 338.58 88.92 
L 338.58 34.56 
L 349.452 34.56 
L 349.452 88.92 
L 349.452 197.64 
L 349.452 252 
L 349.452 252 
z
" style="fill:#ffffff;stroke:#ffffff;stroke-linejoin:miter;stroke-width:0.01;"/>
   </g>
   <g id="QuadMesh_1">
    <path clip-path="url(#pd8a3211eab)" d="M 338.58 252 
L 349.452 252 
L 349.452 197.64 
L 338.58 197.64 
L 338.58 252 
" style="fill:#4040ff;fill-opacity:0.3;"/>
    <path clip-path="url(#pd8a3211eab)" d="M 338.58 197.64 
L 349.452 197.64 
L 349.452 143.28 
L 338.58 143.28 
L 338.58 197.64 
" style="fill:#c0c0ff;fill-opacity:0.3;"/>
    <path clip-path="url(#pd8a3211eab)" d="M 338.58 143.28 
L 349.452 143.28 
L 349.452 88.92 
L 338.58 88.92 
L 338.58 143.28 
" style="fill:#ffbebe;fill-opacity:0.3;"/>
    <path clip-path="url(#pd8a3211eab)" d="M 338.58 88.92 
L 349.452 88.92 
L 349.452 34.56 
L 338.58 34.56 
L 338.58 88.92 
" style="fill:#ff3e3e;fill-opacity:0.3;"/>
   </g>
   <g id="matplotlib.axis_3"/>
   <g id="matplotlib.axis_4"/>
   <g id="LineCollection_10"/>
   <g id="patch_9">
    <path d="M 338.58 252 
L 338.58 197.64 
L 338.58 88.92 
L 338.58 34.56 
L 349.452 34.56 
L 349.452 88.92 
L 349.452 197.64 
L 349.452 252 
z
" style="fill:none;stroke:#000000;stroke-linecap:square;stroke-linejoin:miter;stroke-width:0.8;"/>
   </g>
  </g>
 </g>
 <defs>
  <clipPath id="pabb50fc18a">
   <rect height="217.44" width="267.84" x="54" y="34.56"/>
  </clipPath>
  <clipPath id="pd8a3211eab">
   <rect height="217.44" width="10.872" x="338.58" y="34.56"/>
  </clipPath>
 </defs>
</svg>
