<?xml version="1.0" encoding="utf-8" standalone="no"?>
<!DOCTYPE svg PUBLIC "-//W3C//DTD SVG 1.1//EN"
  "http://www.w3.org/Graphics/SVG/1.1/DTD/svg11.dtd">
<svg height="288pt" version="1.1" viewBox="0 0 432 288" width="432pt" xmlns="http://www.w3.org/2000/svg" xmlns:xlink="http://www.w3.org/1999/xlink">
 <metadata>
  <rdf:RDF xmlns:cc="http://creativecommons.org/ns#" xmlns:dc="http://purl.org/dc/elements/1.1/" xmlns:rdf="http://www.w3.org/1999/02/22-rdf-syntax-ns#">
   <cc:Work>
    <dc:type rdf:resource="http://purl.org/dc/dcmitype/StillImage"/>
    <dc:date>2021-04-13T13:23:33.359578</dc:date>
    <dc:format>image/svg+xml</dc:format>
    <dc:creator>
     <cc:Agent>
      <dc:title>Matplotlib v3.4.1, https://matplotlib.org/</dc:title>
     </cc:Agent>
    </dc:creator>
   </cc:Work>
  </rdf:RDF>
 </metadata>
 <defs>
  <style type="text/css">*{stroke-linecap:butt;stroke-linejoin:round;}</style>
 </defs>
 <g id="figure_1">
  <g id="patch_1">
   <path d="M 0 288 
L 432 288 
L 432 0 
L 0 0 
z
" style="fill:none;"/>
  </g>
  <g id="axes_1">
   <g id="patch_2">
    <path d="M 54 252 
L 321.84 252 
L 321.84 34.56 
L 54 34.56 
z
" style="fill:#ffffff;"/>
   </g>
   <g id="PathCollection_1">
    <path clip-path="url(#pad7ba4f148)" d="M 145.0656 137.189658 
L 147.744 138.303702 
L 150.4224 138.841483 
L 153.1008 138.947846 
L 155.7792 138.718923 
L 158.4576 138.218678 
L 161.136 137.489011 
L 162.84912 136.884706 
L 163.8144 136.546181 
L 166.4928 135.404399 
L 167.811124 134.752941 
L 169.1712 134.077738 
L 171.776006 132.621176 
L 171.8496 132.579462 
L 174.528 130.888792 
L 175.109392 130.489412 
L 177.2064 129.013283 
L 178.072961 128.357647 
L 179.8848 126.940124 
L 180.743494 126.225882 
L 182.5632 124.646208 
L 183.167441 124.094118 
L 185.2416 122.097374 
L 185.376095 121.962353 
L 187.368563 119.830588 
L 187.92 119.198067 
L 189.180887 117.698824 
L 190.5984 115.874124 
L 190.830411 115.567059 
L 192.292234 113.435294 
L 193.2768 111.84665 
L 193.606145 111.303529 
L 194.74088 109.171765 
L 195.730004 107.04 
L 195.9552 106.45206 
L 196.536783 104.908235 
L 197.164012 102.776471 
L 197.604751 100.644706 
L 197.831734 98.512941 
L 197.804154 96.381176 
L 197.463172 94.249412 
L 196.724894 92.117647 
L 195.9552 90.760188 
L 195.383063 89.985882 
L 193.2768 88.06031 
L 192.940561 87.854118 
L 190.5984 86.753859 
L 187.92 86.085876 
L 185.2416 85.869675 
L 182.5632 86.000227 
L 179.8848 86.407517 
L 177.2064 87.045404 
L 174.629328 87.854118 
L 174.528 87.886072 
L 171.8496 88.946181 
L 169.584369 89.985882 
L 169.1712 90.178028 
L 166.4928 91.607304 
L 165.635311 92.117647 
L 163.8144 93.224848 
L 162.278763 94.249412 
L 161.136 95.033759 
L 159.325635 96.381176 
L 158.4576 97.050465 
L 156.689206 98.512941 
L 155.7792 99.298138 
L 154.309238 100.644706 
L 153.1008 101.808045 
L 152.144057 102.776471 
L 150.4224 104.621362 
L 150.165437 104.908235 
L 148.384109 107.04 
L 147.744 107.865478 
L 146.764181 109.171765 
L 145.294398 111.303529 
L 145.0656 111.672712 
L 144.000804 113.435294 
L 142.850739 115.567059 
L 142.3872 116.561306 
L 141.866254 117.698824 
L 141.057652 119.830588 
L 140.416773 121.962353 
L 139.963921 124.094118 
L 139.729509 126.225882 
L 139.757331 128.357647 
L 140.109351 130.489412 
L 140.872776 132.621176 
L 142.170588 134.752941 
L 142.3872 135.008645 
L 144.589217 136.884706 
z
" style="fill:#3e3eff;fill-opacity:0.3;"/>
   </g>
   <g id="PathCollection_2">
    <path clip-path="url(#pad7ba4f148)" d="M 262.9152 230.693969 
L 265.5936 230.696029 
L 265.910384 230.682353 
L 268.272 230.574395 
L 270.9504 230.323477 
L 273.6288 229.936096 
L 276.3072 229.400249 
L 278.9856 228.699147 
L 279.455366 228.550588 
L 281.664 227.6925 
L 284.326259 226.418824 
L 284.3424 226.407697 
L 287.017285 224.287059 
L 287.0208 224.281569 
L 288.282192 222.155294 
L 288.364869 220.023529 
L 287.275061 217.891765 
L 287.0208 217.649733 
L 284.807826 215.76 
L 284.3424 215.494703 
L 281.664 214.170894 
L 280.337381 213.628235 
L 278.9856 213.185821 
L 276.3072 212.473336 
L 273.6288 211.927981 
L 270.9504 211.532543 
L 270.58183 211.496471 
L 268.272 211.287605 
L 265.5936 211.166429 
L 262.9152 211.162554 
L 260.2368 211.274788 
L 257.65514 211.496471 
L 257.5584 211.50548 
L 254.88 211.880454 
L 252.2016 212.394337 
L 249.5232 213.059114 
L 247.655214 213.628235 
L 246.8448 213.938496 
L 244.1664 215.144478 
L 242.984066 215.76 
L 241.488 216.945592 
L 240.4033 217.891765 
L 239.306492 220.023529 
L 239.486058 222.155294 
L 240.931766 224.287059 
L 241.488 224.725408 
L 243.840999 226.418824 
L 244.1664 226.581905 
L 246.8448 227.776414 
L 248.935055 228.550588 
L 249.5232 228.728477 
L 252.2016 229.406915 
L 254.88 229.932179 
L 257.5584 230.31643 
L 260.2368 230.568631 
L 262.653646 230.682353 
z
" style="fill:#bebeff;fill-opacity:0.3;"/>
    <path clip-path="url(#pad7ba4f148)" d="M 163.8144 224.559593 
L 166.4928 224.897642 
L 169.1712 224.999308 
L 171.8496 224.869479 
L 174.528 224.507591 
L 175.528465 224.287059 
L 177.2064 223.8958 
L 179.8848 223.019692 
L 181.92044 222.155294 
L 182.5632 221.852534 
L 185.2416 220.314535 
L 185.677368 220.023529 
L 187.92 218.260144 
L 188.3355 217.891765 
L 190.275526 215.76 
L 190.5984 215.294915 
L 191.666849 213.628235 
L 192.60899 211.496471 
L 193.177363 209.364706 
L 193.2768 208.522852 
L 193.423859 207.232941 
L 193.385389 205.101176 
L 193.2768 204.338095 
L 193.08177 202.969412 
L 192.516244 200.837647 
L 191.682923 198.705882 
L 190.5984 196.636215 
L 190.563741 196.574118 
L 189.082375 194.442353 
L 187.92 193.068267 
L 187.207732 192.310588 
L 185.2416 190.513277 
L 184.821238 190.178824 
L 182.5632 188.566827 
L 181.697841 188.047059 
L 179.8848 187.028749 
L 177.447441 185.915294 
L 177.2064 185.808035 
L 174.528 184.85708 
L 171.8496 184.151398 
L 169.752817 183.783529 
L 169.1712 183.676677 
L 166.4928 183.429678 
L 163.8144 183.434184 
L 161.136 183.718394 
L 160.83173 183.783529 
L 158.4576 184.304316 
L 155.7792 185.265436 
L 154.50696 185.915294 
L 153.1008 186.690026 
L 151.23694 188.047059 
L 150.4224 188.71576 
L 148.965826 190.178824 
L 147.744 191.6356 
L 147.25485 192.310588 
L 145.967649 194.442353 
L 145.0656 196.397253 
L 144.990851 196.574118 
L 144.310269 198.705882 
L 143.881567 200.837647 
L 143.695446 202.969412 
L 143.7494 205.101176 
L 144.04738 207.232941 
L 144.599842 209.364706 
L 145.0656 210.57896 
L 145.433638 211.496471 
L 146.584318 213.628235 
L 147.744 215.301463 
L 148.091248 215.76 
L 150.062207 217.891765 
L 150.4224 218.222762 
L 152.66822 220.023529 
L 153.1008 220.326771 
L 155.7792 221.907086 
L 156.301102 222.155294 
L 158.4576 223.091023 
L 161.136 223.965253 
L 162.552217 224.287059 
z
" style="fill:#bebeff;fill-opacity:0.3;"/>
    <path clip-path="url(#pad7ba4f148)" d="M 137.0304 154.039078 
L 139.7088 154.735025 
L 142.3872 155.123752 
L 145.0656 155.240751 
L 147.744 155.108882 
L 150.4224 154.740443 
L 153.1008 154.138509 
L 153.741668 153.938824 
L 155.7792 153.357126 
L 158.4576 152.383396 
L 159.761564 151.807059 
L 161.136 151.243846 
L 163.8144 149.956458 
L 164.327345 149.675294 
L 166.4928 148.559764 
L 168.24974 147.543529 
L 169.1712 147.035618 
L 171.841536 145.411765 
L 171.8496 145.407031 
L 174.528 143.708464 
L 175.158353 143.28 
L 177.2064 141.916503 
L 178.296325 141.148235 
L 179.8848 140.038076 
L 181.281464 139.016471 
L 182.5632 138.075788 
L 184.131015 136.884706 
L 185.2416 136.028022 
L 186.855325 134.752941 
L 187.92 133.888229 
L 189.458076 132.621176 
L 190.5984 131.643 
L 191.936122 130.489412 
L 193.2768 129.268652 
L 194.2796 128.357647 
L 195.9552 126.725918 
L 196.472911 126.225882 
L 198.506975 124.094118 
L 198.6336 123.951557 
L 200.411584 121.962353 
L 201.312 120.846521 
L 202.139129 119.830588 
L 203.700773 117.698824 
L 203.9904 117.268785 
L 205.145872 115.567059 
L 206.43351 113.435294 
L 206.6688 113.012531 
L 207.630236 111.303529 
L 208.704863 109.171765 
L 209.3472 107.763435 
L 209.68262 107.04 
L 210.576591 104.908235 
L 211.367619 102.776471 
L 212.0256 100.755058 
L 212.062474 100.644706 
L 212.670219 98.512941 
L 213.16626 96.381176 
L 213.54421 94.249412 
L 213.793308 92.117647 
L 213.898215 89.985882 
L 213.838375 87.854118 
L 213.586918 85.722353 
L 213.109054 83.590588 
L 212.359813 81.458824 
L 212.0256 80.763338 
L 211.238422 79.327059 
L 209.644215 77.195294 
L 209.3472 76.877175 
L 207.259061 75.063529 
L 206.6688 74.644499 
L 203.9904 73.194186 
L 203.310296 72.931765 
L 201.312 72.252725 
L 198.6336 71.674257 
L 195.9552 71.381976 
L 193.2768 71.327953 
L 190.5984 71.477464 
L 187.92 71.806018 
L 185.2416 72.297268 
L 182.604659 72.931765 
L 182.5632 72.94142 
L 179.8848 73.716734 
L 177.2064 74.629032 
L 176.09854 75.063529 
L 174.528 75.666575 
L 171.8496 76.828473 
L 171.088507 77.195294 
L 169.1712 78.10805 
L 166.851277 79.327059 
L 166.4928 79.51426 
L 163.8144 81.034048 
L 163.120467 81.458824 
L 161.136 82.676819 
L 159.747804 83.590588 
L 158.4576 84.447377 
L 156.652561 85.722353 
L 155.7792 86.348564 
L 153.789237 87.854118 
L 153.1008 88.386128 
L 151.123585 89.985882 
L 150.4224 90.568981 
L 148.630129 92.117647 
L 147.744 92.909565 
L 146.290366 94.249412 
L 145.0656 95.424352 
L 144.09147 96.381176 
L 142.3872 98.134511 
L 142.025362 98.512941 
L 140.079707 100.644706 
L 139.7088 101.072431 
L 138.244055 102.776471 
L 137.0304 104.280978 
L 136.52529 104.908235 
L 134.91148 107.04 
L 134.352 107.830956 
L 133.397974 109.171765 
L 131.995361 111.303529 
L 131.6736 111.831771 
L 130.683552 113.435294 
L 129.482664 115.567059 
L 128.9952 116.519066 
L 128.378199 117.698824 
L 127.378445 119.830588 
L 126.49215 121.962353 
L 126.3168 122.448735 
L 125.705945 124.094118 
L 125.037538 126.225882 
L 124.492587 128.357647 
L 124.075899 130.489412 
L 123.795931 132.621176 
L 123.665242 134.752941 
L 123.701079 136.884706 
L 123.926069 139.016471 
L 124.368988 141.148235 
L 125.065486 143.28 
L 126.058573 145.411765 
L 126.3168 145.849237 
L 127.474628 147.543529 
L 128.9952 149.286278 
L 129.40813 149.675294 
L 131.6736 151.477778 
L 132.208906 151.807059 
L 134.352 152.990605 
L 136.761841 153.938824 
z
M 144.589217 136.884706 
L 142.3872 135.008645 
L 142.170588 134.752941 
L 140.872776 132.621176 
L 140.109351 130.489412 
L 139.757331 128.357647 
L 139.729509 126.225882 
L 139.963921 124.094118 
L 140.416773 121.962353 
L 141.057652 119.830588 
L 141.866254 117.698824 
L 142.3872 116.561306 
L 142.850739 115.567059 
L 144.000804 113.435294 
L 145.0656 111.672712 
L 145.294398 111.303529 
L 146.764181 109.171765 
L 147.744 107.865478 
L 148.384109 107.04 
L 150.165437 104.908235 
L 150.4224 104.621362 
L 152.144057 102.776471 
L 153.1008 101.808045 
L 154.309238 100.644706 
L 155.7792 99.298138 
L 156.689206 98.512941 
L 158.4576 97.050465 
L 159.325635 96.381176 
L 161.136 95.033759 
L 162.278763 94.249412 
L 163.8144 93.224848 
L 165.635311 92.117647 
L 166.4928 91.607304 
L 169.1712 90.178028 
L 169.584369 89.985882 
L 171.8496 88.946181 
L 174.528 87.886072 
L 174.629328 87.854118 
L 177.2064 87.045404 
L 179.8848 86.407517 
L 182.5632 86.000227 
L 185.2416 85.869675 
L 187.92 86.085876 
L 190.5984 86.753859 
L 192.940561 87.854118 
L 193.2768 88.06031 
L 195.383063 89.985882 
L 195.9552 90.760188 
L 196.724894 92.117647 
L 197.463172 94.249412 
L 197.804154 96.381176 
L 197.831734 98.512941 
L 197.604751 100.644706 
L 197.164012 102.776471 
L 196.536783 104.908235 
L 195.9552 106.45206 
L 195.730004 107.04 
L 194.74088 109.171765 
L 193.606145 111.303529 
L 193.2768 111.84665 
L 192.292234 113.435294 
L 190.830411 115.567059 
L 190.5984 115.874124 
L 189.180887 117.698824 
L 187.92 119.198067 
L 187.368563 119.830588 
L 185.376095 121.962353 
L 185.2416 122.097374 
L 183.167441 124.094118 
L 182.5632 124.646208 
L 180.743494 126.225882 
L 179.8848 126.940124 
L 178.072961 128.357647 
L 177.2064 129.013283 
L 175.109392 130.489412 
L 174.528 130.888792 
L 171.8496 132.579462 
L 171.776006 132.621176 
L 169.1712 134.077738 
L 167.811124 134.752941 
L 166.4928 135.404399 
L 163.8144 136.546181 
L 162.84912 136.884706 
L 161.136 137.489011 
L 158.4576 138.218678 
L 155.7792 138.718923 
L 153.1008 138.947846 
L 150.4224 138.841483 
L 147.744 138.303702 
L 145.0656 137.189658 
z
" style="fill:#bebeff;fill-opacity:0.3;"/>
    <path clip-path="url(#pad7ba4f148)" d="M 238.8096 154.997858 
L 241.488 155.690667 
L 244.1664 155.998437 
L 246.8448 155.93197 
L 249.5232 155.484051 
L 252.2016 154.628107 
L 253.644892 153.938824 
L 254.88 153.240512 
L 256.778044 151.807059 
L 257.5584 151.047289 
L 258.717548 149.675294 
L 259.969727 147.543529 
L 260.2368 146.777659 
L 260.665661 145.411765 
L 260.896091 143.28 
L 260.694704 141.148235 
L 260.2368 139.614888 
L 260.039329 139.016471 
L 258.843501 136.884706 
L 257.5584 135.299121 
L 257.027348 134.752941 
L 254.88 133.036391 
L 254.205507 132.621176 
L 252.2016 131.574093 
L 249.5232 130.595545 
L 249.047585 130.489412 
L 246.8448 130.032005 
L 244.1664 129.808699 
L 241.488 129.910882 
L 238.8096 130.351756 
L 238.329056 130.489412 
L 236.1312 131.214259 
L 233.4528 132.573822 
L 233.380328 132.621176 
L 230.857767 134.752941 
L 230.7744 134.852309 
L 229.340047 136.884706 
L 228.454161 139.016471 
L 228.096 141.003095 
L 228.071633 141.148235 
L 228.096 142.033376 
L 228.129997 143.28 
L 228.610741 145.411765 
L 229.52546 147.543529 
L 230.7744 149.464884 
L 230.927619 149.675294 
L 233.027578 151.807059 
L 233.4528 152.149669 
L 236.1312 153.886121 
L 236.240742 153.938824 
z
" style="fill:#bebeff;fill-opacity:0.3;"/>
   </g>
   <g id="PathCollection_3">
    <path clip-path="url(#pad7ba4f148)" d="M 161.136 237.22306 
L 163.8144 237.583366 
L 166.4928 237.790105 
L 169.1712 237.850044 
L 171.8496 237.76608 
L 174.528 237.537627 
L 177.2064 237.161002 
L 177.637984 237.077647 
L 179.8848 236.661785 
L 182.5632 236.018002 
L 185.2416 235.216274 
L 186.020048 234.945882 
L 187.92 234.291417 
L 190.5984 233.228949 
L 191.555219 232.814118 
L 193.2768 232.055939 
L 195.9552 230.787094 
L 196.176096 230.682353 
L 198.6336 229.470566 
L 200.532341 228.550588 
L 201.312 228.144725 
L 203.9904 226.879308 
L 205.160219 226.418824 
L 206.6688 225.74434 
L 209.3472 224.873068 
L 212.0256 224.43112 
L 214.704 224.512173 
L 217.3824 225.141045 
L 220.0608 226.262713 
L 220.327863 226.418824 
L 222.7392 227.485209 
L 224.850425 228.550588 
L 225.4176 228.783542 
L 228.096 229.975513 
L 229.696021 230.682353 
L 230.7744 231.096797 
L 233.4528 232.09938 
L 235.549244 232.814118 
L 236.1312 233.000299 
L 238.8096 233.807842 
L 241.488 234.50339 
L 243.457176 234.945882 
L 244.1664 235.108496 
L 246.8448 235.651242 
L 249.5232 236.097508 
L 252.2016 236.455913 
L 254.88 236.733859 
L 257.5584 236.937298 
L 260.2368 237.070622 
L 260.519387 237.077647 
L 262.9152 237.146299 
L 265.5936 237.146085 
L 267.949163 237.077647 
L 268.272 237.069515 
L 270.9504 236.933514 
L 273.6288 236.724114 
L 276.3072 236.434782 
L 278.9856 236.056422 
L 281.664 235.576887 
L 284.3424 234.980319 
L 284.477695 234.945882 
L 287.0208 234.309267 
L 289.6992 233.49239 
L 291.578297 232.814118 
L 292.3776 232.505296 
L 295.056 231.325711 
L 296.330275 230.682353 
L 297.7344 229.846402 
L 299.679994 228.550588 
L 300.4128 227.908411 
L 302.015678 226.418824 
L 303.0912 224.876442 
L 303.499691 224.287059 
L 304.262143 222.155294 
L 304.311902 220.023529 
L 303.654706 217.891765 
L 303.0912 217.020779 
L 302.274946 215.76 
L 300.4128 213.949728 
L 300.063989 213.628235 
L 297.7344 212.024287 
L 296.881459 211.496471 
L 295.056 210.550376 
L 292.3776 209.36838 
L 292.368388 209.364706 
L 289.6992 208.379949 
L 287.0208 207.569174 
L 285.71511 207.232941 
L 284.3424 206.876559 
L 281.664 206.288633 
L 278.9856 205.815307 
L 276.3072 205.440855 
L 273.6288 205.153144 
L 272.980669 205.101176 
L 270.9504 204.918264 
L 268.272 204.757017 
L 265.5936 204.672031 
L 262.9152 204.659825 
L 260.2368 204.718628 
L 257.5584 204.848141 
L 254.88 205.049291 
L 254.357368 205.101176 
L 252.2016 205.293801 
L 249.5232 205.597109 
L 246.8448 205.968688 
L 244.1664 206.410613 
L 241.488 206.923746 
L 240.007216 207.232941 
L 238.8096 207.484699 
L 236.1312 208.081031 
L 233.4528 208.727067 
L 230.907524 209.364706 
L 230.7744 209.402136 
L 228.096 210.0692 
L 225.4176 210.679383 
L 222.7392 211.136702 
L 220.0608 211.274606 
L 217.3824 210.790097 
L 215.056378 209.364706 
L 214.704 209.109183 
L 213.146084 207.232941 
L 212.0256 205.611616 
L 211.761283 205.101176 
L 210.708606 202.969412 
L 209.721857 200.837647 
L 209.3472 200.028122 
L 208.800821 198.705882 
L 207.863956 196.574118 
L 206.827764 194.442353 
L 206.6688 194.144518 
L 205.72064 192.310588 
L 204.445832 190.178824 
L 203.9904 189.499347 
L 203.009119 188.047059 
L 201.34878 185.915294 
L 201.312 185.871565 
L 199.487651 183.783529 
L 198.6336 182.896245 
L 197.367168 181.651765 
L 195.9552 180.349054 
L 194.992299 179.52 
L 193.2768 178.080539 
L 192.38578 177.388235 
L 190.5984 175.976765 
L 189.613154 175.256471 
L 187.92 173.934226 
L 186.810249 173.124706 
L 185.2416 171.821943 
L 184.192247 170.992941 
L 182.5632 169.386665 
L 182.016847 168.861176 
L 180.495825 166.729412 
L 179.8848 165.054491 
L 179.722828 164.597647 
L 179.678539 162.465882 
L 179.8848 161.746988 
L 180.276239 160.334118 
L 181.408275 158.202353 
L 182.5632 156.624566 
L 182.964633 156.070588 
L 184.881558 153.938824 
L 185.2416 153.593357 
L 187.122737 151.807059 
L 187.92 151.11851 
L 189.652432 149.675294 
L 190.5984 148.935008 
L 192.499251 147.543529 
L 193.2768 146.993211 
L 195.758735 145.411765 
L 195.9552 145.287234 
L 198.6336 143.886117 
L 200.19148 143.28 
L 201.312 142.824769 
L 203.9904 142.271071 
L 206.6688 142.477085 
L 208.290477 143.28 
L 209.3472 143.861623 
L 210.834504 145.411765 
L 212.0256 146.660725 
L 212.626283 147.543529 
L 214.223869 149.675294 
L 214.704 150.248477 
L 215.813216 151.807059 
L 217.3824 153.668675 
L 217.593362 153.938824 
L 219.53814 156.070588 
L 220.0608 156.564471 
L 221.824849 158.202353 
L 222.7392 158.940502 
L 224.612452 160.334118 
L 225.4176 160.871955 
L 228.096 162.423504 
L 228.180935 162.465882 
L 230.7744 163.690624 
L 233.282738 164.597647 
L 233.4528 164.65835 
L 236.1312 165.425262 
L 238.8096 165.956035 
L 241.488 166.278202 
L 244.1664 166.40714 
L 246.8448 166.347884 
L 249.5232 166.095746 
L 252.2016 165.635943 
L 254.88 164.942278 
L 255.878696 164.597647 
L 257.5584 164.017827 
L 260.2368 162.808316 
L 260.862501 162.465882 
L 262.9152 161.267215 
L 264.251682 160.334118 
L 265.5936 159.284188 
L 266.814148 158.202353 
L 268.272 156.675538 
L 268.807923 156.070588 
L 270.371961 153.938824 
L 270.9504 152.930526 
L 271.587835 151.807059 
L 272.500164 149.675294 
L 273.119971 147.543529 
L 273.480595 145.411765 
L 273.601158 143.28 
L 273.488278 141.148235 
L 273.136716 139.016471 
L 272.529067 136.884706 
L 271.634474 134.752941 
L 270.9504 133.526192 
L 270.441906 132.621176 
L 268.921827 130.489412 
L 268.272 129.736605 
L 266.999114 128.357647 
L 265.5936 127.064616 
L 264.574953 126.225882 
L 262.9152 125.000255 
L 261.4841 124.094118 
L 260.2368 123.348484 
L 257.5584 122.022465 
L 257.412815 121.962353 
L 254.88 120.903523 
L 252.2016 120.021606 
L 251.475344 119.830588 
L 249.5232 119.271213 
L 246.8448 118.662089 
L 244.1664 118.176451 
L 241.488 117.775864 
L 240.879614 117.698824 
L 238.8096 117.367543 
L 236.1312 116.918864 
L 233.4528 116.325656 
L 231.26568 115.567059 
L 230.7744 115.289875 
L 228.74279 113.435294 
L 228.096 112.040933 
L 227.854558 111.303529 
L 227.635446 109.171765 
L 227.733576 107.04 
L 228.019304 104.908235 
L 228.096 104.517547 
L 228.449905 102.776471 
L 228.953378 100.644706 
L 229.484329 98.512941 
L 230.015883 96.381176 
L 230.527686 94.249412 
L 230.7744 93.149388 
L 231.022314 92.117647 
L 231.480667 89.985882 
L 231.870204 87.854118 
L 232.180883 85.722353 
L 232.403012 83.590588 
L 232.526448 81.458824 
L 232.539826 79.327059 
L 232.42978 77.195294 
L 232.180138 75.063529 
L 231.771017 72.931765 
L 231.177781 70.8 
L 230.7744 69.702749 
L 230.376725 68.668235 
L 229.324638 66.536471 
L 228.096 64.603413 
L 227.957442 64.404706 
L 226.177955 62.272941 
L 225.4176 61.513643 
L 223.822595 60.141176 
L 222.7392 59.335256 
L 220.565601 58.009412 
L 220.0608 57.732882 
L 217.3824 56.542973 
L 215.367439 55.877647 
L 214.704 55.670977 
L 212.0256 55.049168 
L 209.3472 54.645769 
L 206.6688 54.429204 
L 203.9904 54.375605 
L 201.312 54.467368 
L 198.6336 54.692101 
L 195.9552 55.04187 
L 193.2768 55.512678 
L 191.622398 55.877647 
L 190.5984 56.088999 
L 187.92 56.752126 
L 185.2416 57.529392 
L 183.797432 58.009412 
L 182.5632 58.397933 
L 179.8848 59.348515 
L 177.898674 60.141176 
L 177.2064 60.405213 
L 174.528 61.528767 
L 172.922595 62.272941 
L 171.8496 62.752591 
L 169.1712 64.060238 
L 168.516076 64.404706 
L 166.4928 65.439968 
L 164.523294 66.536471 
L 163.8144 66.9228 
L 161.136 68.488481 
L 160.844757 68.668235 
L 158.4576 70.123567 
L 157.415827 70.8 
L 155.7792 71.855876 
L 154.20246 72.931765 
L 153.1008 73.683084 
L 151.173792 75.063529 
L 150.4224 75.6047 
L 148.305588 77.195294 
L 147.744 77.622064 
L 145.57902 79.327059 
L 145.0656 79.738408 
L 142.97973 81.458824 
L 142.3872 81.958975 
L 140.497132 83.590588 
L 139.7088 84.291194 
L 138.123879 85.722353 
L 137.0304 86.744941 
L 135.855485 87.854118 
L 134.352 89.332866 
L 133.690066 89.985882 
L 131.6736 92.07084 
L 131.628179 92.117647 
L 129.619048 94.249412 
L 128.9952 94.948389 
L 127.702284 96.381176 
L 126.3168 98.01492 
L 125.887075 98.512941 
L 124.135906 100.644706 
L 123.6384 101.285462 
L 122.45147 102.776471 
L 120.96 104.801335 
L 120.87876 104.908235 
L 119.329301 107.04 
L 118.2816 108.608813 
L 117.890737 109.171765 
L 116.499114 111.303529 
L 115.6032 112.7973 
L 115.202337 113.435294 
L 113.952956 115.567059 
L 112.9248 117.498231 
L 112.812066 117.698824 
L 111.695713 119.830588 
L 110.690664 121.962353 
L 110.2464 122.99778 
L 109.745397 124.094118 
L 108.867188 126.225882 
L 108.088636 128.357647 
L 107.568 129.974143 
L 107.389681 130.489412 
L 106.747857 132.621176 
L 106.204913 134.752941 
L 105.758924 136.884706 
L 105.409989 139.016471 
L 105.160247 141.148235 
L 105.013927 143.28 
L 104.977421 145.411765 
L 105.059374 147.543529 
L 105.270743 149.675294 
L 105.624796 151.807059 
L 106.136975 153.938824 
L 106.824526 156.070588 
L 107.568 157.885203 
L 107.703599 158.202353 
L 108.783512 160.334118 
L 110.094365 162.465882 
L 110.2464 162.687789 
L 111.648575 164.597647 
L 112.9248 166.145491 
L 113.444912 166.729412 
L 115.456091 168.861176 
L 115.6032 169.014315 
L 117.614643 170.992941 
L 118.2816 171.666157 
L 119.770981 173.124706 
L 120.96 174.405764 
L 121.742656 175.256471 
L 123.375742 177.388235 
L 123.6384 177.819868 
L 124.591664 179.52 
L 125.419471 181.651765 
L 125.936079 183.783529 
L 126.220978 185.915294 
L 126.3168 187.495531 
L 126.345859 188.047059 
L 126.374975 190.178824 
L 126.36219 192.310588 
L 126.344246 194.442353 
L 126.349253 196.574118 
L 126.399198 198.705882 
L 126.512037 200.837647 
L 126.703389 202.969412 
L 126.987919 205.101176 
L 127.38049 207.232941 
L 127.89719 209.364706 
L 128.556317 211.496471 
L 128.9952 212.64873 
L 129.350362 213.628235 
L 130.286547 215.76 
L 131.427145 217.891765 
L 131.6736 218.290759 
L 132.737537 220.023529 
L 134.299641 222.155294 
L 134.352 222.219264 
L 136.093754 224.287059 
L 137.0304 225.258361 
L 138.212399 226.418824 
L 139.7088 227.734551 
L 140.716152 228.550588 
L 142.3872 229.793617 
L 143.72185 230.682353 
L 145.0656 231.524587 
L 147.435908 232.814118 
L 147.744 232.975773 
L 150.4224 234.209539 
L 152.364493 234.945882 
L 153.1008 235.224263 
L 155.7792 236.068678 
L 158.4576 236.724766 
L 160.376279 237.077647 
z
M 262.653646 230.682353 
L 260.2368 230.568631 
L 257.5584 230.31643 
L 254.88 229.932179 
L 252.2016 229.406915 
L 249.5232 228.728477 
L 248.935055 228.550588 
L 246.8448 227.776414 
L 244.1664 226.581905 
L 243.840999 226.418824 
L 241.488 224.725408 
L 240.931766 224.287059 
L 239.486058 222.155294 
L 239.306492 220.023529 
L 240.4033 217.891765 
L 241.488 216.945592 
L 242.984066 215.76 
L 244.1664 215.144478 
L 246.8448 213.938496 
L 247.655214 213.628235 
L 249.5232 213.059114 
L 252.2016 212.394337 
L 254.88 211.880454 
L 257.5584 211.50548 
L 257.65514 211.496471 
L 260.2368 211.274788 
L 262.9152 211.162554 
L 265.5936 211.166429 
L 268.272 211.287605 
L 270.58183 211.496471 
L 270.9504 211.532543 
L 273.6288 211.927981 
L 276.3072 212.473336 
L 278.9856 213.185821 
L 280.337381 213.628235 
L 281.664 214.170894 
L 284.3424 215.494703 
L 284.807826 215.76 
L 287.0208 217.649733 
L 287.275061 217.891765 
L 288.364869 220.023529 
L 288.282192 222.155294 
L 287.0208 224.281569 
L 287.017285 224.287059 
L 284.3424 226.407697 
L 284.326259 226.418824 
L 281.664 227.6925 
L 279.455366 228.550588 
L 278.9856 228.699147 
L 276.3072 229.400249 
L 273.6288 229.936096 
L 270.9504 230.323477 
L 268.272 230.574395 
L 265.910384 230.682353 
L 265.5936 230.696029 
L 262.9152 230.693969 
z
M 162.552217 224.287059 
L 161.136 223.965253 
L 158.4576 223.091023 
L 156.301102 222.155294 
L 155.7792 221.907086 
L 153.1008 220.326771 
L 152.66822 220.023529 
L 150.4224 218.222762 
L 150.062207 217.891765 
L 148.091248 215.76 
L 147.744 215.301463 
L 146.584318 213.628235 
L 145.433638 211.496471 
L 145.0656 210.57896 
L 144.599842 209.364706 
L 144.04738 207.232941 
L 143.7494 205.101176 
L 143.695446 202.969412 
L 143.881567 200.837647 
L 144.310269 198.705882 
L 144.990851 196.574118 
L 145.0656 196.397253 
L 145.967649 194.442353 
L 147.25485 192.310588 
L 147.744 191.6356 
L 148.965826 190.178824 
L 150.4224 188.71576 
L 151.23694 188.047059 
L 153.1008 186.690026 
L 154.50696 185.915294 
L 155.7792 185.265436 
L 158.4576 184.304316 
L 160.83173 183.783529 
L 161.136 183.718394 
L 163.8144 183.434184 
L 166.4928 183.429678 
L 169.1712 183.676677 
L 169.752817 183.783529 
L 171.8496 184.151398 
L 174.528 184.85708 
L 177.2064 185.808035 
L 177.447441 185.915294 
L 179.8848 187.028749 
L 181.697841 188.047059 
L 182.5632 188.566827 
L 184.821238 190.178824 
L 185.2416 190.513277 
L 187.207732 192.310588 
L 187.92 193.068267 
L 189.082375 194.442353 
L 190.563741 196.574118 
L 190.5984 196.636215 
L 191.682923 198.705882 
L 192.516244 200.837647 
L 193.08177 202.969412 
L 193.2768 204.338095 
L 193.385389 205.101176 
L 193.423859 207.232941 
L 193.2768 208.522852 
L 193.177363 209.364706 
L 192.60899 211.496471 
L 191.666849 213.628235 
L 190.5984 215.294915 
L 190.275526 215.76 
L 188.3355 217.891765 
L 187.92 218.260144 
L 185.677368 220.023529 
L 185.2416 220.314535 
L 182.5632 221.852534 
L 181.92044 222.155294 
L 179.8848 223.019692 
L 177.2064 223.8958 
L 175.528465 224.287059 
L 174.528 224.507591 
L 171.8496 224.869479 
L 169.1712 224.999308 
L 166.4928 224.897642 
L 163.8144 224.559593 
z
M 136.761841 153.938824 
L 134.352 152.990605 
L 132.208906 151.807059 
L 131.6736 151.477778 
L 129.40813 149.675294 
L 128.9952 149.286278 
L 127.474628 147.543529 
L 126.3168 145.849237 
L 126.058573 145.411765 
L 125.065486 143.28 
L 124.368988 141.148235 
L 123.926069 139.016471 
L 123.701079 136.884706 
L 123.665242 134.752941 
L 123.795931 132.621176 
L 124.075899 130.489412 
L 124.492587 128.357647 
L 125.037538 126.225882 
L 125.705945 124.094118 
L 126.3168 122.448735 
L 126.49215 121.962353 
L 127.378445 119.830588 
L 128.378199 117.698824 
L 128.9952 116.519066 
L 129.482664 115.567059 
L 130.683552 113.435294 
L 131.6736 111.831771 
L 131.995361 111.303529 
L 133.397974 109.171765 
L 134.352 107.830956 
L 134.91148 107.04 
L 136.52529 104.908235 
L 137.0304 104.280978 
L 138.244055 102.776471 
L 139.7088 101.072431 
L 140.079707 100.644706 
L 142.025362 98.512941 
L 142.3872 98.134511 
L 144.09147 96.381176 
L 145.0656 95.424352 
L 146.290366 94.249412 
L 147.744 92.909565 
L 148.630129 92.117647 
L 150.4224 90.568981 
L 151.123585 89.985882 
L 153.1008 88.386128 
L 153.789237 87.854118 
L 155.7792 86.348564 
L 156.652561 85.722353 
L 158.4576 84.447377 
L 159.747804 83.590588 
L 161.136 82.676819 
L 163.120467 81.458824 
L 163.8144 81.034048 
L 166.4928 79.51426 
L 166.851277 79.327059 
L 169.1712 78.10805 
L 171.088507 77.195294 
L 171.8496 76.828473 
L 174.528 75.666575 
L 176.09854 75.063529 
L 177.2064 74.629032 
L 179.8848 73.716734 
L 182.5632 72.94142 
L 182.604659 72.931765 
L 185.2416 72.297268 
L 187.92 71.806018 
L 190.5984 71.477464 
L 193.2768 71.327953 
L 195.9552 71.381976 
L 198.6336 71.674257 
L 201.312 72.252725 
L 203.310296 72.931765 
L 203.9904 73.194186 
L 206.6688 74.644499 
L 207.259061 75.063529 
L 209.3472 76.877175 
L 209.644215 77.195294 
L 211.238422 79.327059 
L 212.0256 80.763338 
L 212.359813 81.458824 
L 213.109054 83.590588 
L 213.586918 85.722353 
L 213.838375 87.854118 
L 213.898215 89.985882 
L 213.793308 92.117647 
L 213.54421 94.249412 
L 213.16626 96.381176 
L 212.670219 98.512941 
L 212.062474 100.644706 
L 212.0256 100.755058 
L 211.367619 102.776471 
L 210.576591 104.908235 
L 209.68262 107.04 
L 209.3472 107.763435 
L 208.704863 109.171765 
L 207.630236 111.303529 
L 206.6688 113.012531 
L 206.43351 113.435294 
L 205.145872 115.567059 
L 203.9904 117.268785 
L 203.700773 117.698824 
L 202.139129 119.830588 
L 201.312 120.846521 
L 200.411584 121.962353 
L 198.6336 123.951557 
L 198.506975 124.094118 
L 196.472911 126.225882 
L 195.9552 126.725918 
L 194.2796 128.357647 
L 193.2768 129.268652 
L 191.936122 130.489412 
L 190.5984 131.643 
L 189.458076 132.621176 
L 187.92 133.888229 
L 186.855325 134.752941 
L 185.2416 136.028022 
L 184.131015 136.884706 
L 182.5632 138.075788 
L 181.281464 139.016471 
L 179.8848 140.038076 
L 178.296325 141.148235 
L 177.2064 141.916503 
L 175.158353 143.28 
L 174.528 143.708464 
L 171.8496 145.407031 
L 171.841536 145.411765 
L 169.1712 147.035618 
L 168.24974 147.543529 
L 166.4928 148.559764 
L 164.327345 149.675294 
L 163.8144 149.956458 
L 161.136 151.243846 
L 159.761564 151.807059 
L 158.4576 152.383396 
L 155.7792 153.357126 
L 153.741668 153.938824 
L 153.1008 154.138509 
L 150.4224 154.740443 
L 147.744 155.108882 
L 145.0656 155.240751 
L 142.3872 155.123752 
L 139.7088 154.735025 
L 137.0304 154.039078 
z
M 236.240742 153.938824 
L 236.1312 153.886121 
L 233.4528 152.149669 
L 233.027578 151.807059 
L 230.927619 149.675294 
L 230.7744 149.464884 
L 229.52546 147.543529 
L 228.610741 145.411765 
L 228.129997 143.28 
L 228.096 142.033376 
L 228.071633 141.148235 
L 228.096 141.003095 
L 228.454161 139.016471 
L 229.340047 136.884706 
L 230.7744 134.852309 
L 230.857767 134.752941 
L 233.380328 132.621176 
L 233.4528 132.573822 
L 236.1312 131.214259 
L 238.329056 130.489412 
L 238.8096 130.351756 
L 241.488 129.910882 
L 244.1664 129.808699 
L 246.8448 130.032005 
L 249.047585 130.489412 
L 249.5232 130.595545 
L 252.2016 131.574093 
L 254.205507 132.621176 
L 254.88 133.036391 
L 257.027348 134.752941 
L 257.5584 135.299121 
L 258.843501 136.884706 
L 260.039329 139.016471 
L 260.2368 139.614888 
L 260.694704 141.148235 
L 260.896091 143.28 
L 260.665661 145.411765 
L 260.2368 146.777659 
L 259.969727 147.543529 
L 258.717548 149.675294 
L 257.5584 151.047289 
L 256.778044 151.807059 
L 254.88 153.240512 
L 253.644892 153.938824 
L 252.2016 154.628107 
L 249.5232 155.484051 
L 246.8448 155.93197 
L 244.1664 155.998437 
L 241.488 155.690667 
L 238.8096 154.997858 
z
" style="fill:#ffbebe;fill-opacity:0.3;"/>
   </g>
   <g id="PathCollection_4">
    <path clip-path="url(#pad7ba4f148)" d="M 56.6784 252 
L 59.3568 252 
L 62.0352 252 
L 64.7136 252 
L 67.392 252 
L 70.0704 252 
L 72.7488 252 
L 75.4272 252 
L 78.1056 252 
L 80.784 252 
L 83.4624 252 
L 86.1408 252 
L 88.8192 252 
L 91.4976 252 
L 94.176 252 
L 96.8544 252 
L 99.5328 252 
L 102.2112 252 
L 104.8896 252 
L 107.568 252 
L 110.2464 252 
L 112.9248 252 
L 115.6032 252 
L 118.2816 252 
L 120.96 252 
L 123.6384 252 
L 126.3168 252 
L 128.9952 252 
L 131.6736 252 
L 134.352 252 
L 137.0304 252 
L 139.7088 252 
L 142.3872 252 
L 145.0656 252 
L 147.744 252 
L 150.4224 252 
L 153.1008 252 
L 155.7792 252 
L 158.4576 252 
L 161.136 252 
L 163.8144 252 
L 166.4928 252 
L 169.1712 252 
L 171.8496 252 
L 174.528 252 
L 177.2064 252 
L 179.8848 252 
L 182.5632 252 
L 185.2416 252 
L 187.92 252 
L 190.5984 252 
L 193.2768 252 
L 195.9552 252 
L 198.6336 252 
L 201.312 252 
L 203.9904 252 
L 206.6688 252 
L 209.3472 252 
L 212.0256 252 
L 214.704 252 
L 217.3824 252 
L 220.0608 252 
L 222.7392 252 
L 225.4176 252 
L 228.096 252 
L 230.7744 252 
L 233.4528 252 
L 236.1312 252 
L 238.8096 252 
L 241.488 252 
L 244.1664 252 
L 246.8448 252 
L 249.5232 252 
L 252.2016 252 
L 254.88 252 
L 257.5584 252 
L 260.2368 252 
L 262.9152 252 
L 265.5936 252 
L 268.272 252 
L 270.9504 252 
L 273.6288 252 
L 276.3072 252 
L 278.9856 252 
L 281.664 252 
L 284.3424 252 
L 287.0208 252 
L 289.6992 252 
L 292.3776 252 
L 295.056 252 
L 297.7344 252 
L 300.4128 252 
L 303.0912 252 
L 305.7696 252 
L 308.448 252 
L 311.1264 252 
L 313.8048 252 
L 316.4832 252 
L 319.1616 252 
L 321.84 252 
L 321.84 249.868235 
L 321.84 247.736471 
L 321.84 245.604706 
L 321.84 243.472941 
L 321.84 241.341176 
L 321.84 239.209412 
L 321.84 237.077647 
L 321.84 234.945882 
L 321.84 232.814118 
L 321.84 230.682353 
L 321.84 228.550588 
L 321.84 226.418824 
L 321.84 224.287059 
L 321.84 222.155294 
L 321.84 220.023529 
L 321.84 217.891765 
L 321.84 215.76 
L 321.84 213.628235 
L 321.84 211.496471 
L 321.84 209.364706 
L 321.84 207.232941 
L 321.84 205.101176 
L 321.84 202.969412 
L 321.84 200.837647 
L 321.84 198.705882 
L 321.84 196.574118 
L 321.84 194.442353 
L 321.84 192.310588 
L 321.84 190.178824 
L 321.84 188.047059 
L 321.84 185.915294 
L 321.84 183.783529 
L 321.84 181.651765 
L 321.84 179.52 
L 321.84 177.388235 
L 321.84 175.256471 
L 321.84 173.124706 
L 321.84 170.992941 
L 321.84 168.861176 
L 321.84 166.729412 
L 321.84 164.597647 
L 321.84 162.465882 
L 321.84 160.334118 
L 321.84 158.202353 
L 321.84 156.070588 
L 321.84 153.938824 
L 321.84 151.807059 
L 321.84 149.675294 
L 321.84 147.543529 
L 321.84 145.411765 
L 321.84 143.28 
L 321.84 141.148235 
L 321.84 139.016471 
L 321.84 136.884706 
L 321.84 134.752941 
L 321.84 132.621176 
L 321.84 130.489412 
L 321.84 128.357647 
L 321.84 126.225882 
L 321.84 124.094118 
L 321.84 121.962353 
L 321.84 119.830588 
L 321.84 117.698824 
L 321.84 115.567059 
L 321.84 113.435294 
L 321.84 111.303529 
L 321.84 109.171765 
L 321.84 107.04 
L 321.84 104.908235 
L 321.84 102.776471 
L 321.84 100.644706 
L 321.84 98.512941 
L 321.84 96.381176 
L 321.84 94.249412 
L 321.84 92.117647 
L 321.84 89.985882 
L 321.84 87.854118 
L 321.84 85.722353 
L 321.84 83.590588 
L 321.84 81.458824 
L 321.84 79.327059 
L 321.84 77.195294 
L 321.84 75.063529 
L 321.84 72.931765 
L 321.84 70.8 
L 321.84 68.668235 
L 321.84 66.536471 
L 321.84 64.404706 
L 321.84 62.272941 
L 321.84 60.141176 
L 321.84 58.009412 
L 321.84 55.877647 
L 321.84 53.745882 
L 321.84 51.614118 
L 321.84 49.482353 
L 321.84 47.350588 
L 321.84 45.218824 
L 321.84 43.087059 
L 321.84 40.955294 
L 321.84 38.823529 
L 321.84 36.691765 
L 321.84 34.56 
L 319.1616 34.56 
L 316.4832 34.56 
L 313.8048 34.56 
L 311.1264 34.56 
L 308.448 34.56 
L 305.7696 34.56 
L 303.0912 34.56 
L 300.4128 34.56 
L 297.7344 34.56 
L 295.056 34.56 
L 292.3776 34.56 
L 289.6992 34.56 
L 287.0208 34.56 
L 284.3424 34.56 
L 281.664 34.56 
L 278.9856 34.56 
L 276.3072 34.56 
L 273.6288 34.56 
L 270.9504 34.56 
L 268.272 34.56 
L 265.5936 34.56 
L 262.9152 34.56 
L 260.2368 34.56 
L 257.5584 34.56 
L 254.88 34.56 
L 252.2016 34.56 
L 249.5232 34.56 
L 246.8448 34.56 
L 244.1664 34.56 
L 241.488 34.56 
L 238.8096 34.56 
L 236.1312 34.56 
L 233.4528 34.56 
L 230.7744 34.56 
L 228.096 34.56 
L 225.4176 34.56 
L 222.7392 34.56 
L 220.0608 34.56 
L 217.3824 34.56 
L 214.704 34.56 
L 212.0256 34.56 
L 209.3472 34.56 
L 206.6688 34.56 
L 203.9904 34.56 
L 201.312 34.56 
L 198.6336 34.56 
L 195.9552 34.56 
L 193.2768 34.56 
L 190.5984 34.56 
L 187.92 34.56 
L 185.2416 34.56 
L 182.5632 34.56 
L 179.8848 34.56 
L 177.2064 34.56 
L 174.528 34.56 
L 171.8496 34.56 
L 169.1712 34.56 
L 166.4928 34.56 
L 163.8144 34.56 
L 161.136 34.56 
L 158.4576 34.56 
L 155.7792 34.56 
L 153.1008 34.56 
L 150.4224 34.56 
L 147.744 34.56 
L 145.0656 34.56 
L 142.3872 34.56 
L 139.7088 34.56 
L 137.0304 34.56 
L 134.352 34.56 
L 131.6736 34.56 
L 128.9952 34.56 
L 126.3168 34.56 
L 123.6384 34.56 
L 120.96 34.56 
L 118.2816 34.56 
L 115.6032 34.56 
L 112.9248 34.56 
L 110.2464 34.56 
L 107.568 34.56 
L 104.8896 34.56 
L 102.2112 34.56 
L 99.5328 34.56 
L 96.8544 34.56 
L 94.176 34.56 
L 91.4976 34.56 
L 88.8192 34.56 
L 86.1408 34.56 
L 83.4624 34.56 
L 80.784 34.56 
L 78.1056 34.56 
L 75.4272 34.56 
L 72.7488 34.56 
L 70.0704 34.56 
L 67.392 34.56 
L 64.7136 34.56 
L 62.0352 34.56 
L 59.3568 34.56 
L 56.6784 34.56 
L 54 34.56 
L 54 36.691765 
L 54 38.823529 
L 54 40.955294 
L 54 43.087059 
L 54 45.218824 
L 54 47.350588 
L 54 49.482353 
L 54 51.614118 
L 54 53.745882 
L 54 55.877647 
L 54 58.009412 
L 54 60.141176 
L 54 62.272941 
L 54 64.404706 
L 54 66.536471 
L 54 68.668235 
L 54 70.8 
L 54 72.931765 
L 54 75.063529 
L 54 77.195294 
L 54 79.327059 
L 54 81.458824 
L 54 83.590588 
L 54 85.722353 
L 54 87.854118 
L 54 89.985882 
L 54 92.117647 
L 54 94.249412 
L 54 96.381176 
L 54 98.512941 
L 54 100.644706 
L 54 102.776471 
L 54 104.908235 
L 54 107.04 
L 54 109.171765 
L 54 111.303529 
L 54 113.435294 
L 54 115.567059 
L 54 117.698824 
L 54 119.830588 
L 54 121.962353 
L 54 124.094118 
L 54 126.225882 
L 54 128.357647 
L 54 130.489412 
L 54 132.621176 
L 54 134.752941 
L 54 136.884706 
L 54 139.016471 
L 54 141.148235 
L 54 143.28 
L 54 145.411765 
L 54 147.543529 
L 54 149.675294 
L 54 151.807059 
L 54 153.938824 
L 54 156.070588 
L 54 158.202353 
L 54 160.334118 
L 54 162.465882 
L 54 164.597647 
L 54 166.729412 
L 54 168.861176 
L 54 170.992941 
L 54 173.124706 
L 54 175.256471 
L 54 177.388235 
L 54 179.52 
L 54 181.651765 
L 54 183.783529 
L 54 185.915294 
L 54 188.047059 
L 54 190.178824 
L 54 192.310588 
L 54 194.442353 
L 54 196.574118 
L 54 198.705882 
L 54 200.837647 
L 54 202.969412 
L 54 205.101176 
L 54 207.232941 
L 54 209.364706 
L 54 211.496471 
L 54 213.628235 
L 54 215.76 
L 54 217.891765 
L 54 220.023529 
L 54 222.155294 
L 54 224.287059 
L 54 226.418824 
L 54 228.550588 
L 54 230.682353 
L 54 232.814118 
L 54 234.945882 
L 54 237.077647 
L 54 239.209412 
L 54 241.341176 
L 54 243.472941 
L 54 245.604706 
L 54 247.736471 
L 54 249.868235 
L 54 252 
z
M 160.376279 237.077647 
L 158.4576 236.724766 
L 155.7792 236.068678 
L 153.1008 235.224263 
L 152.364493 234.945882 
L 150.4224 234.209539 
L 147.744 232.975773 
L 147.435908 232.814118 
L 145.0656 231.524587 
L 143.72185 230.682353 
L 142.3872 229.793617 
L 140.716152 228.550588 
L 139.7088 227.734551 
L 138.212399 226.418824 
L 137.0304 225.258361 
L 136.093754 224.287059 
L 134.352 222.219264 
L 134.299641 222.155294 
L 132.737537 220.023529 
L 131.6736 218.290759 
L 131.427145 217.891765 
L 130.286547 215.76 
L 129.350362 213.628235 
L 128.9952 212.64873 
L 128.556317 211.496471 
L 127.89719 209.364706 
L 127.38049 207.232941 
L 126.987919 205.101176 
L 126.703389 202.969412 
L 126.512037 200.837647 
L 126.399198 198.705882 
L 126.349253 196.574118 
L 126.344246 194.442353 
L 126.36219 192.310588 
L 126.374975 190.178824 
L 126.345859 188.047059 
L 126.3168 187.495531 
L 126.220978 185.915294 
L 125.936079 183.783529 
L 125.419471 181.651765 
L 124.591664 179.52 
L 123.6384 177.819868 
L 123.375742 177.388235 
L 121.742656 175.256471 
L 120.96 174.405764 
L 119.770981 173.124706 
L 118.2816 171.666157 
L 117.614643 170.992941 
L 115.6032 169.014315 
L 115.456091 168.861176 
L 113.444912 166.729412 
L 112.9248 166.145491 
L 111.648575 164.597647 
L 110.2464 162.687789 
L 110.094365 162.465882 
L 108.783512 160.334118 
L 107.703599 158.202353 
L 107.568 157.885203 
L 106.824526 156.070588 
L 106.136975 153.938824 
L 105.624796 151.807059 
L 105.270743 149.675294 
L 105.059374 147.543529 
L 104.977421 145.411765 
L 105.013927 143.28 
L 105.160247 141.148235 
L 105.409989 139.016471 
L 105.758924 136.884706 
L 106.204913 134.752941 
L 106.747857 132.621176 
L 107.389681 130.489412 
L 107.568 129.974143 
L 108.088636 128.357647 
L 108.867188 126.225882 
L 109.745397 124.094118 
L 110.2464 122.99778 
L 110.690664 121.962353 
L 111.695713 119.830588 
L 112.812066 117.698824 
L 112.9248 117.498231 
L 113.952956 115.567059 
L 115.202337 113.435294 
L 115.6032 112.7973 
L 116.499114 111.303529 
L 117.890737 109.171765 
L 118.2816 108.608813 
L 119.329301 107.04 
L 120.87876 104.908235 
L 120.96 104.801335 
L 122.45147 102.776471 
L 123.6384 101.285462 
L 124.135906 100.644706 
L 125.887075 98.512941 
L 126.3168 98.01492 
L 127.702284 96.381176 
L 128.9952 94.948389 
L 129.619048 94.249412 
L 131.628179 92.117647 
L 131.6736 92.07084 
L 133.690066 89.985882 
L 134.352 89.332866 
L 135.855485 87.854118 
L 137.0304 86.744941 
L 138.123879 85.722353 
L 139.7088 84.291194 
L 140.497132 83.590588 
L 142.3872 81.958975 
L 142.97973 81.458824 
L 145.0656 79.738408 
L 145.57902 79.327059 
L 147.744 77.622064 
L 148.305588 77.195294 
L 150.4224 75.6047 
L 151.173792 75.063529 
L 153.1008 73.683084 
L 154.20246 72.931765 
L 155.7792 71.855876 
L 157.415827 70.8 
L 158.4576 70.123567 
L 160.844757 68.668235 
L 161.136 68.488481 
L 163.8144 66.9228 
L 164.523294 66.536471 
L 166.4928 65.439968 
L 168.516076 64.404706 
L 169.1712 64.060238 
L 171.8496 62.752591 
L 172.922595 62.272941 
L 174.528 61.528767 
L 177.2064 60.405213 
L 177.898674 60.141176 
L 179.8848 59.348515 
L 182.5632 58.397933 
L 183.797432 58.009412 
L 185.2416 57.529392 
L 187.92 56.752126 
L 190.5984 56.088999 
L 191.622398 55.877647 
L 193.2768 55.512678 
L 195.9552 55.04187 
L 198.6336 54.692101 
L 201.312 54.467368 
L 203.9904 54.375605 
L 206.6688 54.429204 
L 209.3472 54.645769 
L 212.0256 55.049168 
L 214.704 55.670977 
L 215.367439 55.877647 
L 217.3824 56.542973 
L 220.0608 57.732882 
L 220.565601 58.009412 
L 222.7392 59.335256 
L 223.822595 60.141176 
L 225.4176 61.513643 
L 226.177955 62.272941 
L 227.957442 64.404706 
L 228.096 64.603413 
L 229.324638 66.536471 
L 230.376725 68.668235 
L 230.7744 69.702749 
L 231.177781 70.8 
L 231.771017 72.931765 
L 232.180138 75.063529 
L 232.42978 77.195294 
L 232.539826 79.327059 
L 232.526448 81.458824 
L 232.403012 83.590588 
L 232.180883 85.722353 
L 231.870204 87.854118 
L 231.480667 89.985882 
L 231.022314 92.117647 
L 230.7744 93.149388 
L 230.527686 94.249412 
L 230.015883 96.381176 
L 229.484329 98.512941 
L 228.953378 100.644706 
L 228.449905 102.776471 
L 228.096 104.517547 
L 228.019304 104.908235 
L 227.733576 107.04 
L 227.635446 109.171765 
L 227.854558 111.303529 
L 228.096 112.040933 
L 228.74279 113.435294 
L 230.7744 115.289875 
L 231.26568 115.567059 
L 233.4528 116.325656 
L 236.1312 116.918864 
L 238.8096 117.367543 
L 240.879614 117.698824 
L 241.488 117.775864 
L 244.1664 118.176451 
L 246.8448 118.662089 
L 249.5232 119.271213 
L 251.475344 119.830588 
L 252.2016 120.021606 
L 254.88 120.903523 
L 257.412815 121.962353 
L 257.5584 122.022465 
L 260.2368 123.348484 
L 261.4841 124.094118 
L 262.9152 125.000255 
L 264.574953 126.225882 
L 265.5936 127.064616 
L 266.999114 128.357647 
L 268.272 129.736605 
L 268.921827 130.489412 
L 270.441906 132.621176 
L 270.9504 133.526192 
L 271.634474 134.752941 
L 272.529067 136.884706 
L 273.136716 139.016471 
L 273.488278 141.148235 
L 273.601158 143.28 
L 273.480595 145.411765 
L 273.119971 147.543529 
L 272.500164 149.675294 
L 271.587835 151.807059 
L 270.9504 152.930526 
L 270.371961 153.938824 
L 268.807923 156.070588 
L 268.272 156.675538 
L 266.814148 158.202353 
L 265.5936 159.284188 
L 264.251682 160.334118 
L 262.9152 161.267215 
L 260.862501 162.465882 
L 260.2368 162.808316 
L 257.5584 164.017827 
L 255.878696 164.597647 
L 254.88 164.942278 
L 252.2016 165.635943 
L 249.5232 166.095746 
L 246.8448 166.347884 
L 244.1664 166.40714 
L 241.488 166.278202 
L 238.8096 165.956035 
L 236.1312 165.425262 
L 233.4528 164.65835 
L 233.282738 164.597647 
L 230.7744 163.690624 
L 228.180935 162.465882 
L 228.096 162.423504 
L 225.4176 160.871955 
L 224.612452 160.334118 
L 222.7392 158.940502 
L 221.824849 158.202353 
L 220.0608 156.564471 
L 219.53814 156.070588 
L 217.593362 153.938824 
L 217.3824 153.668675 
L 215.813216 151.807059 
L 214.704 150.248477 
L 214.223869 149.675294 
L 212.626283 147.543529 
L 212.0256 146.660725 
L 210.834504 145.411765 
L 209.3472 143.861623 
L 208.290477 143.28 
L 206.6688 142.477085 
L 203.9904 142.271071 
L 201.312 142.824769 
L 200.19148 143.28 
L 198.6336 143.886117 
L 195.9552 145.287234 
L 195.758735 145.411765 
L 193.2768 146.993211 
L 192.499251 147.543529 
L 190.5984 148.935008 
L 189.652432 149.675294 
L 187.92 151.11851 
L 187.122737 151.807059 
L 185.2416 153.593357 
L 184.881558 153.938824 
L 182.964633 156.070588 
L 182.5632 156.624566 
L 181.408275 158.202353 
L 180.276239 160.334118 
L 179.8848 161.746988 
L 179.678539 162.465882 
L 179.722828 164.597647 
L 179.8848 165.054491 
L 180.495825 166.729412 
L 182.016847 168.861176 
L 182.5632 169.386665 
L 184.192247 170.992941 
L 185.2416 171.821943 
L 186.810249 173.124706 
L 187.92 173.934226 
L 189.613154 175.256471 
L 190.5984 175.976765 
L 192.38578 177.388235 
L 193.2768 178.080539 
L 194.992299 179.52 
L 195.9552 180.349054 
L 197.367168 181.651765 
L 198.6336 182.896245 
L 199.487651 183.783529 
L 201.312 185.871565 
L 201.34878 185.915294 
L 203.009119 188.047059 
L 203.9904 189.499347 
L 204.445832 190.178824 
L 205.72064 192.310588 
L 206.6688 194.144518 
L 206.827764 194.442353 
L 207.863956 196.574118 
L 208.800821 198.705882 
L 209.3472 200.028122 
L 209.721857 200.837647 
L 210.708606 202.969412 
L 211.761283 205.101176 
L 212.0256 205.611616 
L 213.146084 207.232941 
L 214.704 209.109183 
L 215.056378 209.364706 
L 217.3824 210.790097 
L 220.0608 211.274606 
L 222.7392 211.136702 
L 225.4176 210.679383 
L 228.096 210.0692 
L 230.7744 209.402136 
L 230.907524 209.364706 
L 233.4528 208.727067 
L 236.1312 208.081031 
L 238.8096 207.484699 
L 240.007216 207.232941 
L 241.488 206.923746 
L 244.1664 206.410613 
L 246.8448 205.968688 
L 249.5232 205.597109 
L 252.2016 205.293801 
L 254.357368 205.101176 
L 254.88 205.049291 
L 257.5584 204.848141 
L 260.2368 204.718628 
L 262.9152 204.659825 
L 265.5936 204.672031 
L 268.272 204.757017 
L 270.9504 204.918264 
L 272.980669 205.101176 
L 273.6288 205.153144 
L 276.3072 205.440855 
L 278.9856 205.815307 
L 281.664 206.288633 
L 284.3424 206.876559 
L 285.71511 207.232941 
L 287.0208 207.569174 
L 289.6992 208.379949 
L 292.368388 209.364706 
L 292.3776 209.36838 
L 295.056 210.550376 
L 296.881459 211.496471 
L 297.7344 212.024287 
L 300.063989 213.628235 
L 300.4128 213.949728 
L 302.274946 215.76 
L 303.0912 217.020779 
L 303.654706 217.891765 
L 304.311902 220.023529 
L 304.262143 222.155294 
L 303.499691 224.287059 
L 303.0912 224.876442 
L 302.015678 226.418824 
L 300.4128 227.908411 
L 299.679994 228.550588 
L 297.7344 229.846402 
L 296.330275 230.682353 
L 295.056 231.325711 
L 292.3776 232.505296 
L 291.578297 232.814118 
L 289.6992 233.49239 
L 287.0208 234.309267 
L 284.477695 234.945882 
L 284.3424 234.980319 
L 281.664 235.576887 
L 278.9856 236.056422 
L 276.3072 236.434782 
L 273.6288 236.724114 
L 270.9504 236.933514 
L 268.272 237.069515 
L 267.949163 237.077647 
L 265.5936 237.146085 
L 262.9152 237.146299 
L 260.519387 237.077647 
L 260.2368 237.070622 
L 257.5584 236.937298 
L 254.88 236.733859 
L 252.2016 236.455913 
L 249.5232 236.097508 
L 246.8448 235.651242 
L 244.1664 235.108496 
L 243.457176 234.945882 
L 241.488 234.50339 
L 238.8096 233.807842 
L 236.1312 233.000299 
L 235.549244 232.814118 
L 233.4528 232.09938 
L 230.7744 231.096797 
L 229.696021 230.682353 
L 228.096 229.975513 
L 225.4176 228.783542 
L 224.850425 228.550588 
L 222.7392 227.485209 
L 220.327863 226.418824 
L 220.0608 226.262713 
L 217.3824 225.141045 
L 214.704 224.512173 
L 212.0256 224.43112 
L 209.3472 224.873068 
L 206.6688 225.74434 
L 205.160219 226.418824 
L 203.9904 226.879308 
L 201.312 228.144725 
L 200.532341 228.550588 
L 198.6336 229.470566 
L 196.176096 230.682353 
L 195.9552 230.787094 
L 193.2768 232.055939 
L 191.555219 232.814118 
L 190.5984 233.228949 
L 187.92 234.291417 
L 186.020048 234.945882 
L 185.2416 235.216274 
L 182.5632 236.018002 
L 179.8848 236.661785 
L 177.637984 237.077647 
L 177.2064 237.161002 
L 174.528 237.537627 
L 171.8496 237.76608 
L 169.1712 237.850044 
L 166.4928 237.790105 
L 163.8144 237.583366 
L 161.136 237.22306 
z
" style="fill:#ff3e3e;fill-opacity:0.3;"/>
   </g>
   <g id="matplotlib.axis_1">
    <g id="xtick_1">
     <g id="line2d_1">
      <defs>
       <path d="M 0 0 
L 0 3.5 
" id="m78d1bd52d9" style="stroke:#000000;stroke-width:0.8;"/>
      </defs>
      <g>
       <use style="stroke:#000000;stroke-width:0.8;" x="73.131429" xlink:href="#m78d1bd52d9" y="252"/>
      </g>
     </g>
     <g id="text_1">
      <!-- −6 -->
      <g transform="translate(65.760335 266.598437)scale(0.1 -0.1)">
       <defs>
        <path d="M 678 2272 
L 4684 2272 
L 4684 1741 
L 678 1741 
L 678 2272 
z
" id="DejaVuSans-2212" transform="scale(0.015625)"/>
        <path d="M 2113 2584 
Q 1688 2584 1439 2293 
Q 1191 2003 1191 1497 
Q 1191 994 1439 701 
Q 1688 409 2113 409 
Q 2538 409 2786 701 
Q 3034 994 3034 1497 
Q 3034 2003 2786 2293 
Q 2538 2584 2113 2584 
z
M 3366 4563 
L 3366 3988 
Q 3128 4100 2886 4159 
Q 2644 4219 2406 4219 
Q 1781 4219 1451 3797 
Q 1122 3375 1075 2522 
Q 1259 2794 1537 2939 
Q 1816 3084 2150 3084 
Q 2853 3084 3261 2657 
Q 3669 2231 3669 1497 
Q 3669 778 3244 343 
Q 2819 -91 2113 -91 
Q 1303 -91 875 529 
Q 447 1150 447 2328 
Q 447 3434 972 4092 
Q 1497 4750 2381 4750 
Q 2619 4750 2861 4703 
Q 3103 4656 3366 4563 
z
" id="DejaVuSans-36" transform="scale(0.015625)"/>
       </defs>
       <use xlink:href="#DejaVuSans-2212"/>
       <use x="83.789062" xlink:href="#DejaVuSans-36"/>
      </g>
     </g>
    </g>
    <g id="xtick_2">
     <g id="line2d_2">
      <g>
       <use style="stroke:#000000;stroke-width:0.8;" x="111.394286" xlink:href="#m78d1bd52d9" y="252"/>
      </g>
     </g>
     <g id="text_2">
      <!-- −4 -->
      <g transform="translate(104.023192 266.598437)scale(0.1 -0.1)">
       <defs>
        <path d="M 2419 4116 
L 825 1625 
L 2419 1625 
L 2419 4116 
z
M 2253 4666 
L 3047 4666 
L 3047 1625 
L 3713 1625 
L 3713 1100 
L 3047 1100 
L 3047 0 
L 2419 0 
L 2419 1100 
L 313 1100 
L 313 1709 
L 2253 4666 
z
" id="DejaVuSans-34" transform="scale(0.015625)"/>
       </defs>
       <use xlink:href="#DejaVuSans-2212"/>
       <use x="83.789062" xlink:href="#DejaVuSans-34"/>
      </g>
     </g>
    </g>
    <g id="xtick_3">
     <g id="line2d_3">
      <g>
       <use style="stroke:#000000;stroke-width:0.8;" x="149.657143" xlink:href="#m78d1bd52d9" y="252"/>
      </g>
     </g>
     <g id="text_3">
      <!-- −2 -->
      <g transform="translate(142.286049 266.598437)scale(0.1 -0.1)">
       <defs>
        <path d="M 1228 531 
L 3431 531 
L 3431 0 
L 469 0 
L 469 531 
Q 828 903 1448 1529 
Q 2069 2156 2228 2338 
Q 2531 2678 2651 2914 
Q 2772 3150 2772 3378 
Q 2772 3750 2511 3984 
Q 2250 4219 1831 4219 
Q 1534 4219 1204 4116 
Q 875 4013 500 3803 
L 500 4441 
Q 881 4594 1212 4672 
Q 1544 4750 1819 4750 
Q 2544 4750 2975 4387 
Q 3406 4025 3406 3419 
Q 3406 3131 3298 2873 
Q 3191 2616 2906 2266 
Q 2828 2175 2409 1742 
Q 1991 1309 1228 531 
z
" id="DejaVuSans-32" transform="scale(0.015625)"/>
       </defs>
       <use xlink:href="#DejaVuSans-2212"/>
       <use x="83.789062" xlink:href="#DejaVuSans-32"/>
      </g>
     </g>
    </g>
    <g id="xtick_4">
     <g id="line2d_4">
      <g>
       <use style="stroke:#000000;stroke-width:0.8;" x="187.92" xlink:href="#m78d1bd52d9" y="252"/>
      </g>
     </g>
     <g id="text_4">
      <!-- 0 -->
      <g transform="translate(184.73875 266.598437)scale(0.1 -0.1)">
       <defs>
        <path d="M 2034 4250 
Q 1547 4250 1301 3770 
Q 1056 3291 1056 2328 
Q 1056 1369 1301 889 
Q 1547 409 2034 409 
Q 2525 409 2770 889 
Q 3016 1369 3016 2328 
Q 3016 3291 2770 3770 
Q 2525 4250 2034 4250 
z
M 2034 4750 
Q 2819 4750 3233 4129 
Q 3647 3509 3647 2328 
Q 3647 1150 3233 529 
Q 2819 -91 2034 -91 
Q 1250 -91 836 529 
Q 422 1150 422 2328 
Q 422 3509 836 4129 
Q 1250 4750 2034 4750 
z
" id="DejaVuSans-30" transform="scale(0.015625)"/>
       </defs>
       <use xlink:href="#DejaVuSans-30"/>
      </g>
     </g>
    </g>
    <g id="xtick_5">
     <g id="line2d_5">
      <g>
       <use style="stroke:#000000;stroke-width:0.8;" x="226.182857" xlink:href="#m78d1bd52d9" y="252"/>
      </g>
     </g>
     <g id="text_5">
      <!-- 2 -->
      <g transform="translate(223.001607 266.598437)scale(0.1 -0.1)">
       <use xlink:href="#DejaVuSans-32"/>
      </g>
     </g>
    </g>
    <g id="xtick_6">
     <g id="line2d_6">
      <g>
       <use style="stroke:#000000;stroke-width:0.8;" x="264.445714" xlink:href="#m78d1bd52d9" y="252"/>
      </g>
     </g>
     <g id="text_6">
      <!-- 4 -->
      <g transform="translate(261.264464 266.598437)scale(0.1 -0.1)">
       <use xlink:href="#DejaVuSans-34"/>
      </g>
     </g>
    </g>
    <g id="xtick_7">
     <g id="line2d_7">
      <g>
       <use style="stroke:#000000;stroke-width:0.8;" x="302.708571" xlink:href="#m78d1bd52d9" y="252"/>
      </g>
     </g>
     <g id="text_7">
      <!-- 6 -->
      <g transform="translate(299.527321 266.598437)scale(0.1 -0.1)">
       <use xlink:href="#DejaVuSans-36"/>
      </g>
     </g>
    </g>
   </g>
   <g id="matplotlib.axis_2">
    <g id="ytick_1">
     <g id="line2d_8">
      <defs>
       <path d="M 0 0 
L -3.5 0 
" id="mb17a2aff5e" style="stroke:#000000;stroke-width:0.8;"/>
      </defs>
      <g>
       <use style="stroke:#000000;stroke-width:0.8;" x="54" xlink:href="#mb17a2aff5e" y="236.468571"/>
      </g>
     </g>
     <g id="text_8">
      <!-- −6 -->
      <g transform="translate(32.257812 240.26779)scale(0.1 -0.1)">
       <use xlink:href="#DejaVuSans-2212"/>
       <use x="83.789062" xlink:href="#DejaVuSans-36"/>
      </g>
     </g>
    </g>
    <g id="ytick_2">
     <g id="line2d_9">
      <g>
       <use style="stroke:#000000;stroke-width:0.8;" x="54" xlink:href="#mb17a2aff5e" y="205.405714"/>
      </g>
     </g>
     <g id="text_9">
      <!-- −4 -->
      <g transform="translate(32.257812 209.204933)scale(0.1 -0.1)">
       <use xlink:href="#DejaVuSans-2212"/>
       <use x="83.789062" xlink:href="#DejaVuSans-34"/>
      </g>
     </g>
    </g>
    <g id="ytick_3">
     <g id="line2d_10">
      <g>
       <use style="stroke:#000000;stroke-width:0.8;" x="54" xlink:href="#mb17a2aff5e" y="174.342857"/>
      </g>
     </g>
     <g id="text_10">
      <!-- −2 -->
      <g transform="translate(32.257812 178.142076)scale(0.1 -0.1)">
       <use xlink:href="#DejaVuSans-2212"/>
       <use x="83.789062" xlink:href="#DejaVuSans-32"/>
      </g>
     </g>
    </g>
    <g id="ytick_4">
     <g id="line2d_11">
      <g>
       <use style="stroke:#000000;stroke-width:0.8;" x="54" xlink:href="#mb17a2aff5e" y="143.28"/>
      </g>
     </g>
     <g id="text_11">
      <!-- 0 -->
      <g transform="translate(40.6375 147.079219)scale(0.1 -0.1)">
       <use xlink:href="#DejaVuSans-30"/>
      </g>
     </g>
    </g>
    <g id="ytick_5">
     <g id="line2d_12">
      <g>
       <use style="stroke:#000000;stroke-width:0.8;" x="54" xlink:href="#mb17a2aff5e" y="112.217143"/>
      </g>
     </g>
     <g id="text_12">
      <!-- 2 -->
      <g transform="translate(40.6375 116.016362)scale(0.1 -0.1)">
       <use xlink:href="#DejaVuSans-32"/>
      </g>
     </g>
    </g>
    <g id="ytick_6">
     <g id="line2d_13">
      <g>
       <use style="stroke:#000000;stroke-width:0.8;" x="54" xlink:href="#mb17a2aff5e" y="81.154286"/>
      </g>
     </g>
     <g id="text_13">
      <!-- 4 -->
      <g transform="translate(40.6375 84.953504)scale(0.1 -0.1)">
       <use xlink:href="#DejaVuSans-34"/>
      </g>
     </g>
    </g>
    <g id="ytick_7">
     <g id="line2d_14">
      <g>
       <use style="stroke:#000000;stroke-width:0.8;" x="54" xlink:href="#mb17a2aff5e" y="50.091429"/>
      </g>
     </g>
     <g id="text_14">
      <!-- 6 -->
      <g transform="translate(40.6375 53.890647)scale(0.1 -0.1)">
       <use xlink:href="#DejaVuSans-36"/>
      </g>
     </g>
    </g>
   </g>
   <g id="LineCollection_1">
    <path clip-path="url(#pad7ba4f148)" d="M 54 34.56 
" style="fill:none;stroke:#ffffff;stroke-width:1.25;"/>
   </g>
   <g id="LineCollection_2">
    <path clip-path="url(#pad7ba4f148)" d="M 158.4576 246.028095 
L 161.136 246.428234 
L 163.8144 246.701984 
L 166.4928 246.857657 
L 169.1712 246.900079 
L 171.8496 246.830882 
L 174.528 246.648677 
L 177.2064 246.349146 
L 182.5632 245.394942 
L 185.2416 244.774405 
L 190.5984 243.143199 
L 195.9552 241.133997 
L 203.9904 237.933264 
L 206.6688 237.000209 
L 209.3472 236.298013 
L 212.0256 235.81115 
L 214.704 235.57259 
L 217.3824 235.578776 
L 220.0608 235.793788 
L 225.4176 236.62628 
L 230.7744 237.732324 
L 236.1312 238.820302 
L 246.8448 240.610287 
L 252.2016 241.161189 
L 260.2368 241.656295 
L 265.5936 241.71189 
L 270.9504 241.522272 
L 278.9856 240.85342 
L 284.3424 240.083986 
L 289.6992 238.971724 
L 292.3776 238.334318 
L 297.7344 236.674663 
L 302.096619 234.945882 
L 303.0912 234.495444 
L 306.3095 232.814118 
L 309.543137 230.682353 
L 311.969391 228.550588 
L 313.8048 226.209708 
L 314.875993 224.287059 
L 315.459507 222.155294 
L 315.497579 220.023529 
L 314.994598 217.891765 
L 313.8048 215.647535 
L 312.263931 213.628235 
L 309.936339 211.496471 
L 306.834686 209.364706 
L 305.7696 208.752613 
L 302.761492 207.232941 
L 300.4128 206.194435 
L 295.056 204.304612 
L 292.3776 203.545711 
L 287.0208 202.288896 
L 281.664 201.3612 
L 276.3072 200.733664 
L 270.9504 200.26773 
L 265.5936 200.050516 
L 260.2368 200.047101 
L 254.88 200.236902 
L 246.8448 200.831628 
L 241.488 201.22991 
L 236.1312 201.541934 
L 233.4528 201.57256 
L 230.7744 201.432122 
L 227.447357 200.837647 
L 225.4176 200.052889 
L 222.7392 198.302271 
L 221.138105 196.574118 
L 219.631067 194.442353 
L 217.297308 190.178824 
L 214.704 185.084047 
L 212.80853 181.651765 
L 210.157565 177.388235 
L 204.519988 168.861176 
L 203.642793 166.729412 
L 203.711232 164.597647 
L 203.9904 164.197839 
L 206.6688 163.43252 
L 209.3472 164.147077 
L 217.3824 167.990749 
L 222.7392 170.135374 
L 228.096 171.739633 
L 230.7744 172.355755 
L 235.699369 173.124706 
L 238.8096 173.465994 
L 241.488 173.610958 
L 244.1664 173.624085 
L 246.8448 173.501126 
L 250.201416 173.124706 
L 252.2016 172.850032 
L 254.88 172.32513 
L 257.5584 171.608896 
L 260.2368 170.70391 
L 262.9152 169.629039 
L 265.5936 168.301871 
L 268.272 166.692355 
L 271.178355 164.597647 
L 273.6288 162.424395 
L 276.3072 159.455122 
L 277.286943 158.202353 
L 278.9856 155.404497 
L 279.782329 153.938824 
L 280.679673 151.807059 
L 281.33164 149.675294 
L 281.794574 147.543529 
L 282.098978 145.411765 
L 282.200174 143.28 
L 282.103596 141.148235 
L 281.664 138.418617 
L 281.346055 136.884706 
L 280.702749 134.752941 
L 279.818595 132.621176 
L 278.69088 130.489412 
L 277.367618 128.357647 
L 275.732752 126.225882 
L 273.6288 123.937843 
L 270.9504 121.490664 
L 268.272 119.454692 
L 265.543032 117.698824 
L 261.685807 115.567059 
L 260.2368 114.807533 
L 249.5232 109.874568 
L 248.172682 109.171765 
L 245.372335 107.04 
L 243.769401 104.908235 
L 243.006222 102.776471 
L 242.73651 100.644706 
L 242.790118 98.512941 
L 243.047831 96.381176 
L 243.865537 92.117647 
L 246.114391 81.458824 
L 246.633749 77.195294 
L 246.83177 72.931765 
L 246.648054 68.668235 
L 246.386831 66.536471 
L 245.993494 64.404706 
L 245.449238 62.272941 
L 244.1664 58.802153 
L 243.826012 58.009412 
L 242.712171 55.877647 
L 241.317472 53.745882 
L 238.8096 50.769839 
L 237.458559 49.482353 
L 236.1312 48.375681 
L 233.4528 46.528869 
L 230.7744 45.088115 
L 228.096 43.946695 
L 225.4176 43.077822 
L 222.7392 42.398165 
L 220.0608 41.912684 
L 217.3824 41.593868 
L 214.704 41.420446 
L 212.0256 41.376263 
L 206.6688 41.631806 
L 201.312 42.307101 
L 195.9552 43.36645 
L 190.5984 44.74403 
L 185.2416 46.432678 
L 179.8848 48.426 
L 172.622476 51.614118 
L 169.1712 53.275178 
L 163.8144 56.120256 
L 158.4576 59.218714 
L 153.1008 62.631566 
L 147.465616 66.536471 
L 141.788753 70.8 
L 136.566048 75.063529 
L 131.6736 79.386498 
L 126.3168 84.478033 
L 123.010808 87.854118 
L 117.228958 94.249412 
L 112.044841 100.644706 
L 107.439118 107.04 
L 104.638495 111.303529 
L 102.08617 115.567059 
L 99.756135 119.830588 
L 96.724086 126.225882 
L 94.98009 130.489412 
L 92.889702 136.884706 
L 91.868269 141.148235 
L 91.129513 145.411765 
L 90.708923 149.675294 
L 90.666383 153.938824 
L 90.799142 156.070588 
L 91.044646 158.202353 
L 91.886045 162.465882 
L 92.494094 164.597647 
L 93.257597 166.729412 
L 94.190987 168.861176 
L 95.253109 170.992941 
L 96.8544 173.663079 
L 97.904642 175.256471 
L 101.115422 179.52 
L 104.8896 184.255109 
L 107.568 188.053951 
L 109.875621 192.310588 
L 110.78667 194.442353 
L 112.289443 198.705882 
L 113.56968 202.969412 
L 114.841461 207.232941 
L 117.081173 213.628235 
L 118.995437 217.891765 
L 120.96 221.436247 
L 121.37116 222.155294 
L 123.6384 225.483389 
L 124.318282 226.418824 
L 126.3168 228.808081 
L 128.9952 231.619136 
L 131.6736 234.029101 
L 134.352 236.120207 
L 137.0304 237.944949 
L 139.7088 239.531549 
L 143.287633 241.341176 
L 145.0656 242.158732 
L 148.558921 243.472941 
L 150.4224 244.120462 
L 153.1008 244.890051 
L 158.4576 246.028095 
L 158.4576 246.028095 
" style="fill:none;stroke:#f0f0f0;stroke-width:1.25;"/>
   </g>
   <g id="LineCollection_3">
    <path clip-path="url(#pad7ba4f148)" d="M 161.136 237.22306 
L 163.8144 237.583366 
L 166.4928 237.790105 
L 169.1712 237.850044 
L 171.8496 237.76608 
L 174.528 237.537627 
L 177.637984 237.077647 
L 179.8848 236.661785 
L 182.5632 236.018002 
L 186.020048 234.945882 
L 187.92 234.291417 
L 193.2768 232.055939 
L 206.6688 225.74434 
L 209.3472 224.873068 
L 212.0256 224.43112 
L 214.704 224.512173 
L 217.3824 225.141045 
L 222.7392 227.485209 
L 225.4176 228.783542 
L 230.7744 231.096797 
L 236.1312 233.000299 
L 241.488 234.50339 
L 246.8448 235.651242 
L 252.2016 236.455913 
L 257.5584 236.937298 
L 262.9152 237.146299 
L 268.272 237.069515 
L 273.6288 236.724114 
L 278.9856 236.056422 
L 281.664 235.576887 
L 287.0208 234.309267 
L 291.578297 232.814118 
L 292.3776 232.505296 
L 296.330275 230.682353 
L 297.7344 229.846402 
L 299.679994 228.550588 
L 302.015678 226.418824 
L 303.499691 224.287059 
L 304.262143 222.155294 
L 304.311902 220.023529 
L 303.654706 217.891765 
L 302.274946 215.76 
L 300.063989 213.628235 
L 296.881459 211.496471 
L 295.056 210.550376 
L 292.368388 209.364706 
L 289.6992 208.379949 
L 285.71511 207.232941 
L 281.664 206.288633 
L 276.3072 205.440855 
L 270.9504 204.918264 
L 265.5936 204.672031 
L 260.2368 204.718628 
L 254.357368 205.101176 
L 249.5232 205.597109 
L 244.1664 206.410613 
L 238.8096 207.484699 
L 233.4528 208.727067 
L 225.4176 210.679383 
L 222.7392 211.136702 
L 220.0608 211.274606 
L 217.3824 210.790097 
L 214.704 209.109183 
L 213.146084 207.232941 
L 211.761283 205.101176 
L 209.3472 200.028122 
L 207.863956 196.574118 
L 205.72064 192.310588 
L 203.9904 189.499347 
L 203.009119 188.047059 
L 201.312 185.871565 
L 198.6336 182.896245 
L 195.9552 180.349054 
L 192.38578 177.388235 
L 184.192247 170.992941 
L 182.016847 168.861176 
L 180.495825 166.729412 
L 179.722828 164.597647 
L 179.678539 162.465882 
L 180.276239 160.334118 
L 181.408275 158.202353 
L 182.964633 156.070588 
L 185.2416 153.593357 
L 187.92 151.11851 
L 190.5984 148.935008 
L 193.2768 146.993211 
L 195.9552 145.287234 
L 198.6336 143.886117 
L 201.312 142.824769 
L 203.9904 142.271071 
L 206.6688 142.477085 
L 209.3472 143.861623 
L 212.0256 146.660725 
L 212.626283 147.543529 
L 215.813216 151.807059 
L 219.53814 156.070588 
L 221.824849 158.202353 
L 224.612452 160.334118 
L 225.4176 160.871955 
L 228.180935 162.465882 
L 230.7744 163.690624 
L 233.4528 164.65835 
L 236.1312 165.425262 
L 238.8096 165.956035 
L 241.488 166.278202 
L 244.1664 166.40714 
L 246.8448 166.347884 
L 249.5232 166.095746 
L 252.2016 165.635943 
L 255.878696 164.597647 
L 257.5584 164.017827 
L 260.862501 162.465882 
L 262.9152 161.267215 
L 265.5936 159.284188 
L 266.814148 158.202353 
L 268.807923 156.070588 
L 270.371961 153.938824 
L 271.587835 151.807059 
L 272.500164 149.675294 
L 273.119971 147.543529 
L 273.480595 145.411765 
L 273.601158 143.28 
L 273.488278 141.148235 
L 273.136716 139.016471 
L 272.529067 136.884706 
L 271.634474 134.752941 
L 270.441906 132.621176 
L 268.272 129.736605 
L 266.999114 128.357647 
L 264.574953 126.225882 
L 262.9152 125.000255 
L 260.2368 123.348484 
L 257.412815 121.962353 
L 254.88 120.903523 
L 251.475344 119.830588 
L 249.5232 119.271213 
L 246.8448 118.662089 
L 241.488 117.775864 
L 238.8096 117.367543 
L 236.1312 116.918864 
L 233.4528 116.325656 
L 230.7744 115.289875 
L 228.74279 113.435294 
L 227.854558 111.303529 
L 227.635446 109.171765 
L 227.733576 107.04 
L 228.096 104.517547 
L 228.953378 100.644706 
L 231.022314 92.117647 
L 231.870204 87.854118 
L 232.403012 83.590588 
L 232.539826 79.327059 
L 232.42978 77.195294 
L 232.180138 75.063529 
L 231.771017 72.931765 
L 230.7744 69.702749 
L 230.376725 68.668235 
L 229.324638 66.536471 
L 227.957442 64.404706 
L 225.4176 61.513643 
L 222.7392 59.335256 
L 220.0608 57.732882 
L 217.3824 56.542973 
L 214.704 55.670977 
L 212.0256 55.049168 
L 209.3472 54.645769 
L 206.6688 54.429204 
L 203.9904 54.375605 
L 201.312 54.467368 
L 198.6336 54.692101 
L 195.9552 55.04187 
L 190.5984 56.088999 
L 185.2416 57.529392 
L 179.8848 59.348515 
L 174.528 61.528767 
L 168.516076 64.404706 
L 163.8144 66.9228 
L 158.4576 70.123567 
L 153.1008 73.683084 
L 147.744 77.622064 
L 142.3872 81.958975 
L 138.123879 85.722353 
L 133.690066 89.985882 
L 128.9952 94.948389 
L 125.887075 98.512941 
L 122.45147 102.776471 
L 118.2816 108.608813 
L 116.499114 111.303529 
L 113.952956 115.567059 
L 111.695713 119.830588 
L 109.745397 124.094118 
L 108.088636 128.357647 
L 106.747857 132.621176 
L 105.758924 136.884706 
L 105.160247 141.148235 
L 104.977421 145.411765 
L 105.059374 147.543529 
L 105.270743 149.675294 
L 105.624796 151.807059 
L 106.136975 153.938824 
L 106.824526 156.070588 
L 107.703599 158.202353 
L 108.783512 160.334118 
L 110.2464 162.687789 
L 111.648575 164.597647 
L 113.444912 166.729412 
L 117.614643 170.992941 
L 121.742656 175.256471 
L 123.6384 177.819868 
L 124.591664 179.52 
L 125.419471 181.651765 
L 125.936079 183.783529 
L 126.220978 185.915294 
L 126.374975 190.178824 
L 126.399198 198.705882 
L 126.703389 202.969412 
L 127.38049 207.232941 
L 127.89719 209.364706 
L 128.9952 212.64873 
L 129.350362 213.628235 
L 130.286547 215.76 
L 131.6736 218.290759 
L 132.737537 220.023529 
L 134.352 222.219264 
L 137.0304 225.258361 
L 139.7088 227.734551 
L 142.3872 229.793617 
L 145.0656 231.524587 
L 147.744 232.975773 
L 150.4224 234.209539 
L 153.1008 235.224263 
L 155.7792 236.068678 
L 158.4576 236.724766 
L 161.136 237.22306 
L 161.136 237.22306 
" style="fill:none;stroke:#dadada;stroke-width:1.25;"/>
   </g>
   <g id="LineCollection_4">
    <path clip-path="url(#pad7ba4f148)" d="M 252.2016 232.843306 
L 254.88 233.227706 
L 257.5584 233.508912 
L 260.2368 233.693365 
L 262.9152 233.785184 
L 265.5936 233.786153 
L 268.272 233.695675 
L 270.9504 233.510648 
L 273.6288 233.225254 
L 276.3072 232.830633 
L 276.396993 232.814118 
L 278.9856 232.328831 
L 281.664 231.693331 
L 284.3424 230.902657 
L 284.986113 230.682353 
L 287.0208 229.892778 
L 289.6992 228.644468 
L 289.880096 228.550588 
L 292.3776 226.894593 
L 293.020715 226.418824 
L 294.952199 224.287059 
L 295.056 224.060329 
L 295.914341 222.155294 
L 295.97733 220.023529 
L 295.145881 217.891765 
L 295.056 217.779138 
L 293.365023 215.76 
L 292.3776 214.995781 
L 290.41693 213.628235 
L 289.6992 213.243109 
L 287.0208 211.976398 
L 285.83159 211.496471 
L 284.3424 210.97298 
L 281.664 210.180033 
L 278.9856 209.542221 
L 278.071174 209.364706 
L 276.3072 209.032028 
L 273.6288 208.638379 
L 270.9504 208.352249 
L 268.272 208.16456 
L 265.5936 208.069146 
L 262.9152 208.062383 
L 260.2368 208.142933 
L 257.5584 208.311567 
L 254.88 208.571049 
L 252.2016 208.926056 
L 249.626054 209.364706 
L 249.5232 209.382783 
L 246.8448 209.939888 
L 244.1664 210.615916 
L 241.488 211.422976 
L 241.262973 211.496471 
L 238.8096 212.433805 
L 236.1312 213.625232 
L 236.124693 213.628235 
L 233.4528 215.288147 
L 232.73749 215.76 
L 230.790391 217.891765 
L 230.7744 217.936574 
L 229.990407 220.023529 
L 230.335903 222.155294 
L 230.7744 222.808643 
L 231.694195 224.287059 
L 233.4528 225.837268 
L 234.115548 226.418824 
L 236.1312 227.645451 
L 237.736187 228.550588 
L 238.8096 229.032457 
L 241.488 230.120885 
L 243.073073 230.682353 
L 244.1664 231.02579 
L 246.8448 231.759131 
L 249.5232 232.360479 
L 252.036855 232.814118 
L 252.2016 232.843306 
" style="fill:none;stroke:#bebebe;stroke-width:1.25;"/>
    <path clip-path="url(#pad7ba4f148)" d="M 163.8144 230.782507 
L 166.4928 231.044752 
L 169.1712 231.12361 
L 171.8496 231.023192 
L 174.889277 230.682353 
L 177.2064 230.291644 
L 179.8848 229.657028 
L 183.316829 228.550588 
L 185.2416 227.807201 
L 188.233018 226.418824 
L 191.952914 224.287059 
L 194.946266 222.155294 
L 197.349638 220.023529 
L 199.18709 217.891765 
L 200.505644 215.76 
L 201.313137 213.628235 
L 201.772846 211.496471 
L 201.909305 209.364706 
L 201.807822 207.232941 
L 201.312 204.133811 
L 201.081003 202.969412 
L 200.49921 200.837647 
L 199.751684 198.705882 
L 198.6336 196.220921 
L 197.694905 194.442353 
L 195.9552 191.79624 
L 194.704553 190.178824 
L 192.761196 188.047059 
L 190.454229 185.915294 
L 187.705076 183.783529 
L 184.415049 181.651765 
L 182.5632 180.566947 
L 177.2064 177.95501 
L 169.1712 174.867884 
L 166.4928 173.952501 
L 163.67332 173.124706 
L 158.4576 171.339371 
L 157.102674 170.992941 
L 155.043626 168.861176 
L 155.7792 168.140577 
L 156.421953 166.729412 
L 160.85702 162.465882 
L 161.136 162.271381 
L 163.8144 159.992298 
L 168.60284 156.070588 
L 169.1712 155.664422 
L 174.528 151.510003 
L 188.184061 141.148235 
L 202.106759 130.489412 
L 204.614528 128.357647 
L 206.836686 126.225882 
L 209.3472 123.394459 
L 210.468309 121.962353 
L 213.001835 117.698824 
L 214.970542 113.435294 
L 216.718273 109.171765 
L 219.024016 102.776471 
L 220.325335 98.512941 
L 221.40068 94.249412 
L 222.128541 89.985882 
L 222.338789 87.854118 
L 222.429724 85.722353 
L 222.385041 83.590588 
L 222.184516 81.458824 
L 221.802881 79.327059 
L 221.208393 77.195294 
L 220.0608 74.476399 
L 219.186543 72.931765 
L 217.3824 70.551895 
L 214.704 68.122303 
L 212.0256 66.443711 
L 209.3472 65.27328 
L 206.393571 64.404706 
L 203.9904 63.938068 
L 201.312 63.650352 
L 198.6336 63.564518 
L 195.9552 63.655627 
L 193.2768 63.90598 
L 190.101291 64.404706 
L 187.92 64.824818 
L 185.2416 65.469204 
L 179.8848 67.115251 
L 174.528 69.191414 
L 169.1712 71.675132 
L 163.8144 74.56951 
L 158.4576 77.868695 
L 153.1008 81.604839 
L 147.744 85.79727 
L 142.944913 89.985882 
L 139.7088 93.083046 
L 136.512046 96.381176 
L 132.734916 100.644706 
L 128.9952 105.389018 
L 126.310462 109.171765 
L 123.609844 113.435294 
L 121.245343 117.698824 
L 119.224886 121.962353 
L 117.578121 126.225882 
L 116.315648 130.489412 
L 115.481693 134.752941 
L 115.231015 136.884706 
L 115.110748 139.016471 
L 115.130506 141.148235 
L 115.303069 143.28 
L 115.644236 145.411765 
L 116.173628 147.543529 
L 116.921357 149.675294 
L 118.2816 152.449766 
L 119.218229 153.938824 
L 120.96 156.184724 
L 123.6384 158.801945 
L 126.3168 160.828716 
L 128.998143 162.465882 
L 131.6736 163.866887 
L 137.0304 166.13475 
L 139.7088 167.101089 
L 142.3872 168.061649 
L 145.0656 168.920366 
L 148.910772 170.992941 
L 148.278899 173.124706 
L 147.744 173.638789 
L 146.812271 175.256471 
L 143.740503 179.52 
L 142.328342 181.651765 
L 139.910928 185.915294 
L 138.894658 188.047059 
L 138.015332 190.178824 
L 137.0304 193.166837 
L 136.675195 194.442353 
L 136.21246 196.574118 
L 135.898025 198.705882 
L 135.734255 200.837647 
L 135.725095 202.969412 
L 135.876774 205.101176 
L 136.198437 207.232941 
L 137.0304 210.366688 
L 137.394969 211.496471 
L 138.29158 213.628235 
L 139.7088 216.195144 
L 140.830624 217.891765 
L 142.544539 220.023529 
L 145.0656 222.536667 
L 147.744 224.658287 
L 150.527707 226.418824 
L 153.1008 227.734247 
L 155.7792 228.83326 
L 158.4576 229.695457 
L 161.136 230.337811 
L 163.8144 230.782507 
L 163.8144 230.782507 
" style="fill:none;stroke:#bebebe;stroke-width:1.25;"/>
    <path clip-path="url(#pad7ba4f148)" d="M 238.8096 160.36835 
L 241.488 160.842992 
L 244.1664 161.048883 
L 246.8448 160.994961 
L 249.5232 160.676771 
L 251.074789 160.334118 
L 252.2016 160.079251 
L 254.88 159.173278 
L 256.9604 158.202353 
L 257.5584 157.895394 
L 260.2368 156.144212 
L 260.331517 156.070588 
L 262.665132 153.938824 
L 262.9152 153.654449 
L 264.368302 151.807059 
L 265.5936 149.687448 
L 265.600238 149.675294 
L 266.440393 147.543529 
L 266.929911 145.411765 
L 267.094858 143.28 
L 266.944511 141.148235 
L 266.47231 139.016471 
L 265.655557 136.884706 
L 265.5936 136.768603 
L 264.460172 134.752941 
L 262.9152 132.7319 
L 262.821338 132.621176 
L 260.599828 130.489412 
L 260.2368 130.193913 
L 257.563217 128.357647 
L 257.5584 128.354676 
L 254.88 126.980234 
L 252.942124 126.225882 
L 252.2016 125.946716 
L 249.5232 125.191447 
L 246.8448 124.684377 
L 244.1664 124.39695 
L 241.488 124.312026 
L 238.8096 124.42307 
L 236.1312 124.735012 
L 233.4528 125.267875 
L 230.7744 126.066201 
L 230.337339 126.225882 
L 228.096 127.181375 
L 226.029018 128.357647 
L 225.4176 128.803308 
L 223.470288 130.489412 
L 222.7392 131.423651 
L 221.876538 132.621176 
L 220.921804 134.752941 
L 220.425753 136.884706 
L 220.25574 139.016471 
L 220.354657 141.148235 
L 220.703276 143.28 
L 221.306173 145.411765 
L 222.187097 147.543529 
L 222.7392 148.53897 
L 223.349676 149.675294 
L 224.845431 151.807059 
L 225.4176 152.465366 
L 226.773534 153.938824 
L 228.096 155.120472 
L 229.299026 156.070588 
L 230.7744 157.075258 
L 232.78768 158.202353 
L 233.4528 158.539329 
L 236.1312 159.614418 
L 238.683733 160.334118 
L 238.8096 160.36835 
" style="fill:none;stroke:#bebebe;stroke-width:1.25;"/>
   </g>
   <g id="LineCollection_5">
    <path clip-path="url(#pad7ba4f148)" d="M 262.9152 230.693969 
L 265.5936 230.696029 
L 265.910384 230.682353 
L 268.272 230.574395 
L 270.9504 230.323477 
L 273.6288 229.936096 
L 276.3072 229.400249 
L 278.9856 228.699147 
L 279.455366 228.550588 
L 281.664 227.6925 
L 284.326259 226.418824 
L 284.3424 226.407697 
L 287.017285 224.287059 
L 287.0208 224.281569 
L 288.282192 222.155294 
L 288.364869 220.023529 
L 287.275061 217.891765 
L 287.0208 217.649733 
L 284.807826 215.76 
L 284.3424 215.494703 
L 281.664 214.170894 
L 280.337381 213.628235 
L 278.9856 213.185821 
L 276.3072 212.473336 
L 273.6288 211.927981 
L 270.9504 211.532543 
L 270.58183 211.496471 
L 268.272 211.287605 
L 265.5936 211.166429 
L 262.9152 211.162554 
L 260.2368 211.274788 
L 257.65514 211.496471 
L 257.5584 211.50548 
L 254.88 211.880454 
L 252.2016 212.394337 
L 249.5232 213.059114 
L 247.655214 213.628235 
L 246.8448 213.938496 
L 244.1664 215.144478 
L 242.984066 215.76 
L 241.488 216.945592 
L 240.4033 217.891765 
L 239.306492 220.023529 
L 239.486058 222.155294 
L 240.931766 224.287059 
L 241.488 224.725408 
L 243.840999 226.418824 
L 244.1664 226.581905 
L 246.8448 227.776414 
L 248.935055 228.550588 
L 249.5232 228.728477 
L 252.2016 229.406915 
L 254.88 229.932179 
L 257.5584 230.31643 
L 260.2368 230.568631 
L 262.653646 230.682353 
L 262.9152 230.693969 
" style="fill:none;stroke:#959595;stroke-width:1.25;"/>
    <path clip-path="url(#pad7ba4f148)" d="M 163.8144 224.559593 
L 166.4928 224.897642 
L 169.1712 224.999308 
L 171.8496 224.869479 
L 174.528 224.507591 
L 175.528465 224.287059 
L 177.2064 223.8958 
L 179.8848 223.019692 
L 181.92044 222.155294 
L 182.5632 221.852534 
L 185.2416 220.314535 
L 185.677368 220.023529 
L 187.92 218.260144 
L 188.3355 217.891765 
L 190.275526 215.76 
L 190.5984 215.294915 
L 191.666849 213.628235 
L 192.60899 211.496471 
L 193.177363 209.364706 
L 193.2768 208.522852 
L 193.423859 207.232941 
L 193.385389 205.101176 
L 193.2768 204.338095 
L 193.08177 202.969412 
L 192.516244 200.837647 
L 191.682923 198.705882 
L 190.5984 196.636215 
L 190.563741 196.574118 
L 189.082375 194.442353 
L 187.92 193.068267 
L 187.207732 192.310588 
L 185.2416 190.513277 
L 184.821238 190.178824 
L 182.5632 188.566827 
L 181.697841 188.047059 
L 179.8848 187.028749 
L 177.447441 185.915294 
L 177.2064 185.808035 
L 174.528 184.85708 
L 171.8496 184.151398 
L 169.752817 183.783529 
L 169.1712 183.676677 
L 166.4928 183.429678 
L 163.8144 183.434184 
L 161.136 183.718394 
L 160.83173 183.783529 
L 158.4576 184.304316 
L 155.7792 185.265436 
L 154.50696 185.915294 
L 153.1008 186.690026 
L 151.23694 188.047059 
L 150.4224 188.71576 
L 148.965826 190.178824 
L 147.744 191.6356 
L 147.25485 192.310588 
L 145.967649 194.442353 
L 145.0656 196.397253 
L 144.990851 196.574118 
L 144.310269 198.705882 
L 143.881567 200.837647 
L 143.695446 202.969412 
L 143.7494 205.101176 
L 144.04738 207.232941 
L 144.599842 209.364706 
L 145.0656 210.57896 
L 145.433638 211.496471 
L 146.584318 213.628235 
L 147.744 215.301463 
L 148.091248 215.76 
L 150.062207 217.891765 
L 150.4224 218.222762 
L 152.66822 220.023529 
L 153.1008 220.326771 
L 155.7792 221.907086 
L 156.301102 222.155294 
L 158.4576 223.091023 
L 161.136 223.965253 
L 162.552217 224.287059 
L 163.8144 224.559593 
" style="fill:none;stroke:#959595;stroke-width:1.25;"/>
    <path clip-path="url(#pad7ba4f148)" d="M 137.0304 154.039078 
L 139.7088 154.735025 
L 142.3872 155.123752 
L 145.0656 155.240751 
L 147.744 155.108882 
L 150.4224 154.740443 
L 153.741668 153.938824 
L 155.7792 153.357126 
L 159.761564 151.807059 
L 161.136 151.243846 
L 166.4928 148.559764 
L 171.8496 145.407031 
L 177.2064 141.916503 
L 182.5632 138.075788 
L 187.92 133.888229 
L 191.936122 130.489412 
L 196.472911 126.225882 
L 200.411584 121.962353 
L 202.139129 119.830588 
L 205.145872 115.567059 
L 207.630236 111.303529 
L 209.68262 107.04 
L 211.367619 102.776471 
L 212.670219 98.512941 
L 213.16626 96.381176 
L 213.54421 94.249412 
L 213.793308 92.117647 
L 213.898215 89.985882 
L 213.838375 87.854118 
L 213.586918 85.722353 
L 213.109054 83.590588 
L 212.0256 80.763338 
L 211.238422 79.327059 
L 209.3472 76.877175 
L 206.6688 74.644499 
L 203.310296 72.931765 
L 201.312 72.252725 
L 198.6336 71.674257 
L 195.9552 71.381976 
L 193.2768 71.327953 
L 190.5984 71.477464 
L 187.92 71.806018 
L 185.2416 72.297268 
L 182.5632 72.94142 
L 179.8848 73.716734 
L 176.09854 75.063529 
L 174.528 75.666575 
L 169.1712 78.10805 
L 163.8144 81.034048 
L 159.747804 83.590588 
L 155.7792 86.348564 
L 151.123585 89.985882 
L 147.744 92.909565 
L 144.09147 96.381176 
L 140.079707 100.644706 
L 136.52529 104.908235 
L 133.397974 109.171765 
L 130.683552 113.435294 
L 128.378199 117.698824 
L 126.49215 121.962353 
L 125.037538 126.225882 
L 124.492587 128.357647 
L 124.075899 130.489412 
L 123.795931 132.621176 
L 123.665242 134.752941 
L 123.701079 136.884706 
L 123.926069 139.016471 
L 124.368988 141.148235 
L 125.065486 143.28 
L 126.3168 145.849237 
L 127.474628 147.543529 
L 129.40813 149.675294 
L 132.208906 151.807059 
L 134.352 152.990605 
L 137.0304 154.039078 
L 137.0304 154.039078 
" style="fill:none;stroke:#959595;stroke-width:1.25;"/>
    <path clip-path="url(#pad7ba4f148)" d="M 238.8096 154.997858 
L 241.488 155.690667 
L 244.1664 155.998437 
L 246.8448 155.93197 
L 249.5232 155.484051 
L 252.2016 154.628107 
L 253.644892 153.938824 
L 254.88 153.240512 
L 256.778044 151.807059 
L 257.5584 151.047289 
L 258.717548 149.675294 
L 259.969727 147.543529 
L 260.2368 146.777659 
L 260.665661 145.411765 
L 260.896091 143.28 
L 260.694704 141.148235 
L 260.2368 139.614888 
L 260.039329 139.016471 
L 258.843501 136.884706 
L 257.5584 135.299121 
L 257.027348 134.752941 
L 254.88 133.036391 
L 254.205507 132.621176 
L 252.2016 131.574093 
L 249.5232 130.595545 
L 249.047585 130.489412 
L 246.8448 130.032005 
L 244.1664 129.808699 
L 241.488 129.910882 
L 238.8096 130.351756 
L 238.329056 130.489412 
L 236.1312 131.214259 
L 233.4528 132.573822 
L 233.380328 132.621176 
L 230.857767 134.752941 
L 230.7744 134.852309 
L 229.340047 136.884706 
L 228.454161 139.016471 
L 228.096 141.003095 
L 228.071633 141.148235 
L 228.096 142.033376 
L 228.129997 143.28 
L 228.610741 145.411765 
L 229.52546 147.543529 
L 230.7744 149.464884 
L 230.927619 149.675294 
L 233.027578 151.807059 
L 233.4528 152.149669 
L 236.1312 153.886121 
L 236.240742 153.938824 
L 238.8096 154.997858 
" style="fill:none;stroke:#959595;stroke-width:1.25;"/>
   </g>
   <g id="LineCollection_6">
    <path clip-path="url(#pad7ba4f148)" d="M 257.5584 226.761796 
L 260.2368 227.128161 
L 262.9152 227.311327 
L 265.5936 227.315011 
L 268.272 227.138204 
L 270.9504 226.774929 
L 272.668128 226.418824 
L 273.6288 226.142893 
L 276.3072 225.097913 
L 277.926566 224.287059 
L 278.9856 223.27288 
L 279.969015 222.155294 
L 280.094459 220.023529 
L 278.9856 218.57188 
L 278.372645 217.891765 
L 276.3072 216.782562 
L 273.853475 215.76 
L 273.6288 215.695002 
L 270.9504 215.113853 
L 268.272 214.736099 
L 265.5936 214.549814 
L 262.9152 214.54861 
L 260.2368 214.731262 
L 257.5584 215.101577 
L 254.88 215.668507 
L 254.55343 215.76 
L 252.2016 216.713842 
L 249.937984 217.891765 
L 249.5232 218.344391 
L 248.208875 220.023529 
L 248.38044 222.155294 
L 249.5232 223.380045 
L 250.512045 224.287059 
L 252.2016 225.105649 
L 254.88 226.12986 
L 255.893611 226.418824 
L 257.5584 226.761796 
" style="fill:none;stroke:#727272;stroke-width:1.25;"/>
    <path clip-path="url(#pad7ba4f148)" d="M 166.4928 218.252501 
L 169.1712 218.391656 
L 171.8496 218.188498 
L 173.306397 217.891765 
L 174.528 217.60703 
L 177.2064 216.580866 
L 178.733175 215.76 
L 179.8848 214.999098 
L 181.50593 213.628235 
L 182.5632 212.434489 
L 183.257721 211.496471 
L 184.322878 209.364706 
L 184.89335 207.232941 
L 185.009245 205.101176 
L 184.693598 202.969412 
L 183.954147 200.837647 
L 182.785552 198.705882 
L 182.5632 198.405858 
L 180.972158 196.574118 
L 179.8848 195.580691 
L 178.342602 194.442353 
L 177.2064 193.731406 
L 174.528 192.464747 
L 174.04901 192.310588 
L 171.8496 191.66946 
L 169.1712 191.245919 
L 166.4928 191.182209 
L 163.8144 191.496133 
L 161.136 192.224398 
L 160.933233 192.310588 
L 158.4576 193.535234 
L 157.156173 194.442353 
L 155.7792 195.632669 
L 154.921951 196.574118 
L 153.47123 198.705882 
L 153.1008 199.514526 
L 152.58233 200.837647 
L 152.139312 202.969412 
L 152.083534 205.101176 
L 152.411414 207.232941 
L 153.1008 209.274584 
L 153.135191 209.364706 
L 154.404854 211.496471 
L 155.7792 213.163985 
L 156.240452 213.628235 
L 158.4576 215.380217 
L 159.080508 215.76 
L 161.136 216.805841 
L 163.8144 217.751688 
L 164.498629 217.891765 
L 166.4928 218.252501 
" style="fill:none;stroke:#727272;stroke-width:1.25;"/>
    <path clip-path="url(#pad7ba4f148)" d="M 244.1664 149.874591 
L 246.8448 149.759491 
L 247.150273 149.675294 
L 249.5232 148.792961 
L 251.307645 147.543529 
L 252.2016 146.509225 
L 252.863119 145.411765 
L 253.318429 143.28 
L 252.958248 141.148235 
L 252.2016 139.771448 
L 251.619482 139.016471 
L 249.5232 137.399623 
L 248.35403 136.884706 
L 246.8448 136.39275 
L 244.1664 136.15594 
L 241.488 136.562054 
L 240.671245 136.884706 
L 238.8096 137.94055 
L 237.652905 139.016471 
L 236.431038 141.148235 
L 236.201216 143.28 
L 236.89394 145.411765 
L 238.513852 147.543529 
L 238.8096 147.792043 
L 241.488 149.273572 
L 243.104138 149.675294 
L 244.1664 149.874591 
" style="fill:none;stroke:#727272;stroke-width:1.25;"/>
    <path clip-path="url(#pad7ba4f148)" d="M 142.3872 146.027322 
L 145.0656 146.579622 
L 147.744 146.785653 
L 150.4224 146.703045 
L 153.1008 146.371824 
L 155.7792 145.8187 
L 157.202145 145.411765 
L 158.4576 145.067288 
L 161.136 144.141278 
L 163.226222 143.28 
L 163.8144 143.044808 
L 166.4928 141.803168 
L 167.744687 141.148235 
L 169.1712 140.415367 
L 171.627023 139.016471 
L 171.8496 138.890715 
L 174.528 137.237838 
L 175.059461 136.884706 
L 177.2064 135.452175 
L 178.190349 134.752941 
L 179.8848 133.531729 
L 181.083586 132.621176 
L 182.5632 131.470015 
L 183.770919 130.489412 
L 185.2416 129.253822 
L 186.273062 128.357647 
L 187.92 126.861397 
L 188.602079 126.225882 
L 190.5984 124.259519 
L 190.763363 124.094118 
L 192.765221 121.962353 
L 193.2768 121.378492 
L 194.614094 119.830588 
L 195.9552 118.144805 
L 196.307101 117.698824 
L 197.855741 115.567059 
L 198.6336 114.392288 
L 199.264536 113.435294 
L 200.53623 111.303529 
L 201.312 109.856235 
L 201.679206 109.171765 
L 202.694267 107.04 
L 203.582103 104.908235 
L 203.9904 103.761131 
L 204.343591 102.776471 
L 204.968068 100.644706 
L 205.450261 98.512941 
L 205.778358 96.381176 
L 205.933449 94.249412 
L 205.888376 92.117647 
L 205.605813 89.985882 
L 205.035337 87.854118 
L 204.109112 85.722353 
L 203.9904 85.522413 
L 202.595375 83.590588 
L 201.312 82.298406 
L 200.210936 81.458824 
L 198.6336 80.501431 
L 195.9552 79.413404 
L 195.610088 79.327059 
L 193.2768 78.819896 
L 190.5984 78.567043 
L 187.92 78.588847 
L 185.2416 78.842426 
L 182.5632 79.298316 
L 182.445772 79.327059 
L 179.8848 79.942465 
L 177.2064 80.750518 
L 175.248379 81.458824 
L 174.528 81.716874 
L 171.8496 82.834905 
L 170.251095 83.590588 
L 169.1712 84.100512 
L 166.4928 85.510438 
L 166.126256 85.722353 
L 163.8144 87.06903 
L 162.574176 87.854118 
L 161.136 88.777261 
L 159.386382 89.985882 
L 158.4576 90.640656 
L 156.492759 92.117647 
L 155.7792 92.66861 
L 153.84209 94.249412 
L 153.1008 94.874854 
L 151.397138 96.381176 
L 150.4224 97.278102 
L 149.13125 98.512941 
L 147.744 99.902916 
L 147.025997 100.644706 
L 145.069575 102.776471 
L 145.0656 102.781046 
L 143.259385 104.908235 
L 142.3872 106.005182 
L 141.576818 107.04 
L 140.023634 109.171765 
L 139.7088 109.638941 
L 138.595426 111.303529 
L 137.290017 113.435294 
L 137.0304 113.90375 
L 136.108479 115.567059 
L 135.052553 117.698824 
L 134.352 119.305365 
L 134.121186 119.830588 
L 133.327199 121.962353 
L 132.671291 124.094118 
L 132.161164 126.225882 
L 131.809654 128.357647 
L 131.6736 130.042515 
L 131.636996 130.489412 
L 131.666039 132.621176 
L 131.6736 132.687693 
L 131.935212 134.752941 
L 132.491245 136.884706 
L 133.395045 139.016471 
L 134.352 140.587683 
L 134.770382 141.148235 
L 136.889206 143.28 
L 137.0304 143.394853 
L 139.7088 145.027682 
L 140.653633 145.411765 
L 142.3872 146.027322 
" style="fill:none;stroke:#727272;stroke-width:1.25;"/>
   </g>
   <g id="LineCollection_7">
    <path clip-path="url(#pad7ba4f148)" d="M 145.0656 137.189658 
L 147.744 138.303702 
L 150.4224 138.841483 
L 153.1008 138.947846 
L 155.7792 138.718923 
L 158.4576 138.218678 
L 161.136 137.489011 
L 162.84912 136.884706 
L 163.8144 136.546181 
L 166.4928 135.404399 
L 167.811124 134.752941 
L 169.1712 134.077738 
L 171.776006 132.621176 
L 171.8496 132.579462 
L 174.528 130.888792 
L 175.109392 130.489412 
L 177.2064 129.013283 
L 178.072961 128.357647 
L 179.8848 126.940124 
L 180.743494 126.225882 
L 182.5632 124.646208 
L 183.167441 124.094118 
L 185.2416 122.097374 
L 185.376095 121.962353 
L 187.368563 119.830588 
L 187.92 119.198067 
L 189.180887 117.698824 
L 190.5984 115.874124 
L 190.830411 115.567059 
L 192.292234 113.435294 
L 193.2768 111.84665 
L 193.606145 111.303529 
L 194.74088 109.171765 
L 195.730004 107.04 
L 195.9552 106.45206 
L 196.536783 104.908235 
L 197.164012 102.776471 
L 197.604751 100.644706 
L 197.831734 98.512941 
L 197.804154 96.381176 
L 197.463172 94.249412 
L 196.724894 92.117647 
L 195.9552 90.760188 
L 195.383063 89.985882 
L 193.2768 88.06031 
L 192.940561 87.854118 
L 190.5984 86.753859 
L 187.92 86.085876 
L 185.2416 85.869675 
L 182.5632 86.000227 
L 179.8848 86.407517 
L 177.2064 87.045404 
L 174.629328 87.854118 
L 174.528 87.886072 
L 171.8496 88.946181 
L 169.584369 89.985882 
L 169.1712 90.178028 
L 166.4928 91.607304 
L 165.635311 92.117647 
L 163.8144 93.224848 
L 162.278763 94.249412 
L 161.136 95.033759 
L 159.325635 96.381176 
L 158.4576 97.050465 
L 156.689206 98.512941 
L 155.7792 99.298138 
L 154.309238 100.644706 
L 153.1008 101.808045 
L 152.144057 102.776471 
L 150.4224 104.621362 
L 150.165437 104.908235 
L 148.384109 107.04 
L 147.744 107.865478 
L 146.764181 109.171765 
L 145.294398 111.303529 
L 145.0656 111.672712 
L 144.000804 113.435294 
L 142.850739 115.567059 
L 142.3872 116.561306 
L 141.866254 117.698824 
L 141.057652 119.830588 
L 140.416773 121.962353 
L 139.963921 124.094118 
L 139.729509 126.225882 
L 139.757331 128.357647 
L 140.109351 130.489412 
L 140.872776 132.621176 
L 142.170588 134.752941 
L 142.3872 135.008645 
L 144.589217 136.884706 
L 145.0656 137.189658 
" style="fill:none;stroke:#515151;stroke-width:1.25;"/>
   </g>
   <g id="LineCollection_8">
    <path clip-path="url(#pad7ba4f148)" d="M 153.1008 129.36554 
L 155.7792 130.1794 
L 158.4576 130.301523 
L 161.136 129.950483 
L 163.8144 129.254457 
L 166.291606 128.357647 
L 166.4928 128.282593 
L 169.1712 126.989007 
L 170.520008 126.225882 
L 171.8496 125.444009 
L 173.864253 124.094118 
L 174.528 123.627378 
L 176.647173 121.962353 
L 177.2064 121.49659 
L 179.02674 119.830588 
L 179.8848 118.989374 
L 181.100292 117.698824 
L 182.5632 116.016566 
L 182.928826 115.567059 
L 184.4726 113.435294 
L 185.2416 112.234185 
L 185.802887 111.303529 
L 186.876734 109.171765 
L 187.748245 107.04 
L 187.92 106.419523 
L 188.314844 104.908235 
L 188.572571 102.776471 
L 188.464057 100.644706 
L 187.92 98.676514 
L 187.857032 98.512941 
L 186.206136 96.381176 
L 185.2416 95.638007 
L 182.5632 94.552632 
L 179.8848 94.252827 
L 177.2064 94.478725 
L 174.528 95.07973 
L 171.8496 95.966576 
L 170.896557 96.381176 
L 169.1712 97.158151 
L 166.63622 98.512941 
L 166.4928 98.592957 
L 163.8144 100.339244 
L 163.396773 100.644706 
L 161.136 102.383157 
L 160.671409 102.776471 
L 158.4576 104.763604 
L 158.309158 104.908235 
L 156.290237 107.04 
L 155.7792 107.62717 
L 154.530912 109.171765 
L 153.1008 111.110232 
L 152.966688 111.303529 
L 151.701216 113.435294 
L 150.605916 115.567059 
L 150.4224 116.032165 
L 149.802104 117.698824 
L 149.261533 119.830588 
L 149.020942 121.962353 
L 149.169278 124.094118 
L 149.844542 126.225882 
L 150.4224 127.164349 
L 151.557301 128.357647 
L 153.1008 129.36554 
" style="fill:none;stroke:#242424;stroke-width:1.25;"/>
   </g>
   <g id="LineCollection_9">
    <path clip-path="url(#pad7ba4f148)" d="M 169.1712 111.303529 
L 169.1712 111.303529 
L 169.1712 111.303529 
L 169.1712 111.303529 
L 169.1712 111.303529 
" style="fill:none;stroke:#000000;stroke-width:1.25;"/>
   </g>
   <g id="patch_3">
    <path d="M 54 252 
L 54 34.56 
" style="fill:none;stroke:#000000;stroke-linecap:square;stroke-linejoin:miter;stroke-width:0.8;"/>
   </g>
   <g id="patch_4">
    <path d="M 321.84 252 
L 321.84 34.56 
" style="fill:none;stroke:#000000;stroke-linecap:square;stroke-linejoin:miter;stroke-width:0.8;"/>
   </g>
   <g id="patch_5">
    <path d="M 54 252 
L 321.84 252 
" style="fill:none;stroke:#000000;stroke-linecap:square;stroke-linejoin:miter;stroke-width:0.8;"/>
   </g>
   <g id="patch_6">
    <path d="M 54 34.56 
L 321.84 34.56 
" style="fill:none;stroke:#000000;stroke-linecap:square;stroke-linejoin:miter;stroke-width:0.8;"/>
   </g>
   <g id="text_15">
    <!-- Loss landscape -->
    <g transform="translate(142.294688 28.56)scale(0.12 -0.12)">
     <defs>
      <path d="M 628 4666 
L 1259 4666 
L 1259 531 
L 3531 531 
L 3531 0 
L 628 0 
L 628 4666 
z
" id="DejaVuSans-4c" transform="scale(0.015625)"/>
      <path d="M 1959 3097 
Q 1497 3097 1228 2736 
Q 959 2375 959 1747 
Q 959 1119 1226 758 
Q 1494 397 1959 397 
Q 2419 397 2687 759 
Q 2956 1122 2956 1747 
Q 2956 2369 2687 2733 
Q 2419 3097 1959 3097 
z
M 1959 3584 
Q 2709 3584 3137 3096 
Q 3566 2609 3566 1747 
Q 3566 888 3137 398 
Q 2709 -91 1959 -91 
Q 1206 -91 779 398 
Q 353 888 353 1747 
Q 353 2609 779 3096 
Q 1206 3584 1959 3584 
z
" id="DejaVuSans-6f" transform="scale(0.015625)"/>
      <path d="M 2834 3397 
L 2834 2853 
Q 2591 2978 2328 3040 
Q 2066 3103 1784 3103 
Q 1356 3103 1142 2972 
Q 928 2841 928 2578 
Q 928 2378 1081 2264 
Q 1234 2150 1697 2047 
L 1894 2003 
Q 2506 1872 2764 1633 
Q 3022 1394 3022 966 
Q 3022 478 2636 193 
Q 2250 -91 1575 -91 
Q 1294 -91 989 -36 
Q 684 19 347 128 
L 347 722 
Q 666 556 975 473 
Q 1284 391 1588 391 
Q 1994 391 2212 530 
Q 2431 669 2431 922 
Q 2431 1156 2273 1281 
Q 2116 1406 1581 1522 
L 1381 1569 
Q 847 1681 609 1914 
Q 372 2147 372 2553 
Q 372 3047 722 3315 
Q 1072 3584 1716 3584 
Q 2034 3584 2315 3537 
Q 2597 3491 2834 3397 
z
" id="DejaVuSans-73" transform="scale(0.015625)"/>
      <path id="DejaVuSans-20" transform="scale(0.015625)"/>
      <path d="M 603 4863 
L 1178 4863 
L 1178 0 
L 603 0 
L 603 4863 
z
" id="DejaVuSans-6c" transform="scale(0.015625)"/>
      <path d="M 2194 1759 
Q 1497 1759 1228 1600 
Q 959 1441 959 1056 
Q 959 750 1161 570 
Q 1363 391 1709 391 
Q 2188 391 2477 730 
Q 2766 1069 2766 1631 
L 2766 1759 
L 2194 1759 
z
M 3341 1997 
L 3341 0 
L 2766 0 
L 2766 531 
Q 2569 213 2275 61 
Q 1981 -91 1556 -91 
Q 1019 -91 701 211 
Q 384 513 384 1019 
Q 384 1609 779 1909 
Q 1175 2209 1959 2209 
L 2766 2209 
L 2766 2266 
Q 2766 2663 2505 2880 
Q 2244 3097 1772 3097 
Q 1472 3097 1187 3025 
Q 903 2953 641 2809 
L 641 3341 
Q 956 3463 1253 3523 
Q 1550 3584 1831 3584 
Q 2591 3584 2966 3190 
Q 3341 2797 3341 1997 
z
" id="DejaVuSans-61" transform="scale(0.015625)"/>
      <path d="M 3513 2113 
L 3513 0 
L 2938 0 
L 2938 2094 
Q 2938 2591 2744 2837 
Q 2550 3084 2163 3084 
Q 1697 3084 1428 2787 
Q 1159 2491 1159 1978 
L 1159 0 
L 581 0 
L 581 3500 
L 1159 3500 
L 1159 2956 
Q 1366 3272 1645 3428 
Q 1925 3584 2291 3584 
Q 2894 3584 3203 3211 
Q 3513 2838 3513 2113 
z
" id="DejaVuSans-6e" transform="scale(0.015625)"/>
      <path d="M 2906 2969 
L 2906 4863 
L 3481 4863 
L 3481 0 
L 2906 0 
L 2906 525 
Q 2725 213 2448 61 
Q 2172 -91 1784 -91 
Q 1150 -91 751 415 
Q 353 922 353 1747 
Q 353 2572 751 3078 
Q 1150 3584 1784 3584 
Q 2172 3584 2448 3432 
Q 2725 3281 2906 2969 
z
M 947 1747 
Q 947 1113 1208 752 
Q 1469 391 1925 391 
Q 2381 391 2643 752 
Q 2906 1113 2906 1747 
Q 2906 2381 2643 2742 
Q 2381 3103 1925 3103 
Q 1469 3103 1208 2742 
Q 947 2381 947 1747 
z
" id="DejaVuSans-64" transform="scale(0.015625)"/>
      <path d="M 3122 3366 
L 3122 2828 
Q 2878 2963 2633 3030 
Q 2388 3097 2138 3097 
Q 1578 3097 1268 2742 
Q 959 2388 959 1747 
Q 959 1106 1268 751 
Q 1578 397 2138 397 
Q 2388 397 2633 464 
Q 2878 531 3122 666 
L 3122 134 
Q 2881 22 2623 -34 
Q 2366 -91 2075 -91 
Q 1284 -91 818 406 
Q 353 903 353 1747 
Q 353 2603 823 3093 
Q 1294 3584 2113 3584 
Q 2378 3584 2631 3529 
Q 2884 3475 3122 3366 
z
" id="DejaVuSans-63" transform="scale(0.015625)"/>
      <path d="M 1159 525 
L 1159 -1331 
L 581 -1331 
L 581 3500 
L 1159 3500 
L 1159 2969 
Q 1341 3281 1617 3432 
Q 1894 3584 2278 3584 
Q 2916 3584 3314 3078 
Q 3713 2572 3713 1747 
Q 3713 922 3314 415 
Q 2916 -91 2278 -91 
Q 1894 -91 1617 61 
Q 1341 213 1159 525 
z
M 3116 1747 
Q 3116 2381 2855 2742 
Q 2594 3103 2138 3103 
Q 1681 3103 1420 2742 
Q 1159 2381 1159 1747 
Q 1159 1113 1420 752 
Q 1681 391 2138 391 
Q 2594 391 2855 752 
Q 3116 1113 3116 1747 
z
" id="DejaVuSans-70" transform="scale(0.015625)"/>
      <path d="M 3597 1894 
L 3597 1613 
L 953 1613 
Q 991 1019 1311 708 
Q 1631 397 2203 397 
Q 2534 397 2845 478 
Q 3156 559 3463 722 
L 3463 178 
Q 3153 47 2828 -22 
Q 2503 -91 2169 -91 
Q 1331 -91 842 396 
Q 353 884 353 1716 
Q 353 2575 817 3079 
Q 1281 3584 2069 3584 
Q 2775 3584 3186 3129 
Q 3597 2675 3597 1894 
z
M 3022 2063 
Q 3016 2534 2758 2815 
Q 2500 3097 2075 3097 
Q 1594 3097 1305 2825 
Q 1016 2553 972 2059 
L 3022 2063 
z
" id="DejaVuSans-65" transform="scale(0.015625)"/>
     </defs>
     <use xlink:href="#DejaVuSans-4c"/>
     <use x="53.962891" xlink:href="#DejaVuSans-6f"/>
     <use x="115.144531" xlink:href="#DejaVuSans-73"/>
     <use x="167.244141" xlink:href="#DejaVuSans-73"/>
     <use x="219.34375" xlink:href="#DejaVuSans-20"/>
     <use x="251.130859" xlink:href="#DejaVuSans-6c"/>
     <use x="278.914062" xlink:href="#DejaVuSans-61"/>
     <use x="340.193359" xlink:href="#DejaVuSans-6e"/>
     <use x="403.572266" xlink:href="#DejaVuSans-64"/>
     <use x="467.048828" xlink:href="#DejaVuSans-73"/>
     <use x="519.148438" xlink:href="#DejaVuSans-63"/>
     <use x="574.128906" xlink:href="#DejaVuSans-61"/>
     <use x="635.408203" xlink:href="#DejaVuSans-70"/>
     <use x="698.884766" xlink:href="#DejaVuSans-65"/>
    </g>
   </g>
  </g>
  <g id="axes_2">
   <g id="patch_7">
    <path d="M 338.58 252 
L 349.452 252 
L 349.452 34.56 
L 338.58 34.56 
z
" style="fill:#ffffff;"/>
   </g>
   <g id="patch_8">
    <path clip-path="url(#p139ac022fa)" d="M 338.58 252 
L 338.58 197.64 
L 338.58 88.92 
L 338.58 34.56 
L 349.452 34.56 
L 349.452 88.92 
L 349.452 197.64 
L 349.452 252 
L 349.452 252 
z
" style="fill:#ffffff;stroke:#ffffff;stroke-linejoin:miter;stroke-width:0.01;"/>
   </g>
   <g id="QuadMesh_1">
    <path clip-path="url(#p139ac022fa)" d="M 338.58 252 
L 349.452 252 
L 349.452 197.64 
L 338.58 197.64 
L 338.58 252 
" style="fill:#3e3eff;fill-opacity:0.3;"/>
    <path clip-path="url(#p139ac022fa)" d="M 338.58 197.64 
L 349.452 197.64 
L 349.452 143.28 
L 338.58 143.28 
L 338.58 197.64 
" style="fill:#bebeff;fill-opacity:0.3;"/>
    <path clip-path="url(#p139ac022fa)" d="M 338.58 143.28 
L 349.452 143.28 
L 349.452 88.92 
L 338.58 88.92 
L 338.58 143.28 
" style="fill:#ffbebe;fill-opacity:0.3;"/>
    <path clip-path="url(#p139ac022fa)" d="M 338.58 88.92 
L 349.452 88.92 
L 349.452 34.56 
L 338.58 34.56 
L 338.58 88.92 
" style="fill:#ff3e3e;fill-opacity:0.3;"/>
   </g>
   <g id="matplotlib.axis_3"/>
   <g id="matplotlib.axis_4"/>
   <g id="LineCollection_10"/>
   <g id="patch_9">
    <path d="M 338.58 252 
L 338.58 197.64 
L 338.58 88.92 
L 338.58 34.56 
L 349.452 34.56 
L 349.452 88.92 
L 349.452 197.64 
L 349.452 252 
z
" style="fill:none;stroke:#000000;stroke-linecap:square;stroke-linejoin:miter;stroke-width:0.8;"/>
   </g>
  </g>
 </g>
 <defs>
  <clipPath id="pad7ba4f148">
   <rect height="217.44" width="267.84" x="54" y="34.56"/>
  </clipPath>
  <clipPath id="p139ac022fa">
   <rect height="217.44" width="10.872" x="338.58" y="34.56"/>
  </clipPath>
 </defs>
</svg>
