<?xml version="1.0" encoding="utf-8"?>
<svg xmlns="http://www.w3.org/2000/svg" xmlns:xlink="http://www.w3.org/1999/xlink" xml:space="preserve" width="1134.6666666667" height="1078.6611111111" viewBox="0 0 1134.6666666667 1078.6611111111"><defs><linearGradient id="pattern-gradient" x1="0%" y1="0%" x2="12%" y2="100%" gradientUnits="userSpaceOnUse"><stop offset="0%" stop-color="#9a2323"/><stop offset="100%" stop-color="#8900D5"/></linearGradient>
<mask id="qrmask"><g fill="#ffffff"><g>
<g transform="translate(431.33333333333,271.33333333333) scale(2.7466666666667)"><path d="M5.4,2.8C4.5,1.1,2.6-0.1,1.2,0c-1.3,0.1-1.6,1.6-0.7,3.2c1,1.7,2.8,2.9,4.2,2.8C6.1,5.9,6.4,4.4,5.4,2.8z"/></g>
<g transform="translate(495.33333333333,271.33333333333) scale(2.7466666666667)"><path d="M6,6H0V2c0-1.1,0.9-2,2-2h4V6z"/></g>
<g transform="translate(511.33333333333,271.33333333333) scale(2.7466666666667)"><rect width="6" height="6"/></g>
<g transform="translate(527.33333333333,271.33333333333) scale(2.7466666666667)"><path d="M6,0.8L6,0.8C6,2.2,1.4,6,0,6l0,0V0h5.2C5.6,0,6,0.4,6,0.8z"/></g>
<g transform="translate(559.33333333333,271.33333333333) scale(2.7466666666667)"><path d="M6,6H0V2c0-1.1,0.9-2,2-2h4V6z"/></g>
<g transform="translate(575.33333333333,271.33333333333) scale(2.7466666666667)"><path d="M6,0.8L6,0.8C6,2.2,1.4,6,0,6l0,0V0h5.2C5.6,0,6,0.4,6,0.8z"/></g>
<g transform="translate(639.33333333333,271.33333333333) scale(2.7466666666667)"><path d="M0,5.2L0,5.2C0,3.8,4.6,0,6,0l0,0v6H0.8C0.4,6,0,5.6,0,5.2z"/></g>
<g transform="translate(655.33333333333,271.33333333333) scale(2.7466666666667)"><path d="M6,0.8L6,0.8C6,2.2,1.4,6,0,6l0,0V0h5.2C5.6,0,6,0.4,6,0.8z"/></g>
<g transform="translate(703.33333333333,271.33333333333) scale(2.7466666666667)"><path d="M6,6H0V2c0-1.1,0.9-2,2-2h4V6z"/></g>
<g transform="translate(719.33333333333,271.33333333333) scale(2.7466666666667)"><path d="M6,0.8L6,0.8C6,2.2,1.4,6,0,6l0,0V0h5.2C5.6,0,6,0.4,6,0.8z"/></g>
<g transform="translate(447.33333333333,287.33333333333) scale(2.7466666666667)"><path d="M0,5.2L0,5.2C0,3.8,4.6,0,6,0l0,0v6H0.8C0.4,6,0,5.6,0,5.2z"/></g>
<g transform="translate(463.33333333333,287.33333333333) scale(2.7466666666667)"><rect width="6" height="6"/></g>
<g transform="translate(479.33333333333,287.33333333333) scale(2.7466666666667)"><rect width="6" height="6"/></g>
<g transform="translate(495.33333333333,287.33333333333) scale(2.7466666666667)"><path d="M0,0h6v4c0,1.1-0.9,2-2,2H0V0z"/></g>
<g transform="translate(559.33333333333,287.33333333333) scale(2.7466666666667)"><path d="M5.2,6L5.2,6C3.8,6,0,1.4,0,0l0,0h6v5.2C6,5.6,5.6,6,5.2,6z"/></g>
<g transform="translate(591.33333333333,287.33333333333) scale(2.7466666666667)"><path d="M6,6H0V2c0-1.1,0.9-2,2-2h4V6z"/></g>
<g transform="translate(607.33333333333,287.33333333333) scale(2.7466666666667)"><path d="M0,6V0h4c1.1,0,2,0.9,2,2v4H0z"/></g>
<g transform="translate(671.33333333333,287.33333333333) scale(2.7466666666667)"><path d="M5.4,2.8C4.5,1.1,2.6-0.1,1.2,0c-1.3,0.1-1.6,1.6-0.7,3.2c1,1.7,2.8,2.9,4.2,2.8C6.1,5.9,6.4,4.4,5.4,2.8z"/></g>
<g transform="translate(703.33333333333,287.33333333333) scale(2.7466666666667)"><path d="M5.2,6L5.2,6C3.8,6,0,1.4,0,0l0,0h6v5.2C6,5.6,5.6,6,5.2,6z"/></g>
<g transform="translate(399.33333333333,303.33333333333) scale(2.7466666666667)"><path d="M6,6H0V2c0-1.1,0.9-2,2-2h4V6z"/></g>
<g transform="translate(415.33333333333,303.33333333333) scale(2.7466666666667)"><rect width="6" height="6"/></g>
<g transform="translate(431.33333333333,303.33333333333) scale(2.7466666666667)"><path d="M0,6V0h4c1.1,0,2,0.9,2,2v4H0z"/></g>
<g transform="translate(463.33333333333,303.33333333333) scale(2.7466666666667)"><path d="M5.2,6L5.2,6C3.8,6,0,1.4,0,0l0,0h6v5.2C6,5.6,5.6,6,5.2,6z"/></g>
<g transform="translate(591.33333333333,303.33333333333) scale(2.7466666666667)"><path d="M6,0v6H2C0.9,6,0,5.1,0,4V0H6z"/></g>
<g transform="translate(607.33333333333,303.33333333333) scale(2.7466666666667)"><rect width="6" height="6"/></g>
<g transform="translate(623.33333333333,303.33333333333) scale(2.7466666666667)"><path d="M6,0.8L6,0.8C6,2.2,1.4,6,0,6l0,0V0h5.2C5.6,0,6,0.4,6,0.8z"/></g>
<g transform="translate(687.33333333333,303.33333333333) scale(2.7466666666667)"><path d="M0.8,0L0.8,0C2.2,0,6,4.6,6,6l0,0H0V0.8C0,0.4,0.4,0,0.8,0z"/></g>
<g transform="translate(719.33333333333,303.33333333333) scale(2.7466666666667)"><path d="M5.4,2.8C4.5,1.1,2.6-0.1,1.2,0c-1.3,0.1-1.6,1.6-0.7,3.2c1,1.7,2.8,2.9,4.2,2.8C6.1,5.9,6.4,4.4,5.4,2.8z"/></g>
<g transform="translate(399.33333333333,319.33333333333) scale(2.7466666666667)"><rect width="6" height="6"/></g>
<g transform="translate(431.33333333333,319.33333333333) scale(2.7466666666667)"><rect width="6" height="6"/></g>
<g transform="translate(447.33333333333,319.33333333333) scale(2.7466666666667)"><path d="M0,6V0h4c1.1,0,2,0.9,2,2v4H0z"/></g>
<g transform="translate(495.33333333333,319.33333333333) scale(2.7466666666667)"><path d="M0.8,0L0.8,0C2.2,0,6,4.6,6,6l0,0H0V0.8C0,0.4,0.4,0,0.8,0z"/></g>
<g transform="translate(543.33333333333,319.33333333333) scale(2.7466666666667)"><path d="M0.8,0L0.8,0C2.2,0,6,4.6,6,6l0,0H0V0.8C0,0.4,0.4,0,0.8,0z"/></g>
<g transform="translate(575.33333333333,319.33333333333) scale(2.7466666666667)"><path d="M0.8,0L0.8,0C2.2,0,6,4.6,6,6l0,0H0V0.8C0,0.4,0.4,0,0.8,0z"/></g>
<g transform="translate(639.33333333333,319.33333333333) scale(2.7466666666667)"><path d="M6,6H0V2c0-1.1,0.9-2,2-2h4V6z"/></g>
<g transform="translate(655.33333333333,319.33333333333) scale(2.7466666666667)"><rect width="6" height="6"/></g>
<g transform="translate(671.33333333333,319.33333333333) scale(2.7466666666667)"><rect width="6" height="6"/></g>
<g transform="translate(687.33333333333,319.33333333333) scale(2.7466666666667)"><path d="M0,0h6v4c0,1.1-0.9,2-2,2H0V0z"/></g>
<g transform="translate(399.33333333333,335.33333333333) scale(2.7466666666667)"><rect width="6" height="6"/></g>
<g transform="translate(431.33333333333,335.33333333333) scale(2.7466666666667)"><rect width="6" height="6"/></g>
<g transform="translate(447.33333333333,335.33333333333) scale(2.7466666666667)"><rect width="6" height="6"/></g>
<g transform="translate(463.33333333333,335.33333333333) scale(2.7466666666667)"><path d="M0,6V0h4c1.1,0,2,0.9,2,2v4H0z"/></g>
<g transform="translate(495.33333333333,335.33333333333) scale(2.7466666666667)"><path d="M6,0v6H2C0.9,6,0,5.1,0,4V0H6z"/></g>
<g transform="translate(511.33333333333,335.33333333333) scale(2.7466666666667)"><rect width="6" height="6"/></g>
<g transform="translate(527.33333333333,335.33333333333) scale(2.7466666666667)"><rect width="6" height="6"/></g>
<g transform="translate(543.33333333333,335.33333333333) scale(2.7466666666667)"><path d="M0,0h6v4c0,1.1-0.9,2-2,2H0V0z"/></g>
<g transform="translate(575.33333333333,335.33333333333) scale(2.7466666666667)"><path d="M6,0v6H2C0.9,6,0,5.1,0,4V0H6z"/></g>
<g transform="translate(591.33333333333,335.33333333333) scale(2.7466666666667)"><path d="M6,0.8L6,0.8C6,2.2,1.4,6,0,6l0,0V0h5.2C5.6,0,6,0.4,6,0.8z"/></g>
<g transform="translate(639.33333333333,335.33333333333) scale(2.7466666666667)"><path d="M5.2,6L5.2,6C3.8,6,0,1.4,0,0l0,0h6v5.2C6,5.6,5.6,6,5.2,6z"/></g>
<g transform="translate(671.33333333333,335.33333333333) scale(2.7466666666667)"><path d="M5.2,6L5.2,6C3.8,6,0,1.4,0,0l0,0h6v5.2C6,5.6,5.6,6,5.2,6z"/></g>
<g transform="translate(719.33333333333,335.33333333333) scale(2.7466666666667)"><path d="M5.4,2.8C4.5,1.1,2.6-0.1,1.2,0c-1.3,0.1-1.6,1.6-0.7,3.2c1,1.7,2.8,2.9,4.2,2.8C6.1,5.9,6.4,4.4,5.4,2.8z"/></g>
<g transform="translate(399.33333333333,351.33333333333) scale(2.7466666666667)"><rect width="6" height="6"/></g>
<g transform="translate(431.33333333333,351.33333333333) scale(2.7466666666667)"><rect width="6" height="6"/></g>
<g transform="translate(447.33333333333,351.33333333333) scale(2.7466666666667)"><rect width="6" height="6"/></g>
<g transform="translate(463.33333333333,351.33333333333) scale(2.7466666666667)"><rect width="6" height="6"/></g>
<g transform="translate(511.33333333333,351.33333333333) scale(2.7466666666667)"><path d="M5.2,6L5.2,6C3.8,6,0,1.4,0,0l0,0h6v5.2C6,5.6,5.6,6,5.2,6z"/></g>
<g transform="translate(607.33333333333,351.33333333333) scale(2.7466666666667)"><path d="M0,5.2L0,5.2C0,3.8,4.6,0,6,0l0,0v6H0.8C0.4,6,0,5.6,0,5.2z"/></g>
<g transform="translate(623.33333333333,351.33333333333) scale(2.7466666666667)"><path d="M0,6V0h4c1.1,0,2,0.9,2,2v4H0z"/></g>
<g transform="translate(687.33333333333,351.33333333333) scale(2.7466666666667)"><path d="M6,6H0V2c0-1.1,0.9-2,2-2h4V6z"/></g>
<g transform="translate(703.33333333333,351.33333333333) scale(2.7466666666667)"><path d="M6,0.8L6,0.8C6,2.2,1.4,6,0,6l0,0V0h5.2C5.6,0,6,0.4,6,0.8z"/></g>
<g transform="translate(399.33333333333,367.33333333333) scale(2.7466666666667)"><rect width="6" height="6"/></g>
<g transform="translate(431.33333333333,367.33333333333) scale(2.7466666666667)"><path d="M5.2,6L5.2,6C3.8,6,0,1.4,0,0l0,0h6v5.2C6,5.6,5.6,6,5.2,6z"/></g>
<g transform="translate(463.33333333333,367.33333333333) scale(2.7466666666667)"><rect width="6" height="6"/></g>
<g transform="translate(495.33333333333,367.33333333333) scale(2.7466666666667)"><path d="M5.4,2.8C4.5,1.1,2.6-0.1,1.2,0c-1.3,0.1-1.6,1.6-0.7,3.2c1,1.7,2.8,2.9,4.2,2.8C6.1,5.9,6.4,4.4,5.4,2.8z"/></g>
<g transform="translate(527.33333333333,367.33333333333) scale(2.7466666666667)"><path d="M0.8,0L0.8,0C2.2,0,6,4.6,6,6l0,0H0V0.8C0,0.4,0.4,0,0.8,0z"/></g>
<g transform="translate(559.33333333333,367.33333333333) scale(2.7466666666667)"><path d="M5.4,2.8C4.5,1.1,2.6-0.1,1.2,0c-1.3,0.1-1.6,1.6-0.7,3.2c1,1.7,2.8,2.9,4.2,2.8C6.1,5.9,6.4,4.4,5.4,2.8z"/></g>
<g transform="translate(591.33333333333,367.33333333333) scale(2.7466666666667)"><path d="M0.8,0L0.8,0C2.2,0,6,4.6,6,6l0,0H0V0.8C0,0.4,0.4,0,0.8,0z"/></g>
<g transform="translate(623.33333333333,367.33333333333) scale(2.7466666666667)"><path d="M5.2,6L5.2,6C3.8,6,0,1.4,0,0l0,0h6v5.2C6,5.6,5.6,6,5.2,6z"/></g>
<g transform="translate(655.33333333333,367.33333333333) scale(2.7466666666667)"><path d="M5.4,2.8C4.5,1.1,2.6-0.1,1.2,0c-1.3,0.1-1.6,1.6-0.7,3.2c1,1.7,2.8,2.9,4.2,2.8C6.1,5.9,6.4,4.4,5.4,2.8z"/></g>
<g transform="translate(687.33333333333,367.33333333333) scale(2.7466666666667)"><rect width="6" height="6"/></g>
<g transform="translate(719.33333333333,367.33333333333) scale(2.7466666666667)"><path d="M0.8,0L0.8,0C2.2,0,6,4.6,6,6l0,0H0V0.8C0,0.4,0.4,0,0.8,0z"/></g>
<g transform="translate(399.33333333333,383.33333333333) scale(2.7466666666667)"><path d="M5.2,6L5.2,6C3.8,6,0,1.4,0,0l0,0h6v5.2C6,5.6,5.6,6,5.2,6z"/></g>
<g transform="translate(447.33333333333,383.33333333333) scale(2.7466666666667)"><path d="M6,6H0V2c0-1.1,0.9-2,2-2h4V6z"/></g>
<g transform="translate(463.33333333333,383.33333333333) scale(2.7466666666667)"><rect width="6" height="6"/></g>
<g transform="translate(479.33333333333,383.33333333333) scale(2.7466666666667)"><path d="M0,6V0h4c1.1,0,2,0.9,2,2v4H0z"/></g>
<g transform="translate(527.33333333333,383.33333333333) scale(2.7466666666667)"><path d="M6,0v6H2C0.9,6,0,5.1,0,4V0H6z"/></g>
<g transform="translate(543.33333333333,383.33333333333) scale(2.7466666666667)"><path d="M6,0.8L6,0.8C6,2.2,1.4,6,0,6l0,0V0h5.2C5.6,0,6,0.4,6,0.8z"/></g>
<g transform="translate(591.33333333333,383.33333333333) scale(2.7466666666667)"><path d="M6,0v6H2C0.9,6,0,5.1,0,4V0H6z"/></g>
<g transform="translate(607.33333333333,383.33333333333) scale(2.7466666666667)"><path d="M6,0.8L6,0.8C6,2.2,1.4,6,0,6l0,0V0h5.2C5.6,0,6,0.4,6,0.8z"/></g>
<g transform="translate(639.33333333333,383.33333333333) scale(2.7466666666667)"><path d="M5.4,2.8C4.5,1.1,2.6-0.1,1.2,0c-1.3,0.1-1.6,1.6-0.7,3.2c1,1.7,2.8,2.9,4.2,2.8C6.1,5.9,6.4,4.4,5.4,2.8z"/></g>
<g transform="translate(671.33333333333,383.33333333333) scale(2.7466666666667)"><path d="M0,5.2L0,5.2C0,3.8,4.6,0,6,0l0,0v6H0.8C0.4,6,0,5.6,0,5.2z"/></g>
<g transform="translate(687.33333333333,383.33333333333) scale(2.7466666666667)"><rect width="6" height="6"/></g>
<g transform="translate(719.33333333333,383.33333333333) scale(2.7466666666667)"><path d="M5.2,6L5.2,6C3.8,6,0,1.4,0,0l0,0h6v5.2C6,5.6,5.6,6,5.2,6z"/></g>
<g transform="translate(271.33333333333,399.33333333333) scale(2.7466666666667)"><path d="M5.4,2.8C4.5,1.1,2.6-0.1,1.2,0c-1.3,0.1-1.6,1.6-0.7,3.2c1,1.7,2.8,2.9,4.2,2.8C6.1,5.9,6.4,4.4,5.4,2.8z"/></g>
<g transform="translate(303.33333333333,399.33333333333) scale(2.7466666666667)"><path d="M0,5.2L0,5.2C0,3.8,4.6,0,6,0l0,0v6H0.8C0.4,6,0,5.6,0,5.2z"/></g>
<g transform="translate(319.33333333333,399.33333333333) scale(2.7466666666667)"><rect width="6" height="6"/></g>
<g transform="translate(335.33333333333,399.33333333333) scale(2.7466666666667)"><rect width="6" height="6"/></g>
<g transform="translate(351.33333333333,399.33333333333) scale(2.7466666666667)"><rect width="6" height="6"/></g>
<g transform="translate(367.33333333333,399.33333333333) scale(2.7466666666667)"><path d="M6,0.8L6,0.8C6,2.2,1.4,6,0,6l0,0V0h5.2C5.6,0,6,0.4,6,0.8z"/></g>
<g transform="translate(415.33333333333,399.33333333333) scale(2.7466666666667)"><path d="M0.8,0L0.8,0C2.2,0,6,4.6,6,6l0,0H0V0.8C0,0.4,0.4,0,0.8,0z"/></g>
<g transform="translate(447.33333333333,399.33333333333) scale(2.7466666666667)"><path d="M5.2,6L5.2,6C3.8,6,0,1.4,0,0l0,0h6v5.2C6,5.6,5.6,6,5.2,6z"/></g>
<g transform="translate(479.33333333333,399.33333333333) scale(2.7466666666667)"><path d="M6,0v6H2C0.9,6,0,5.1,0,4V0H6z"/></g>
<g transform="translate(495.33333333333,399.33333333333) scale(2.7466666666667)"><rect width="6" height="6"/></g>
<g transform="translate(511.33333333333,399.33333333333) scale(2.7466666666667)"><path d="M0,6V0h4c1.1,0,2,0.9,2,2v4H0z"/></g>
<g transform="translate(623.33333333333,399.33333333333) scale(2.7466666666667)"><path d="M5.4,2.8C4.5,1.1,2.6-0.1,1.2,0c-1.3,0.1-1.6,1.6-0.7,3.2c1,1.7,2.8,2.9,4.2,2.8C6.1,5.9,6.4,4.4,5.4,2.8z"/></g>
<g transform="translate(655.33333333333,399.33333333333) scale(2.7466666666667)"><path d="M0.8,0L0.8,0C2.2,0,6,4.6,6,6l0,0H0V0.8C0,0.4,0.4,0,0.8,0z"/></g>
<g transform="translate(687.33333333333,399.33333333333) scale(2.7466666666667)"><path d="M5.2,6L5.2,6C3.8,6,0,1.4,0,0l0,0h6v5.2C6,5.6,5.6,6,5.2,6z"/></g>
<g transform="translate(751.33333333333,399.33333333333) scale(2.7466666666667)"><path d="M0,5.2L0,5.2C0,3.8,4.6,0,6,0l0,0v6H0.8C0.4,6,0,5.6,0,5.2z"/></g>
<g transform="translate(767.33333333333,399.33333333333) scale(2.7466666666667)"><rect width="6" height="6"/></g>
<g transform="translate(783.33333333333,399.33333333333) scale(2.7466666666667)"><rect width="6" height="6"/></g>
<g transform="translate(799.33333333333,399.33333333333) scale(2.7466666666667)"><rect width="6" height="6"/></g>
<g transform="translate(815.33333333333,399.33333333333) scale(2.7466666666667)"><path d="M6,0.8L6,0.8C6,2.2,1.4,6,0,6l0,0V0h5.2C5.6,0,6,0.4,6,0.8z"/></g>
<g transform="translate(319.33333333333,415.33333333333) scale(2.7466666666667)"><path d="M6,0v6H2C0.9,6,0,5.1,0,4V0H6z"/></g>
<g transform="translate(335.33333333333,415.33333333333) scale(2.7466666666667)"><rect width="6" height="6"/></g>
<g transform="translate(351.33333333333,415.33333333333) scale(2.7466666666667)"><rect width="6" height="6"/></g>
<g transform="translate(399.33333333333,415.33333333333) scale(2.7466666666667)"><path d="M0,5.2L0,5.2C0,3.8,4.6,0,6,0l0,0v6H0.8C0.4,6,0,5.6,0,5.2z"/></g>
<g transform="translate(415.33333333333,415.33333333333) scale(2.7466666666667)"><rect width="6" height="6"/></g>
<g transform="translate(431.33333333333,415.33333333333) scale(2.7466666666667)"><path d="M0,6V0h4c1.1,0,2,0.9,2,2v4H0z"/></g>
<g transform="translate(463.33333333333,415.33333333333) scale(2.7466666666667)"><path d="M5.4,2.8C4.5,1.1,2.6-0.1,1.2,0c-1.3,0.1-1.6,1.6-0.7,3.2c1,1.7,2.8,2.9,4.2,2.8C6.1,5.9,6.4,4.4,5.4,2.8z"/></g>
<g transform="translate(511.33333333333,415.33333333333) scale(2.7466666666667)"><path d="M6,0v6H2C0.9,6,0,5.1,0,4V0H6z"/></g>
<g transform="translate(527.33333333333,415.33333333333) scale(2.7466666666667)"><path d="M6,0.8L6,0.8C6,2.2,1.4,6,0,6l0,0V0h5.2C5.6,0,6,0.4,6,0.8z"/></g>
<g transform="translate(559.33333333333,415.33333333333) scale(2.7466666666667)"><path d="M0,5.2L0,5.2C0,3.8,4.6,0,6,0l0,0v6H0.8C0.4,6,0,5.6,0,5.2z"/></g>
<g transform="translate(575.33333333333,415.33333333333) scale(2.7466666666667)"><rect width="6" height="6"/></g>
<g transform="translate(591.33333333333,415.33333333333) scale(2.7466666666667)"><path d="M6,0.8L6,0.8C6,2.2,1.4,6,0,6l0,0V0h5.2C5.6,0,6,0.4,6,0.8z"/></g>
<g transform="translate(655.33333333333,415.33333333333) scale(2.7466666666667)"><rect width="6" height="6"/></g>
<g transform="translate(671.33333333333,415.33333333333) scale(2.7466666666667)"><path d="M0,6V0h4c1.1,0,2,0.9,2,2v4H0z"/></g>
<g transform="translate(783.33333333333,415.33333333333) scale(2.7466666666667)"><path d="M6,0v6H2C0.9,6,0,5.1,0,4V0H6z"/></g>
<g transform="translate(799.33333333333,415.33333333333) scale(2.7466666666667)"><rect width="6" height="6"/></g>
<g transform="translate(831.33333333333,415.33333333333) scale(2.7466666666667)"><path d="M0.8,0L0.8,0C2.2,0,6,4.6,6,6l0,0H0V0.8C0,0.4,0.4,0,0.8,0z"/></g>
<g transform="translate(351.33333333333,431.33333333333) scale(2.7466666666667)"><rect width="6" height="6"/></g>
<g transform="translate(367.33333333333,431.33333333333) scale(2.7466666666667)"><path d="M6,0.8L6,0.8C6,2.2,1.4,6,0,6l0,0V0h5.2C5.6,0,6,0.4,6,0.8z"/></g>
<g transform="translate(431.33333333333,431.33333333333) scale(2.7466666666667)"><path d="M5.2,6L5.2,6C3.8,6,0,1.4,0,0l0,0h6v5.2C6,5.6,5.6,6,5.2,6z"/></g>
<g transform="translate(479.33333333333,431.33333333333) scale(2.7466666666667)"><path d="M0,5.2L0,5.2C0,3.8,4.6,0,6,0l0,0v6H0.8C0.4,6,0,5.6,0,5.2z"/></g>
<g transform="translate(495.33333333333,431.33333333333) scale(2.7466666666667)"><path d="M0,6V0h4c1.1,0,2,0.9,2,2v4H0z"/></g>
<g transform="translate(575.33333333333,431.33333333333) scale(2.7466666666667)"><path d="M5.2,6L5.2,6C3.8,6,0,1.4,0,0l0,0h6v5.2C6,5.6,5.6,6,5.2,6z"/></g>
<g transform="translate(623.33333333333,431.33333333333) scale(2.7466666666667)"><path d="M6,6H0V2c0-1.1,0.9-2,2-2h4V6z"/></g>
<g transform="translate(639.33333333333,431.33333333333) scale(2.7466666666667)"><rect width="6" height="6"/></g>
<g transform="translate(655.33333333333,431.33333333333) scale(2.7466666666667)"><rect width="6" height="6"/></g>
<g transform="translate(671.33333333333,431.33333333333) scale(2.7466666666667)"><rect width="6" height="6"/></g>
<g transform="translate(687.33333333333,431.33333333333) scale(2.7466666666667)"><rect width="6" height="6"/></g>
<g transform="translate(703.33333333333,431.33333333333) scale(2.7466666666667)"><path d="M0,6V0h4c1.1,0,2,0.9,2,2v4H0z"/></g>
<g transform="translate(735.33333333333,431.33333333333) scale(2.7466666666667)"><path d="M6,6H0V2c0-1.1,0.9-2,2-2h4V6z"/></g>
<g transform="translate(751.33333333333,431.33333333333) scale(2.7466666666667)"><path d="M6,0.8L6,0.8C6,2.2,1.4,6,0,6l0,0V0h5.2C5.6,0,6,0.4,6,0.8z"/></g>
<g transform="translate(799.33333333333,431.33333333333) scale(2.7466666666667)"><path d="M6,0v6H2C0.9,6,0,5.1,0,4V0H6z"/></g>
<g transform="translate(815.33333333333,431.33333333333) scale(2.7466666666667)"><rect width="6" height="6"/></g>
<g transform="translate(831.33333333333,431.33333333333) scale(2.7466666666667)"><rect width="6" height="6"/></g>
<g transform="translate(847.33333333333,431.33333333333) scale(2.7466666666667)"><path d="M0,6V0h4c1.1,0,2,0.9,2,2v4H0z"/></g>
<g transform="translate(271.33333333333,447.33333333333) scale(2.7466666666667)"><path d="M0,5.2L0,5.2C0,3.8,4.6,0,6,0l0,0v6H0.8C0.4,6,0,5.6,0,5.2z"/></g>
<g transform="translate(287.33333333333,447.33333333333) scale(2.7466666666667)"><rect width="6" height="6"/></g>
<g transform="translate(303.33333333333,447.33333333333) scale(2.7466666666667)"><path d="M0,6V0h4c1.1,0,2,0.9,2,2v4H0z"/></g>
<g transform="translate(351.33333333333,447.33333333333) scale(2.7466666666667)"><path d="M5.2,6L5.2,6C3.8,6,0,1.4,0,0l0,0h6v5.2C6,5.6,5.6,6,5.2,6z"/></g>
<g transform="translate(415.33333333333,447.33333333333) scale(2.7466666666667)"><path d="M5.4,2.8C4.5,1.1,2.6-0.1,1.2,0c-1.3,0.1-1.6,1.6-0.7,3.2c1,1.7,2.8,2.9,4.2,2.8C6.1,5.9,6.4,4.4,5.4,2.8z"/></g>
<g transform="translate(495.33333333333,447.33333333333) scale(2.7466666666667)"><rect width="6" height="6"/></g>
<g transform="translate(527.33333333333,447.33333333333) scale(2.7466666666667)"><path d="M5.4,2.8C4.5,1.1,2.6-0.1,1.2,0c-1.3,0.1-1.6,1.6-0.7,3.2c1,1.7,2.8,2.9,4.2,2.8C6.1,5.9,6.4,4.4,5.4,2.8z"/></g>
<g transform="translate(559.33333333333,447.33333333333) scale(2.7466666666667)"><path d="M5.4,2.8C4.5,1.1,2.6-0.1,1.2,0c-1.3,0.1-1.6,1.6-0.7,3.2c1,1.7,2.8,2.9,4.2,2.8C6.1,5.9,6.4,4.4,5.4,2.8z"/></g>
<g transform="translate(591.33333333333,447.33333333333) scale(2.7466666666667)"><path d="M6,6H0V2c0-1.1,0.9-2,2-2h4V6z"/></g>
<g transform="translate(607.33333333333,447.33333333333) scale(2.7466666666667)"><rect width="6" height="6"/></g>
<g transform="translate(623.33333333333,447.33333333333) scale(2.7466666666667)"><rect width="6" height="6"/></g>
<g transform="translate(687.33333333333,447.33333333333) scale(2.7466666666667)"><rect width="6" height="6"/></g>
<g transform="translate(703.33333333333,447.33333333333) scale(2.7466666666667)"><rect width="6" height="6"/></g>
<g transform="translate(719.33333333333,447.33333333333) scale(2.7466666666667)"><rect width="6" height="6"/></g>
<g transform="translate(735.33333333333,447.33333333333) scale(2.7466666666667)"><rect width="6" height="6"/></g>
<g transform="translate(767.33333333333,447.33333333333) scale(2.7466666666667)"><path d="M0,5.2L0,5.2C0,3.8,4.6,0,6,0l0,0v6H0.8C0.4,6,0,5.6,0,5.2z"/></g>
<g transform="translate(783.33333333333,447.33333333333) scale(2.7466666666667)"><path d="M0,6V0h4c1.1,0,2,0.9,2,2v4H0z"/></g>
<g transform="translate(847.33333333333,447.33333333333) scale(2.7466666666667)"><rect width="6" height="6"/></g>
<g transform="translate(287.33333333333,463.33333333333) scale(2.7466666666667)"><path d="M6,0v6H2C0.9,6,0,5.1,0,4V0H6z"/></g>
<g transform="translate(303.33333333333,463.33333333333) scale(2.7466666666667)"><path d="M0,0h6v4c0,1.1-0.9,2-2,2H0V0z"/></g>
<g transform="translate(367.33333333333,463.33333333333) scale(2.7466666666667)"><path d="M0,5.2L0,5.2C0,3.8,4.6,0,6,0l0,0v6H0.8C0.4,6,0,5.6,0,5.2z"/></g>
<g transform="translate(383.33333333333,463.33333333333) scale(2.7466666666667)"><rect width="6" height="6"/></g>
<g transform="translate(399.33333333333,463.33333333333) scale(2.7466666666667)"><path d="M6,0.8L6,0.8C6,2.2,1.4,6,0,6l0,0V0h5.2C5.6,0,6,0.4,6,0.8z"/></g>
<g transform="translate(431.33333333333,463.33333333333) scale(2.7466666666667)"><path d="M5.4,2.8C4.5,1.1,2.6-0.1,1.2,0c-1.3,0.1-1.6,1.6-0.7,3.2c1,1.7,2.8,2.9,4.2,2.8C6.1,5.9,6.4,4.4,5.4,2.8z"/></g>
<g transform="translate(463.33333333333,463.33333333333) scale(2.7466666666667)"><path d="M5.4,2.8C4.5,1.1,2.6-0.1,1.2,0c-1.3,0.1-1.6,1.6-0.7,3.2c1,1.7,2.8,2.9,4.2,2.8C6.1,5.9,6.4,4.4,5.4,2.8z"/></g>
<g transform="translate(495.33333333333,463.33333333333) scale(2.7466666666667)"><rect width="6" height="6"/></g>
<g transform="translate(543.33333333333,463.33333333333) scale(2.7466666666667)"><path d="M0.8,0L0.8,0C2.2,0,6,4.6,6,6l0,0H0V0.8C0,0.4,0.4,0,0.8,0z"/></g>
<g transform="translate(575.33333333333,463.33333333333) scale(2.7466666666667)"><path d="M6,6H0V2c0-1.1,0.9-2,2-2h4V6z"/></g>
<g transform="translate(591.33333333333,463.33333333333) scale(2.7466666666667)"><rect width="6" height="6"/></g>
<g transform="translate(607.33333333333,463.33333333333) scale(2.7466666666667)"><rect width="6" height="6"/></g>
<g transform="translate(623.33333333333,463.33333333333) scale(2.7466666666667)"><rect width="6" height="6"/></g>
<g transform="translate(639.33333333333,463.33333333333) scale(2.7466666666667)"><path d="M0,6V0h4c1.1,0,2,0.9,2,2v4H0z"/></g>
<g transform="translate(671.33333333333,463.33333333333) scale(2.7466666666667)"><path d="M6,6H0V2c0-1.1,0.9-2,2-2h4V6z"/></g>
<g transform="translate(687.33333333333,463.33333333333) scale(2.7466666666667)"><path d="M0,0h6v4c0,1.1-0.9,2-2,2H0V0z"/></g>
<g transform="translate(735.33333333333,463.33333333333) scale(2.7466666666667)"><path d="M6,0v6H2C0.9,6,0,5.1,0,4V0H6z"/></g>
<g transform="translate(751.33333333333,463.33333333333) scale(2.7466666666667)"><path d="M6,0.8L6,0.8C6,2.2,1.4,6,0,6l0,0V0h5.2C5.6,0,6,0.4,6,0.8z"/></g>
<g transform="translate(783.33333333333,463.33333333333) scale(2.7466666666667)"><path d="M5.2,6L5.2,6C3.8,6,0,1.4,0,0l0,0h6v5.2C6,5.6,5.6,6,5.2,6z"/></g>
<g transform="translate(815.33333333333,463.33333333333) scale(2.7466666666667)"><path d="M0,5.2L0,5.2C0,3.8,4.6,0,6,0l0,0v6H0.8C0.4,6,0,5.6,0,5.2z"/></g>
<g transform="translate(831.33333333333,463.33333333333) scale(2.7466666666667)"><rect width="6" height="6"/></g>
<g transform="translate(847.33333333333,463.33333333333) scale(2.7466666666667)"><rect width="6" height="6"/></g>
<g transform="translate(351.33333333333,479.33333333333) scale(2.7466666666667)"><path d="M5.4,2.8C4.5,1.1,2.6-0.1,1.2,0c-1.3,0.1-1.6,1.6-0.7,3.2c1,1.7,2.8,2.9,4.2,2.8C6.1,5.9,6.4,4.4,5.4,2.8z"/></g>
<g transform="translate(479.33333333333,479.33333333333) scale(2.7466666666667)"><path d="M0,5.2L0,5.2C0,3.8,4.6,0,6,0l0,0v6H0.8C0.4,6,0,5.6,0,5.2z"/></g>
<g transform="translate(495.33333333333,479.33333333333) scale(2.7466666666667)"><rect width="6" height="6"/></g>
<g transform="translate(511.33333333333,479.33333333333) scale(2.7466666666667)"><path d="M0,6V0h4c1.1,0,2,0.9,2,2v4H0z"/></g>
<g transform="translate(543.33333333333,479.33333333333) scale(2.7466666666667)"><path d="M6,0v6H2C0.9,6,0,5.1,0,4V0H6z"/></g>
<g transform="translate(559.33333333333,479.33333333333) scale(2.7466666666667)"><rect width="6" height="6"/></g>
<g transform="translate(575.33333333333,479.33333333333) scale(2.7466666666667)"><rect width="6" height="6"/></g>
<g transform="translate(591.33333333333,479.33333333333) scale(2.7466666666667)"><path d="M0,0h6v4c0,1.1-0.9,2-2,2H0V0z"/></g>
<g transform="translate(623.33333333333,479.33333333333) scale(2.7466666666667)"><rect width="6" height="6"/></g>
<g transform="translate(639.33333333333,479.33333333333) scale(2.7466666666667)"><path d="M0,0h6v4c0,1.1-0.9,2-2,2H0V0z"/></g>
<g transform="translate(671.33333333333,479.33333333333) scale(2.7466666666667)"><path d="M5.2,6L5.2,6C3.8,6,0,1.4,0,0l0,0h6v5.2C6,5.6,5.6,6,5.2,6z"/></g>
<g transform="translate(767.33333333333,479.33333333333) scale(2.7466666666667)"><path d="M0.8,0L0.8,0C2.2,0,6,4.6,6,6l0,0H0V0.8C0,0.4,0.4,0,0.8,0z"/></g>
<g transform="translate(847.33333333333,479.33333333333) scale(2.7466666666667)"><rect width="6" height="6"/></g>
<g transform="translate(287.33333333333,495.33333333333) scale(2.7466666666667)"><path d="M0,5.2L0,5.2C0,3.8,4.6,0,6,0l0,0v6H0.8C0.4,6,0,5.6,0,5.2z"/></g>
<g transform="translate(303.33333333333,495.33333333333) scale(2.7466666666667)"><rect width="6" height="6"/></g>
<g transform="translate(319.33333333333,495.33333333333) scale(2.7466666666667)"><rect width="6" height="6"/></g>
<g transform="translate(335.33333333333,495.33333333333) scale(2.7466666666667)"><path d="M6,0.8L6,0.8C6,2.2,1.4,6,0,6l0,0V0h5.2C5.6,0,6,0.4,6,0.8z"/></g>
<g transform="translate(367.33333333333,495.33333333333) scale(2.7466666666667)"><path d="M0,5.2L0,5.2C0,3.8,4.6,0,6,0l0,0v6H0.8C0.4,6,0,5.6,0,5.2z"/></g>
<g transform="translate(383.33333333333,495.33333333333) scale(2.7466666666667)"><path d="M0,6V0h4c1.1,0,2,0.9,2,2v4H0z"/></g>
<g transform="translate(415.33333333333,495.33333333333) scale(2.7466666666667)"><path d="M5.4,2.8C4.5,1.1,2.6-0.1,1.2,0c-1.3,0.1-1.6,1.6-0.7,3.2c1,1.7,2.8,2.9,4.2,2.8C6.1,5.9,6.4,4.4,5.4,2.8z"/></g>
<g transform="translate(447.33333333333,495.33333333333) scale(2.7466666666667)"><path d="M0.8,0L0.8,0C2.2,0,6,4.6,6,6l0,0H0V0.8C0,0.4,0.4,0,0.8,0z"/></g>
<g transform="translate(495.33333333333,495.33333333333) scale(2.7466666666667)"><rect width="6" height="6"/></g>
<g transform="translate(511.33333333333,495.33333333333) scale(2.7466666666667)"><rect width="6" height="6"/></g>
<g transform="translate(527.33333333333,495.33333333333) scale(2.7466666666667)"><path d="M0,6V0h4c1.1,0,2,0.9,2,2v4H0z"/></g>
<g transform="translate(607.33333333333,495.33333333333) scale(2.7466666666667)"><path d="M6,6H0V2c0-1.1,0.9-2,2-2h4V6z"/></g>
<g transform="translate(623.33333333333,495.33333333333) scale(2.7466666666667)"><path d="M0,0h6v4c0,1.1-0.9,2-2,2H0V0z"/></g>
<g transform="translate(655.33333333333,495.33333333333) scale(2.7466666666667)"><path d="M5.4,2.8C4.5,1.1,2.6-0.1,1.2,0c-1.3,0.1-1.6,1.6-0.7,3.2c1,1.7,2.8,2.9,4.2,2.8C6.1,5.9,6.4,4.4,5.4,2.8z"/></g>
<g transform="translate(687.33333333333,495.33333333333) scale(2.7466666666667)"><path d="M6,6H0V2c0-1.1,0.9-2,2-2h4V6z"/></g>
<g transform="translate(703.33333333333,495.33333333333) scale(2.7466666666667)"><path d="M6,0.8L6,0.8C6,2.2,1.4,6,0,6l0,0V0h5.2C5.6,0,6,0.4,6,0.8z"/></g>
<g transform="translate(735.33333333333,495.33333333333) scale(2.7466666666667)"><path d="M5.4,2.8C4.5,1.1,2.6-0.1,1.2,0c-1.3,0.1-1.6,1.6-0.7,3.2c1,1.7,2.8,2.9,4.2,2.8C6.1,5.9,6.4,4.4,5.4,2.8z"/></g>
<g transform="translate(767.33333333333,495.33333333333) scale(2.7466666666667)"><rect width="6" height="6"/></g>
<g transform="translate(783.33333333333,495.33333333333) scale(2.7466666666667)"><rect width="6" height="6"/></g>
<g transform="translate(799.33333333333,495.33333333333) scale(2.7466666666667)"><path d="M6,0.8L6,0.8C6,2.2,1.4,6,0,6l0,0V0h5.2C5.6,0,6,0.4,6,0.8z"/></g>
<g transform="translate(847.33333333333,495.33333333333) scale(2.7466666666667)"><rect width="6" height="6"/></g>
<g transform="translate(303.33333333333,511.33333333333) scale(2.7466666666667)"><path d="M6,0v6H2C0.9,6,0,5.1,0,4V0H6z"/></g>
<g transform="translate(319.33333333333,511.33333333333) scale(2.7466666666667)"><path d="M0,0h6v4c0,1.1-0.9,2-2,2H0V0z"/></g>
<g transform="translate(383.33333333333,511.33333333333) scale(2.7466666666667)"><rect width="6" height="6"/></g>
<g transform="translate(399.33333333333,511.33333333333) scale(2.7466666666667)"><path d="M0,6V0h4c1.1,0,2,0.9,2,2v4H0z"/></g>
<g transform="translate(431.33333333333,511.33333333333) scale(2.7466666666667)"><path d="M6,6H0V2c0-1.1,0.9-2,2-2h4V6z"/></g>
<g transform="translate(447.33333333333,511.33333333333) scale(2.7466666666667)"><path d="M0,0h6v4c0,1.1-0.9,2-2,2H0V0z"/></g>
<g transform="translate(495.33333333333,511.33333333333) scale(2.7466666666667)"><path d="M5.2,6L5.2,6C3.8,6,0,1.4,0,0l0,0h6v5.2C6,5.6,5.6,6,5.2,6z"/></g>
<g transform="translate(527.33333333333,511.33333333333) scale(2.7466666666667)"><rect width="6" height="6"/></g>
<g transform="translate(543.33333333333,511.33333333333) scale(2.7466666666667)"><rect width="6" height="6"/></g>
<g transform="translate(559.33333333333,511.33333333333) scale(2.7466666666667)"><rect width="6" height="6"/></g>
<g transform="translate(575.33333333333,511.33333333333) scale(2.7466666666667)"><rect width="6" height="6"/></g>
<g transform="translate(591.33333333333,511.33333333333) scale(2.7466666666667)"><rect width="6" height="6"/></g>
<g transform="translate(607.33333333333,511.33333333333) scale(2.7466666666667)"><path d="M0,0h6v4c0,1.1-0.9,2-2,2H0V0z"/></g>
<g transform="translate(687.33333333333,511.33333333333) scale(2.7466666666667)"><path d="M5.2,6L5.2,6C3.8,6,0,1.4,0,0l0,0h6v5.2C6,5.6,5.6,6,5.2,6z"/></g>
<g transform="translate(751.33333333333,511.33333333333) scale(2.7466666666667)"><path d="M0,5.2L0,5.2C0,3.8,4.6,0,6,0l0,0v6H0.8C0.4,6,0,5.6,0,5.2z"/></g>
<g transform="translate(767.33333333333,511.33333333333) scale(2.7466666666667)"><rect width="6" height="6"/></g>
<g transform="translate(783.33333333333,511.33333333333) scale(2.7466666666667)"><path d="M0,0h6v4c0,1.1-0.9,2-2,2H0V0z"/></g>
<g transform="translate(847.33333333333,511.33333333333) scale(2.7466666666667)"><path d="M5.2,6L5.2,6C3.8,6,0,1.4,0,0l0,0h6v5.2C6,5.6,5.6,6,5.2,6z"/></g>
<g transform="translate(287.33333333333,527.33333333333) scale(2.7466666666667)"><path d="M0.8,0L0.8,0C2.2,0,6,4.6,6,6l0,0H0V0.8C0,0.4,0.4,0,0.8,0z"/></g>
<g transform="translate(351.33333333333,527.33333333333) scale(2.7466666666667)"><path d="M6,6H0V2c0-1.1,0.9-2,2-2h4V6z"/></g>
<g transform="translate(367.33333333333,527.33333333333) scale(2.7466666666667)"><rect width="6" height="6"/></g>
<g transform="translate(383.33333333333,527.33333333333) scale(2.7466666666667)"><rect width="6" height="6"/></g>
<g transform="translate(399.33333333333,527.33333333333) scale(2.7466666666667)"><rect width="6" height="6"/></g>
<g transform="translate(415.33333333333,527.33333333333) scale(2.7466666666667)"><rect width="6" height="6"/></g>
<g transform="translate(431.33333333333,527.33333333333) scale(2.7466666666667)"><rect width="6" height="6"/></g>
<g transform="translate(463.33333333333,527.33333333333) scale(2.7466666666667)"><path d="M0.8,0L0.8,0C2.2,0,6,4.6,6,6l0,0H0V0.8C0,0.4,0.4,0,0.8,0z"/></g>
<g transform="translate(511.33333333333,527.33333333333) scale(2.7466666666667)"><path d="M6,6H0V2c0-1.1,0.9-2,2-2h4V6z"/></g>
<g transform="translate(527.33333333333,527.33333333333) scale(2.7466666666667)"><rect width="6" height="6"/></g>
<g transform="translate(543.33333333333,527.33333333333) scale(2.7466666666667)"><rect width="6" height="6"/></g>
<g transform="translate(575.33333333333,527.33333333333) scale(2.7466666666667)"><rect width="6" height="6"/></g>
<g transform="translate(655.33333333333,527.33333333333) scale(2.7466666666667)"><path d="M6,6H0V2c0-1.1,0.9-2,2-2h4V6z"/></g>
<g transform="translate(671.33333333333,527.33333333333) scale(2.7466666666667)"><path d="M0,6V0h4c1.1,0,2,0.9,2,2v4H0z"/></g>
<g transform="translate(703.33333333333,527.33333333333) scale(2.7466666666667)"><path d="M5.4,2.8C4.5,1.1,2.6-0.1,1.2,0c-1.3,0.1-1.6,1.6-0.7,3.2c1,1.7,2.8,2.9,4.2,2.8C6.1,5.9,6.4,4.4,5.4,2.8z"/></g>
<g transform="translate(815.33333333333,527.33333333333) scale(2.7466666666667)"><path d="M5.4,2.8C4.5,1.1,2.6-0.1,1.2,0c-1.3,0.1-1.6,1.6-0.7,3.2c1,1.7,2.8,2.9,4.2,2.8C6.1,5.9,6.4,4.4,5.4,2.8z"/></g>
<g transform="translate(287.33333333333,543.33333333333) scale(2.7466666666667)"><rect width="6" height="6"/></g>
<g transform="translate(351.33333333333,543.33333333333) scale(2.7466666666667)"><path d="M5.2,6L5.2,6C3.8,6,0,1.4,0,0l0,0h6v5.2C6,5.6,5.6,6,5.2,6z"/></g>
<g transform="translate(383.33333333333,543.33333333333) scale(2.7466666666667)"><path d="M5.2,6L5.2,6C3.8,6,0,1.4,0,0l0,0h6v5.2C6,5.6,5.6,6,5.2,6z"/></g>
<g transform="translate(415.33333333333,543.33333333333) scale(2.7466666666667)"><path d="M6,0v6H2C0.9,6,0,5.1,0,4V0H6z"/></g>
<g transform="translate(431.33333333333,543.33333333333) scale(2.7466666666667)"><path d="M0,0h6v4c0,1.1-0.9,2-2,2H0V0z"/></g>
<g transform="translate(463.33333333333,543.33333333333) scale(2.7466666666667)"><path d="M5.2,6L5.2,6C3.8,6,0,1.4,0,0l0,0h6v5.2C6,5.6,5.6,6,5.2,6z"/></g>
<g transform="translate(511.33333333333,543.33333333333) scale(2.7466666666667)"><rect width="6" height="6"/></g>
<g transform="translate(543.33333333333,543.33333333333) scale(2.7466666666667)"><path d="M6,0v6H2C0.9,6,0,5.1,0,4V0H6z"/></g>
<g transform="translate(559.33333333333,543.33333333333) scale(2.7466666666667)"><rect width="6" height="6"/></g>
<g transform="translate(575.33333333333,543.33333333333) scale(2.7466666666667)"><path d="M0,0h6v4c0,1.1-0.9,2-2,2H0V0z"/></g>
<g transform="translate(607.33333333333,543.33333333333) scale(2.7466666666667)"><path d="M0.8,0L0.8,0C2.2,0,6,4.6,6,6l0,0H0V0.8C0,0.4,0.4,0,0.8,0z"/></g>
<g transform="translate(639.33333333333,543.33333333333) scale(2.7466666666667)"><path d="M6,6H0V2c0-1.1,0.9-2,2-2h4V6z"/></g>
<g transform="translate(655.33333333333,543.33333333333) scale(2.7466666666667)"><rect width="6" height="6"/></g>
<g transform="translate(671.33333333333,543.33333333333) scale(2.7466666666667)"><path d="M0,0h6v4c0,1.1-0.9,2-2,2H0V0z"/></g>
<g transform="translate(783.33333333333,543.33333333333) scale(2.7466666666667)"><path d="M0,5.2L0,5.2C0,3.8,4.6,0,6,0l0,0v6H0.8C0.4,6,0,5.6,0,5.2z"/></g>
<g transform="translate(799.33333333333,543.33333333333) scale(2.7466666666667)"><path d="M6,0.8L6,0.8C6,2.2,1.4,6,0,6l0,0V0h5.2C5.6,0,6,0.4,6,0.8z"/></g>
<g transform="translate(831.33333333333,543.33333333333) scale(2.7466666666667)"><path d="M0.8,0L0.8,0C2.2,0,6,4.6,6,6l0,0H0V0.8C0,0.4,0.4,0,0.8,0z"/></g>
<g transform="translate(287.33333333333,559.33333333333) scale(2.7466666666667)"><rect width="6" height="6"/></g>
<g transform="translate(303.33333333333,559.33333333333) scale(2.7466666666667)"><path d="M0,6V0h4c1.1,0,2,0.9,2,2v4H0z"/></g>
<g transform="translate(335.33333333333,559.33333333333) scale(2.7466666666667)"><path d="M0.8,0L0.8,0C2.2,0,6,4.6,6,6l0,0H0V0.8C0,0.4,0.4,0,0.8,0z"/></g>
<g transform="translate(367.33333333333,559.33333333333) scale(2.7466666666667)"><path d="M5.4,2.8C4.5,1.1,2.6-0.1,1.2,0c-1.3,0.1-1.6,1.6-0.7,3.2c1,1.7,2.8,2.9,4.2,2.8C6.1,5.9,6.4,4.4,5.4,2.8z"/></g>
<g transform="translate(399.33333333333,559.33333333333) scale(2.7466666666667)"><path d="M0.8,0L0.8,0C2.2,0,6,4.6,6,6l0,0H0V0.8C0,0.4,0.4,0,0.8,0z"/></g>
<g transform="translate(447.33333333333,559.33333333333) scale(2.7466666666667)"><path d="M0.8,0L0.8,0C2.2,0,6,4.6,6,6l0,0H0V0.8C0,0.4,0.4,0,0.8,0z"/></g>
<g transform="translate(495.33333333333,559.33333333333) scale(2.7466666666667)"><path d="M0,5.2L0,5.2C0,3.8,4.6,0,6,0l0,0v6H0.8C0.4,6,0,5.6,0,5.2z"/></g>
<g transform="translate(511.33333333333,559.33333333333) scale(2.7466666666667)"><rect width="6" height="6"/></g>
<g transform="translate(527.33333333333,559.33333333333) scale(2.7466666666667)"><path d="M6,0.8L6,0.8C6,2.2,1.4,6,0,6l0,0V0h5.2C5.6,0,6,0.4,6,0.8z"/></g>
<g transform="translate(559.33333333333,559.33333333333) scale(2.7466666666667)"><path d="M5.2,6L5.2,6C3.8,6,0,1.4,0,0l0,0h6v5.2C6,5.6,5.6,6,5.2,6z"/></g>
<g transform="translate(607.33333333333,559.33333333333) scale(2.7466666666667)"><rect width="6" height="6"/></g>
<g transform="translate(639.33333333333,559.33333333333) scale(2.7466666666667)"><path d="M6,0v6H2C0.9,6,0,5.1,0,4V0H6z"/></g>
<g transform="translate(655.33333333333,559.33333333333) scale(2.7466666666667)"><path d="M0,0h6v4c0,1.1-0.9,2-2,2H0V0z"/></g>
<g transform="translate(687.33333333333,559.33333333333) scale(2.7466666666667)"><path d="M0.8,0L0.8,0C2.2,0,6,4.6,6,6l0,0H0V0.8C0,0.4,0.4,0,0.8,0z"/></g>
<g transform="translate(815.33333333333,559.33333333333) scale(2.7466666666667)"><path d="M0,5.2L0,5.2C0,3.8,4.6,0,6,0l0,0v6H0.8C0.4,6,0,5.6,0,5.2z"/></g>
<g transform="translate(831.33333333333,559.33333333333) scale(2.7466666666667)"><rect width="6" height="6"/></g>
<g transform="translate(847.33333333333,559.33333333333) scale(2.7466666666667)"><path d="M0,6V0h4c1.1,0,2,0.9,2,2v4H0z"/></g>
<g transform="translate(287.33333333333,575.33333333333) scale(2.7466666666667)"><path d="M6,0v6H2C0.9,6,0,5.1,0,4V0H6z"/></g>
<g transform="translate(303.33333333333,575.33333333333) scale(2.7466666666667)"><rect width="6" height="6"/></g>
<g transform="translate(319.33333333333,575.33333333333) scale(2.7466666666667)"><rect width="6" height="6"/></g>
<g transform="translate(335.33333333333,575.33333333333) scale(2.7466666666667)"><rect width="6" height="6"/></g>
<g transform="translate(383.33333333333,575.33333333333) scale(2.7466666666667)"><path d="M6,6H0V2c0-1.1,0.9-2,2-2h4V6z"/></g>
<g transform="translate(399.33333333333,575.33333333333) scale(2.7466666666667)"><rect width="6" height="6"/></g>
<g transform="translate(415.33333333333,575.33333333333) scale(2.7466666666667)"><rect width="6" height="6"/></g>
<g transform="translate(431.33333333333,575.33333333333) scale(2.7466666666667)"><rect width="6" height="6"/></g>
<g transform="translate(447.33333333333,575.33333333333) scale(2.7466666666667)"><rect width="6" height="6"/></g>
<g transform="translate(463.33333333333,575.33333333333) scale(2.7466666666667)"><rect width="6" height="6"/></g>
<g transform="translate(479.33333333333,575.33333333333) scale(2.7466666666667)"><path d="M0,6V0h4c1.1,0,2,0.9,2,2v4H0z"/></g>
<g transform="translate(511.33333333333,575.33333333333) scale(2.7466666666667)"><rect width="6" height="6"/></g>
<g transform="translate(591.33333333333,575.33333333333) scale(2.7466666666667)"><path d="M0,5.2L0,5.2C0,3.8,4.6,0,6,0l0,0v6H0.8C0.4,6,0,5.6,0,5.2z"/></g>
<g transform="translate(607.33333333333,575.33333333333) scale(2.7466666666667)"><path d="M0,0h6v4c0,1.1-0.9,2-2,2H0V0z"/></g>
<g transform="translate(687.33333333333,575.33333333333) scale(2.7466666666667)"><path d="M6,0v6H2C0.9,6,0,5.1,0,4V0H6z"/></g>
<g transform="translate(703.33333333333,575.33333333333) scale(2.7466666666667)"><rect width="6" height="6"/></g>
<g transform="translate(719.33333333333,575.33333333333) scale(2.7466666666667)"><rect width="6" height="6"/></g>
<g transform="translate(735.33333333333,575.33333333333) scale(2.7466666666667)"><rect width="6" height="6"/></g>
<g transform="translate(751.33333333333,575.33333333333) scale(2.7466666666667)"><rect width="6" height="6"/></g>
<g transform="translate(767.33333333333,575.33333333333) scale(2.7466666666667)"><rect width="6" height="6"/></g>
<g transform="translate(783.33333333333,575.33333333333) scale(2.7466666666667)"><path d="M0,6V0h4c1.1,0,2,0.9,2,2v4H0z"/></g>
<g transform="translate(847.33333333333,575.33333333333) scale(2.7466666666667)"><path d="M5.2,6L5.2,6C3.8,6,0,1.4,0,0l0,0h6v5.2C6,5.6,5.6,6,5.2,6z"/></g>
<g transform="translate(271.33333333333,591.33333333333) scale(2.7466666666667)"><path d="M5.4,2.8C4.5,1.1,2.6-0.1,1.2,0c-1.3,0.1-1.6,1.6-0.7,3.2c1,1.7,2.8,2.9,4.2,2.8C6.1,5.9,6.4,4.4,5.4,2.8z"/></g>
<g transform="translate(319.33333333333,591.33333333333) scale(2.7466666666667)"><path d="M6,0v6H2C0.9,6,0,5.1,0,4V0H6z"/></g>
<g transform="translate(335.33333333333,591.33333333333) scale(2.7466666666667)"><rect width="6" height="6"/></g>
<g transform="translate(351.33333333333,591.33333333333) scale(2.7466666666667)"><rect width="6" height="6"/></g>
<g transform="translate(367.33333333333,591.33333333333) scale(2.7466666666667)"><rect width="6" height="6"/></g>
<g transform="translate(383.33333333333,591.33333333333) scale(2.7466666666667)"><rect width="6" height="6"/></g>
<g transform="translate(399.33333333333,591.33333333333) scale(2.7466666666667)"><rect width="6" height="6"/></g>
<g transform="translate(415.33333333333,591.33333333333) scale(2.7466666666667)"><path d="M0,0h6v4c0,1.1-0.9,2-2,2H0V0z"/></g>
<g transform="translate(447.33333333333,591.33333333333) scale(2.7466666666667)"><path d="M5.2,6L5.2,6C3.8,6,0,1.4,0,0l0,0h6v5.2C6,5.6,5.6,6,5.2,6z"/></g>
<g transform="translate(479.33333333333,591.33333333333) scale(2.7466666666667)"><path d="M5.2,6L5.2,6C3.8,6,0,1.4,0,0l0,0h6v5.2C6,5.6,5.6,6,5.2,6z"/></g>
<g transform="translate(511.33333333333,591.33333333333) scale(2.7466666666667)"><path d="M6,0v6H2C0.9,6,0,5.1,0,4V0H6z"/></g>
<g transform="translate(527.33333333333,591.33333333333) scale(2.7466666666667)"><rect width="6" height="6"/></g>
<g transform="translate(543.33333333333,591.33333333333) scale(2.7466666666667)"><path d="M6,0.8L6,0.8C6,2.2,1.4,6,0,6l0,0V0h5.2C5.6,0,6,0.4,6,0.8z"/></g>
<g transform="translate(575.33333333333,591.33333333333) scale(2.7466666666667)"><path d="M0.8,0L0.8,0C2.2,0,6,4.6,6,6l0,0H0V0.8C0,0.4,0.4,0,0.8,0z"/></g>
<g transform="translate(623.33333333333,591.33333333333) scale(2.7466666666667)"><path d="M6,6H0V2c0-1.1,0.9-2,2-2h4V6z"/></g>
<g transform="translate(639.33333333333,591.33333333333) scale(2.7466666666667)"><path d="M0,6V0h4c1.1,0,2,0.9,2,2v4H0z"/></g>
<g transform="translate(671.33333333333,591.33333333333) scale(2.7466666666667)"><path d="M0.8,0L0.8,0C2.2,0,6,4.6,6,6l0,0H0V0.8C0,0.4,0.4,0,0.8,0z"/></g>
<g transform="translate(735.33333333333,591.33333333333) scale(2.7466666666667)"><rect width="6" height="6"/></g>
<g transform="translate(751.33333333333,591.33333333333) scale(2.7466666666667)"><path d="M0,0h6v4c0,1.1-0.9,2-2,2H0V0z"/></g>
<g transform="translate(783.33333333333,591.33333333333) scale(2.7466666666667)"><path d="M5.2,6L5.2,6C3.8,6,0,1.4,0,0l0,0h6v5.2C6,5.6,5.6,6,5.2,6z"/></g>
<g transform="translate(815.33333333333,591.33333333333) scale(2.7466666666667)"><path d="M5.4,2.8C4.5,1.1,2.6-0.1,1.2,0c-1.3,0.1-1.6,1.6-0.7,3.2c1,1.7,2.8,2.9,4.2,2.8C6.1,5.9,6.4,4.4,5.4,2.8z"/></g>
<g transform="translate(287.33333333333,607.33333333333) scale(2.7466666666667)"><path d="M0,5.2L0,5.2C0,3.8,4.6,0,6,0l0,0v6H0.8C0.4,6,0,5.6,0,5.2z"/></g>
<g transform="translate(303.33333333333,607.33333333333) scale(2.7466666666667)"><path d="M6,0.8L6,0.8C6,2.2,1.4,6,0,6l0,0V0h5.2C5.6,0,6,0.4,6,0.8z"/></g>
<g transform="translate(383.33333333333,607.33333333333) scale(2.7466666666667)"><path d="M6,0v6H2C0.9,6,0,5.1,0,4V0H6z"/></g>
<g transform="translate(399.33333333333,607.33333333333) scale(2.7466666666667)"><path d="M0,0h6v4c0,1.1-0.9,2-2,2H0V0z"/></g>
<g transform="translate(431.33333333333,607.33333333333) scale(2.7466666666667)"><path d="M5.4,2.8C4.5,1.1,2.6-0.1,1.2,0c-1.3,0.1-1.6,1.6-0.7,3.2c1,1.7,2.8,2.9,4.2,2.8C6.1,5.9,6.4,4.4,5.4,2.8z"/></g>
<g transform="translate(463.33333333333,607.33333333333) scale(2.7466666666667)"><path d="M5.4,2.8C4.5,1.1,2.6-0.1,1.2,0c-1.3,0.1-1.6,1.6-0.7,3.2c1,1.7,2.8,2.9,4.2,2.8C6.1,5.9,6.4,4.4,5.4,2.8z"/></g>
<g transform="translate(495.33333333333,607.33333333333) scale(2.7466666666667)"><path d="M5.4,2.8C4.5,1.1,2.6-0.1,1.2,0c-1.3,0.1-1.6,1.6-0.7,3.2c1,1.7,2.8,2.9,4.2,2.8C6.1,5.9,6.4,4.4,5.4,2.8z"/></g>
<g transform="translate(559.33333333333,607.33333333333) scale(2.7466666666667)"><path d="M6,6H0V2c0-1.1,0.9-2,2-2h4V6z"/></g>
<g transform="translate(575.33333333333,607.33333333333) scale(2.7466666666667)"><rect width="6" height="6"/></g>
<g transform="translate(591.33333333333,607.33333333333) scale(2.7466666666667)"><path d="M0,6V0h4c1.1,0,2,0.9,2,2v4H0z"/></g>
<g transform="translate(623.33333333333,607.33333333333) scale(2.7466666666667)"><rect width="6" height="6"/></g>
<g transform="translate(639.33333333333,607.33333333333) scale(2.7466666666667)"><path d="M0,0h6v4c0,1.1-0.9,2-2,2H0V0z"/></g>
<g transform="translate(671.33333333333,607.33333333333) scale(2.7466666666667)"><path d="M5.2,6L5.2,6C3.8,6,0,1.4,0,0l0,0h6v5.2C6,5.6,5.6,6,5.2,6z"/></g>
<g transform="translate(719.33333333333,607.33333333333) scale(2.7466666666667)"><path d="M6,6H0V2c0-1.1,0.9-2,2-2h4V6z"/></g>
<g transform="translate(735.33333333333,607.33333333333) scale(2.7466666666667)"><rect width="6" height="6"/></g>
<g transform="translate(799.33333333333,607.33333333333) scale(2.7466666666667)"><path d="M0.8,0L0.8,0C2.2,0,6,4.6,6,6l0,0H0V0.8C0,0.4,0.4,0,0.8,0z"/></g>
<g transform="translate(831.33333333333,607.33333333333) scale(2.7466666666667)"><path d="M6,6H0V2c0-1.1,0.9-2,2-2h4V6z"/></g>
<g transform="translate(847.33333333333,607.33333333333) scale(2.7466666666667)"><path d="M0,6V0h4c1.1,0,2,0.9,2,2v4H0z"/></g>
<g transform="translate(319.33333333333,623.33333333333) scale(2.7466666666667)"><path d="M0.8,0L0.8,0C2.2,0,6,4.6,6,6l0,0H0V0.8C0,0.4,0.4,0,0.8,0z"/></g>
<g transform="translate(367.33333333333,623.33333333333) scale(2.7466666666667)"><path d="M5.4,2.8C4.5,1.1,2.6-0.1,1.2,0c-1.3,0.1-1.6,1.6-0.7,3.2c1,1.7,2.8,2.9,4.2,2.8C6.1,5.9,6.4,4.4,5.4,2.8z"/></g>
<g transform="translate(415.33333333333,623.33333333333) scale(2.7466666666667)"><path d="M5.4,2.8C4.5,1.1,2.6-0.1,1.2,0c-1.3,0.1-1.6,1.6-0.7,3.2c1,1.7,2.8,2.9,4.2,2.8C6.1,5.9,6.4,4.4,5.4,2.8z"/></g>
<g transform="translate(447.33333333333,623.33333333333) scale(2.7466666666667)"><path d="M5.4,2.8C4.5,1.1,2.6-0.1,1.2,0c-1.3,0.1-1.6,1.6-0.7,3.2c1,1.7,2.8,2.9,4.2,2.8C6.1,5.9,6.4,4.4,5.4,2.8z"/></g>
<g transform="translate(479.33333333333,623.33333333333) scale(2.7466666666667)"><path d="M5.4,2.8C4.5,1.1,2.6-0.1,1.2,0c-1.3,0.1-1.6,1.6-0.7,3.2c1,1.7,2.8,2.9,4.2,2.8C6.1,5.9,6.4,4.4,5.4,2.8z"/></g>
<g transform="translate(511.33333333333,623.33333333333) scale(2.7466666666667)"><path d="M0,5.2L0,5.2C0,3.8,4.6,0,6,0l0,0v6H0.8C0.4,6,0,5.6,0,5.2z"/></g>
<g transform="translate(527.33333333333,623.33333333333) scale(2.7466666666667)"><path d="M0,6V0h4c1.1,0,2,0.9,2,2v4H0z"/></g>
<g transform="translate(559.33333333333,623.33333333333) scale(2.7466666666667)"><rect width="6" height="6"/></g>
<g transform="translate(591.33333333333,623.33333333333) scale(2.7466666666667)"><rect width="6" height="6"/></g>
<g transform="translate(607.33333333333,623.33333333333) scale(2.7466666666667)"><rect width="6" height="6"/></g>
<g transform="translate(623.33333333333,623.33333333333) scale(2.7466666666667)"><rect width="6" height="6"/></g>
<g transform="translate(687.33333333333,623.33333333333) scale(2.7466666666667)"><path d="M6,6H0V2c0-1.1,0.9-2,2-2h4V6z"/></g>
<g transform="translate(703.33333333333,623.33333333333) scale(2.7466666666667)"><rect width="6" height="6"/></g>
<g transform="translate(719.33333333333,623.33333333333) scale(2.7466666666667)"><rect width="6" height="6"/></g>
<g transform="translate(735.33333333333,623.33333333333) scale(2.7466666666667)"><path d="M0,0h6v4c0,1.1-0.9,2-2,2H0V0z"/></g>
<g transform="translate(767.33333333333,623.33333333333) scale(2.7466666666667)"><path d="M6,6H0V2c0-1.1,0.9-2,2-2h4V6z"/></g>
<g transform="translate(783.33333333333,623.33333333333) scale(2.7466666666667)"><rect width="6" height="6"/></g>
<g transform="translate(799.33333333333,623.33333333333) scale(2.7466666666667)"><path d="M0,0h6v4c0,1.1-0.9,2-2,2H0V0z"/></g>
<g transform="translate(831.33333333333,623.33333333333) scale(2.7466666666667)"><rect width="6" height="6"/></g>
<g transform="translate(847.33333333333,623.33333333333) scale(2.7466666666667)"><rect width="6" height="6"/></g>
<g transform="translate(271.33333333333,639.33333333333) scale(2.7466666666667)"><path d="M6,6H0V2c0-1.1,0.9-2,2-2h4V6z"/></g>
<g transform="translate(287.33333333333,639.33333333333) scale(2.7466666666667)"><rect width="6" height="6"/></g>
<g transform="translate(303.33333333333,639.33333333333) scale(2.7466666666667)"><rect width="6" height="6"/></g>
<g transform="translate(319.33333333333,639.33333333333) scale(2.7466666666667)"><path d="M0,0h6v4c0,1.1-0.9,2-2,2H0V0z"/></g>
<g transform="translate(351.33333333333,639.33333333333) scale(2.7466666666667)"><path d="M0.8,0L0.8,0C2.2,0,6,4.6,6,6l0,0H0V0.8C0,0.4,0.4,0,0.8,0z"/></g>
<g transform="translate(463.33333333333,639.33333333333) scale(2.7466666666667)"><path d="M5.4,2.8C4.5,1.1,2.6-0.1,1.2,0c-1.3,0.1-1.6,1.6-0.7,3.2c1,1.7,2.8,2.9,4.2,2.8C6.1,5.9,6.4,4.4,5.4,2.8z"/></g>
<g transform="translate(495.33333333333,639.33333333333) scale(2.7466666666667)"><path d="M0.8,0L0.8,0C2.2,0,6,4.6,6,6l0,0H0V0.8C0,0.4,0.4,0,0.8,0z"/></g>
<g transform="translate(527.33333333333,639.33333333333) scale(2.7466666666667)"><path d="M5.2,6L5.2,6C3.8,6,0,1.4,0,0l0,0h6v5.2C6,5.6,5.6,6,5.2,6z"/></g>
<g transform="translate(559.33333333333,639.33333333333) scale(2.7466666666667)"><rect width="6" height="6"/></g>
<g transform="translate(591.33333333333,639.33333333333) scale(2.7466666666667)"><path d="M5.2,6L5.2,6C3.8,6,0,1.4,0,0l0,0h6v5.2C6,5.6,5.6,6,5.2,6z"/></g>
<g transform="translate(623.33333333333,639.33333333333) scale(2.7466666666667)"><path d="M5.2,6L5.2,6C3.8,6,0,1.4,0,0l0,0h6v5.2C6,5.6,5.6,6,5.2,6z"/></g>
<g transform="translate(655.33333333333,639.33333333333) scale(2.7466666666667)"><path d="M6,6H0V2c0-1.1,0.9-2,2-2h4V6z"/></g>
<g transform="translate(671.33333333333,639.33333333333) scale(2.7466666666667)"><rect width="6" height="6"/></g>
<g transform="translate(687.33333333333,639.33333333333) scale(2.7466666666667)"><rect width="6" height="6"/></g>
<g transform="translate(703.33333333333,639.33333333333) scale(2.7466666666667)"><rect width="6" height="6"/></g>
<g transform="translate(719.33333333333,639.33333333333) scale(2.7466666666667)"><path d="M0,0h6v4c0,1.1-0.9,2-2,2H0V0z"/></g>
<g transform="translate(767.33333333333,639.33333333333) scale(2.7466666666667)"><path d="M6,0v6H2C0.9,6,0,5.1,0,4V0H6z"/></g>
<g transform="translate(783.33333333333,639.33333333333) scale(2.7466666666667)"><rect width="6" height="6"/></g>
<g transform="translate(831.33333333333,639.33333333333) scale(2.7466666666667)"><path d="M6,0v6H2C0.9,6,0,5.1,0,4V0H6z"/></g>
<g transform="translate(847.33333333333,639.33333333333) scale(2.7466666666667)"><rect width="6" height="6"/></g>
<g transform="translate(271.33333333333,655.33333333333) scale(2.7466666666667)"><rect width="6" height="6"/></g>
<g transform="translate(287.33333333333,655.33333333333) scale(2.7466666666667)"><path d="M0,0h6v4c0,1.1-0.9,2-2,2H0V0z"/></g>
<g transform="translate(351.33333333333,655.33333333333) scale(2.7466666666667)"><path d="M6,0v6H2C0.9,6,0,5.1,0,4V0H6z"/></g>
<g transform="translate(367.33333333333,655.33333333333) scale(2.7466666666667)"><rect width="6" height="6"/></g>
<g transform="translate(383.33333333333,655.33333333333) scale(2.7466666666667)"><path d="M0,6V0h4c1.1,0,2,0.9,2,2v4H0z"/></g>
<g transform="translate(431.33333333333,655.33333333333) scale(2.7466666666667)"><path d="M0.8,0L0.8,0C2.2,0,6,4.6,6,6l0,0H0V0.8C0,0.4,0.4,0,0.8,0z"/></g>
<g transform="translate(495.33333333333,655.33333333333) scale(2.7466666666667)"><path d="M6,0v6H2C0.9,6,0,5.1,0,4V0H6z"/></g>
<g transform="translate(511.33333333333,655.33333333333) scale(2.7466666666667)"><path d="M0,6V0h4c1.1,0,2,0.9,2,2v4H0z"/></g>
<g transform="translate(559.33333333333,655.33333333333) scale(2.7466666666667)"><rect width="6" height="6"/></g>
<g transform="translate(607.33333333333,655.33333333333) scale(2.7466666666667)"><path d="M0.8,0L0.8,0C2.2,0,6,4.6,6,6l0,0H0V0.8C0,0.4,0.4,0,0.8,0z"/></g>
<g transform="translate(639.33333333333,655.33333333333) scale(2.7466666666667)"><path d="M6,6H0V2c0-1.1,0.9-2,2-2h4V6z"/></g>
<g transform="translate(655.33333333333,655.33333333333) scale(2.7466666666667)"><rect width="6" height="6"/></g>
<g transform="translate(687.33333333333,655.33333333333) scale(2.7466666666667)"><path d="M6,0v6H2C0.9,6,0,5.1,0,4V0H6z"/></g>
<g transform="translate(703.33333333333,655.33333333333) scale(2.7466666666667)"><rect width="6" height="6"/></g>
<g transform="translate(751.33333333333,655.33333333333) scale(2.7466666666667)"><path d="M0.8,0L0.8,0C2.2,0,6,4.6,6,6l0,0H0V0.8C0,0.4,0.4,0,0.8,0z"/></g>
<g transform="translate(783.33333333333,655.33333333333) scale(2.7466666666667)"><rect width="6" height="6"/></g>
<g transform="translate(815.33333333333,655.33333333333) scale(2.7466666666667)"><path d="M5.4,2.8C4.5,1.1,2.6-0.1,1.2,0c-1.3,0.1-1.6,1.6-0.7,3.2c1,1.7,2.8,2.9,4.2,2.8C6.1,5.9,6.4,4.4,5.4,2.8z"/></g>
<g transform="translate(847.33333333333,655.33333333333) scale(2.7466666666667)"><path d="M5.2,6L5.2,6C3.8,6,0,1.4,0,0l0,0h6v5.2C6,5.6,5.6,6,5.2,6z"/></g>
<g transform="translate(271.33333333333,671.33333333333) scale(2.7466666666667)"><rect width="6" height="6"/></g>
<g transform="translate(303.33333333333,671.33333333333) scale(2.7466666666667)"><path d="M0.8,0L0.8,0C2.2,0,6,4.6,6,6l0,0H0V0.8C0,0.4,0.4,0,0.8,0z"/></g>
<g transform="translate(383.33333333333,671.33333333333) scale(2.7466666666667)"><path d="M6,0v6H2C0.9,6,0,5.1,0,4V0H6z"/></g>
<g transform="translate(399.33333333333,671.33333333333) scale(2.7466666666667)"><path d="M6,0.8L6,0.8C6,2.2,1.4,6,0,6l0,0V0h5.2C5.6,0,6,0.4,6,0.8z"/></g>
<g transform="translate(431.33333333333,671.33333333333) scale(2.7466666666667)"><rect width="6" height="6"/></g>
<g transform="translate(447.33333333333,671.33333333333) scale(2.7466666666667)"><path d="M0,6V0h4c1.1,0,2,0.9,2,2v4H0z"/></g>
<g transform="translate(511.33333333333,671.33333333333) scale(2.7466666666667)"><path d="M6,0v6H2C0.9,6,0,5.1,0,4V0H6z"/></g>
<g transform="translate(527.33333333333,671.33333333333) scale(2.7466666666667)"><rect width="6" height="6"/></g>
<g transform="translate(543.33333333333,671.33333333333) scale(2.7466666666667)"><rect width="6" height="6"/></g>
<g transform="translate(559.33333333333,671.33333333333) scale(2.7466666666667)"><rect width="6" height="6"/></g>
<g transform="translate(575.33333333333,671.33333333333) scale(2.7466666666667)"><path d="M0,6V0h4c1.1,0,2,0.9,2,2v4H0z"/></g>
<g transform="translate(607.33333333333,671.33333333333) scale(2.7466666666667)"><path d="M5.2,6L5.2,6C3.8,6,0,1.4,0,0l0,0h6v5.2C6,5.6,5.6,6,5.2,6z"/></g>
<g transform="translate(639.33333333333,671.33333333333) scale(2.7466666666667)"><rect width="6" height="6"/></g>
<g transform="translate(655.33333333333,671.33333333333) scale(2.7466666666667)"><rect width="6" height="6"/></g>
<g transform="translate(671.33333333333,671.33333333333) scale(2.7466666666667)"><path d="M0,6V0h4c1.1,0,2,0.9,2,2v4H0z"/></g>
<g transform="translate(703.33333333333,671.33333333333) scale(2.7466666666667)"><path d="M5.2,6L5.2,6C3.8,6,0,1.4,0,0l0,0h6v5.2C6,5.6,5.6,6,5.2,6z"/></g>
<g transform="translate(751.33333333333,671.33333333333) scale(2.7466666666667)"><rect width="6" height="6"/></g>
<g transform="translate(783.33333333333,671.33333333333) scale(2.7466666666667)"><rect width="6" height="6"/></g>
<g transform="translate(799.33333333333,671.33333333333) scale(2.7466666666667)"><path d="M0,6V0h4c1.1,0,2,0.9,2,2v4H0z"/></g>
<g transform="translate(271.33333333333,687.33333333333) scale(2.7466666666667)"><rect width="6" height="6"/></g>
<g transform="translate(303.33333333333,687.33333333333) scale(2.7466666666667)"><rect width="6" height="6"/></g>
<g transform="translate(335.33333333333,687.33333333333) scale(2.7466666666667)"><path d="M0.8,0L0.8,0C2.2,0,6,4.6,6,6l0,0H0V0.8C0,0.4,0.4,0,0.8,0z"/></g>
<g transform="translate(367.33333333333,687.33333333333) scale(2.7466666666667)"><path d="M5.4,2.8C4.5,1.1,2.6-0.1,1.2,0c-1.3,0.1-1.6,1.6-0.7,3.2c1,1.7,2.8,2.9,4.2,2.8C6.1,5.9,6.4,4.4,5.4,2.8z"/></g>
<g transform="translate(415.33333333333,687.33333333333) scale(2.7466666666667)"><path d="M0,5.2L0,5.2C0,3.8,4.6,0,6,0l0,0v6H0.8C0.4,6,0,5.6,0,5.2z"/></g>
<g transform="translate(431.33333333333,687.33333333333) scale(2.7466666666667)"><rect width="6" height="6"/></g>
<g transform="translate(447.33333333333,687.33333333333) scale(2.7466666666667)"><rect width="6" height="6"/></g>
<g transform="translate(463.33333333333,687.33333333333) scale(2.7466666666667)"><rect width="6" height="6"/></g>
<g transform="translate(479.33333333333,687.33333333333) scale(2.7466666666667)"><rect width="6" height="6"/></g>
<g transform="translate(495.33333333333,687.33333333333) scale(2.7466666666667)"><path d="M6,0.8L6,0.8C6,2.2,1.4,6,0,6l0,0V0h5.2C5.6,0,6,0.4,6,0.8z"/></g>
<g transform="translate(543.33333333333,687.33333333333) scale(2.7466666666667)"><path d="M5.2,6L5.2,6C3.8,6,0,1.4,0,0l0,0h6v5.2C6,5.6,5.6,6,5.2,6z"/></g>
<g transform="translate(575.33333333333,687.33333333333) scale(2.7466666666667)"><path d="M6,0v6H2C0.9,6,0,5.1,0,4V0H6z"/></g>
<g transform="translate(591.33333333333,687.33333333333) scale(2.7466666666667)"><path d="M0,6V0h4c1.1,0,2,0.9,2,2v4H0z"/></g>
<g transform="translate(639.33333333333,687.33333333333) scale(2.7466666666667)"><path d="M5.2,6L5.2,6C3.8,6,0,1.4,0,0l0,0h6v5.2C6,5.6,5.6,6,5.2,6z"/></g>
<g transform="translate(671.33333333333,687.33333333333) scale(2.7466666666667)"><path d="M6,0v6H2C0.9,6,0,5.1,0,4V0H6z"/></g>
<g transform="translate(687.33333333333,687.33333333333) scale(2.7466666666667)"><path d="M0,6V0h4c1.1,0,2,0.9,2,2v4H0z"/></g>
<g transform="translate(719.33333333333,687.33333333333) scale(2.7466666666667)"><path d="M6,6H0V2c0-1.1,0.9-2,2-2h4V6z"/></g>
<g transform="translate(735.33333333333,687.33333333333) scale(2.7466666666667)"><rect width="6" height="6"/></g>
<g transform="translate(751.33333333333,687.33333333333) scale(2.7466666666667)"><rect width="6" height="6"/></g>
<g transform="translate(767.33333333333,687.33333333333) scale(2.7466666666667)"><rect width="6" height="6"/></g>
<g transform="translate(783.33333333333,687.33333333333) scale(2.7466666666667)"><rect width="6" height="6"/></g>
<g transform="translate(799.33333333333,687.33333333333) scale(2.7466666666667)"><rect width="6" height="6"/></g>
<g transform="translate(831.33333333333,687.33333333333) scale(2.7466666666667)"><path d="M0,5.2L0,5.2C0,3.8,4.6,0,6,0l0,0v6H0.8C0.4,6,0,5.6,0,5.2z"/></g>
<g transform="translate(847.33333333333,687.33333333333) scale(2.7466666666667)"><path d="M6,0.8L6,0.8C6,2.2,1.4,6,0,6l0,0V0h5.2C5.6,0,6,0.4,6,0.8z"/></g>
<g transform="translate(271.33333333333,703.33333333333) scale(2.7466666666667)"><rect width="6" height="6"/></g>
<g transform="translate(303.33333333333,703.33333333333) scale(2.7466666666667)"><path d="M5.2,6L5.2,6C3.8,6,0,1.4,0,0l0,0h6v5.2C6,5.6,5.6,6,5.2,6z"/></g>
<g transform="translate(335.33333333333,703.33333333333) scale(2.7466666666667)"><path d="M6,0v6H2C0.9,6,0,5.1,0,4V0H6z"/></g>
<g transform="translate(351.33333333333,703.33333333333) scale(2.7466666666667)"><path d="M0,6V0h4c1.1,0,2,0.9,2,2v4H0z"/></g>
<g transform="translate(383.33333333333,703.33333333333) scale(2.7466666666667)"><path d="M0,5.2L0,5.2C0,3.8,4.6,0,6,0l0,0v6H0.8C0.4,6,0,5.6,0,5.2z"/></g>
<g transform="translate(399.33333333333,703.33333333333) scale(2.7466666666667)"><path d="M6,0.8L6,0.8C6,2.2,1.4,6,0,6l0,0V0h5.2C5.6,0,6,0.4,6,0.8z"/></g>
<g transform="translate(527.33333333333,703.33333333333) scale(2.7466666666667)"><path d="M5.4,2.8C4.5,1.1,2.6-0.1,1.2,0c-1.3,0.1-1.6,1.6-0.7,3.2c1,1.7,2.8,2.9,4.2,2.8C6.1,5.9,6.4,4.4,5.4,2.8z"/></g>
<g transform="translate(591.33333333333,703.33333333333) scale(2.7466666666667)"><path d="M6,0v6H2C0.9,6,0,5.1,0,4V0H6z"/></g>
<g transform="translate(607.33333333333,703.33333333333) scale(2.7466666666667)"><path d="M6,0.8L6,0.8C6,2.2,1.4,6,0,6l0,0V0h5.2C5.6,0,6,0.4,6,0.8z"/></g>
<g transform="translate(687.33333333333,703.33333333333) scale(2.7466666666667)"><rect width="6" height="6"/></g>
<g transform="translate(703.33333333333,703.33333333333) scale(2.7466666666667)"><rect width="6" height="6"/></g>
<g transform="translate(719.33333333333,703.33333333333) scale(2.7466666666667)"><rect width="6" height="6"/></g>
<g transform="translate(751.33333333333,703.33333333333) scale(2.7466666666667)"><rect width="6" height="6"/></g>
<g transform="translate(799.33333333333,703.33333333333) scale(2.7466666666667)"><rect width="6" height="6"/></g>
<g transform="translate(815.33333333333,703.33333333333) scale(2.7466666666667)"><path d="M0,6V0h4c1.1,0,2,0.9,2,2v4H0z"/></g>
<g transform="translate(271.33333333333,719.33333333333) scale(2.7466666666667)"><path d="M5.2,6L5.2,6C3.8,6,0,1.4,0,0l0,0h6v5.2C6,5.6,5.6,6,5.2,6z"/></g>
<g transform="translate(351.33333333333,719.33333333333) scale(2.7466666666667)"><path d="M6,0v6H2C0.9,6,0,5.1,0,4V0H6z"/></g>
<g transform="translate(367.33333333333,719.33333333333) scale(2.7466666666667)"><path d="M6,0.8L6,0.8C6,2.2,1.4,6,0,6l0,0V0h5.2C5.6,0,6,0.4,6,0.8z"/></g>
<g transform="translate(463.33333333333,719.33333333333) scale(2.7466666666667)"><path d="M5.4,2.8C4.5,1.1,2.6-0.1,1.2,0c-1.3,0.1-1.6,1.6-0.7,3.2c1,1.7,2.8,2.9,4.2,2.8C6.1,5.9,6.4,4.4,5.4,2.8z"/></g>
<g transform="translate(495.33333333333,719.33333333333) scale(2.7466666666667)"><path d="M5.4,2.8C4.5,1.1,2.6-0.1,1.2,0c-1.3,0.1-1.6,1.6-0.7,3.2c1,1.7,2.8,2.9,4.2,2.8C6.1,5.9,6.4,4.4,5.4,2.8z"/></g>
<g transform="translate(543.33333333333,719.33333333333) scale(2.7466666666667)"><path d="M0.8,0L0.8,0C2.2,0,6,4.6,6,6l0,0H0V0.8C0,0.4,0.4,0,0.8,0z"/></g>
<g transform="translate(575.33333333333,719.33333333333) scale(2.7466666666667)"><path d="M0.8,0L0.8,0C2.2,0,6,4.6,6,6l0,0H0V0.8C0,0.4,0.4,0,0.8,0z"/></g>
<g transform="translate(623.33333333333,719.33333333333) scale(2.7466666666667)"><path d="M0,5.2L0,5.2C0,3.8,4.6,0,6,0l0,0v6H0.8C0.4,6,0,5.6,0,5.2z"/></g>
<g transform="translate(639.33333333333,719.33333333333) scale(2.7466666666667)"><rect width="6" height="6"/></g>
<g transform="translate(655.33333333333,719.33333333333) scale(2.7466666666667)"><rect width="6" height="6"/></g>
<g transform="translate(671.33333333333,719.33333333333) scale(2.7466666666667)"><rect width="6" height="6"/></g>
<g transform="translate(687.33333333333,719.33333333333) scale(2.7466666666667)"><rect width="6" height="6"/></g>
<g transform="translate(719.33333333333,719.33333333333) scale(2.7466666666667)"><rect width="6" height="6"/></g>
<g transform="translate(735.33333333333,719.33333333333) scale(2.7466666666667)"><rect width="6" height="6"/></g>
<g transform="translate(751.33333333333,719.33333333333) scale(2.7466666666667)"><rect width="6" height="6"/></g>
<g transform="translate(767.33333333333,719.33333333333) scale(2.7466666666667)"><rect width="6" height="6"/></g>
<g transform="translate(783.33333333333,719.33333333333) scale(2.7466666666667)"><rect width="6" height="6"/></g>
<g transform="translate(799.33333333333,719.33333333333) scale(2.7466666666667)"><rect width="6" height="6"/></g>
<g transform="translate(815.33333333333,719.33333333333) scale(2.7466666666667)"><rect width="6" height="6"/></g>
<g transform="translate(831.33333333333,719.33333333333) scale(2.7466666666667)"><rect width="6" height="6"/></g>
<g transform="translate(847.33333333333,719.33333333333) scale(2.7466666666667)"><path d="M0,6V0h4c1.1,0,2,0.9,2,2v4H0z"/></g>
<g transform="translate(399.33333333333,735.33333333333) scale(2.7466666666667)"><path d="M0,5.2L0,5.2C0,3.8,4.6,0,6,0l0,0v6H0.8C0.4,6,0,5.6,0,5.2z"/></g>
<g transform="translate(415.33333333333,735.33333333333) scale(2.7466666666667)"><path d="M0,6V0h4c1.1,0,2,0.9,2,2v4H0z"/></g>
<g transform="translate(447.33333333333,735.33333333333) scale(2.7466666666667)"><path d="M0.8,0L0.8,0C2.2,0,6,4.6,6,6l0,0H0V0.8C0,0.4,0.4,0,0.8,0z"/></g>
<g transform="translate(527.33333333333,735.33333333333) scale(2.7466666666667)"><path d="M0,5.2L0,5.2C0,3.8,4.6,0,6,0l0,0v6H0.8C0.4,6,0,5.6,0,5.2z"/></g>
<g transform="translate(543.33333333333,735.33333333333) scale(2.7466666666667)"><rect width="6" height="6"/></g>
<g transform="translate(559.33333333333,735.33333333333) scale(2.7466666666667)"><rect width="6" height="6"/></g>
<g transform="translate(575.33333333333,735.33333333333) scale(2.7466666666667)"><rect width="6" height="6"/></g>
<g transform="translate(591.33333333333,735.33333333333) scale(2.7466666666667)"><rect width="6" height="6"/></g>
<g transform="translate(607.33333333333,735.33333333333) scale(2.7466666666667)"><path d="M0,6V0h4c1.1,0,2,0.9,2,2v4H0z"/></g>
<g transform="translate(639.33333333333,735.33333333333) scale(2.7466666666667)"><path d="M5.2,6L5.2,6C3.8,6,0,1.4,0,0l0,0h6v5.2C6,5.6,5.6,6,5.2,6z"/></g>
<g transform="translate(671.33333333333,735.33333333333) scale(2.7466666666667)"><path d="M6,0v6H2C0.9,6,0,5.1,0,4V0H6z"/></g>
<g transform="translate(687.33333333333,735.33333333333) scale(2.7466666666667)"><rect width="6" height="6"/></g>
<g transform="translate(719.33333333333,735.33333333333) scale(2.7466666666667)"><rect width="6" height="6"/></g>
<g transform="translate(783.33333333333,735.33333333333) scale(2.7466666666667)"><rect width="6" height="6"/></g>
<g transform="translate(799.33333333333,735.33333333333) scale(2.7466666666667)"><path d="M0,0h6v4c0,1.1-0.9,2-2,2H0V0z"/></g>
<g transform="translate(847.33333333333,735.33333333333) scale(2.7466666666667)"><rect width="6" height="6"/></g>
<g transform="translate(415.33333333333,751.33333333333) scale(2.7466666666667)"><rect width="6" height="6"/></g>
<g transform="translate(447.33333333333,751.33333333333) scale(2.7466666666667)"><path d="M5.2,6L5.2,6C3.8,6,0,1.4,0,0l0,0h6v5.2C6,5.6,5.6,6,5.2,6z"/></g>
<g transform="translate(479.33333333333,751.33333333333) scale(2.7466666666667)"><path d="M0,5.2L0,5.2C0,3.8,4.6,0,6,0l0,0v6H0.8C0.4,6,0,5.6,0,5.2z"/></g>
<g transform="translate(495.33333333333,751.33333333333) scale(2.7466666666667)"><rect width="6" height="6"/></g>
<g transform="translate(511.33333333333,751.33333333333) scale(2.7466666666667)"><path d="M0,6V0h4c1.1,0,2,0.9,2,2v4H0z"/></g>
<g transform="translate(543.33333333333,751.33333333333) scale(2.7466666666667)"><rect width="6" height="6"/></g>
<g transform="translate(591.33333333333,751.33333333333) scale(2.7466666666667)"><path d="M6,0v6H2C0.9,6,0,5.1,0,4V0H6z"/></g>
<g transform="translate(607.33333333333,751.33333333333) scale(2.7466666666667)"><rect width="6" height="6"/></g>
<g transform="translate(623.33333333333,751.33333333333) scale(2.7466666666667)"><path d="M0,6V0h4c1.1,0,2,0.9,2,2v4H0z"/></g>
<g transform="translate(687.33333333333,751.33333333333) scale(2.7466666666667)"><path d="M5.2,6L5.2,6C3.8,6,0,1.4,0,0l0,0h6v5.2C6,5.6,5.6,6,5.2,6z"/></g>
<g transform="translate(719.33333333333,751.33333333333) scale(2.7466666666667)"><rect width="6" height="6"/></g>
<g transform="translate(751.33333333333,751.33333333333) scale(2.7466666666667)"><path d="M5.4,2.8C4.5,1.1,2.6-0.1,1.2,0c-1.3,0.1-1.6,1.6-0.7,3.2c1,1.7,2.8,2.9,4.2,2.8C6.1,5.9,6.4,4.4,5.4,2.8z"/></g>
<g transform="translate(783.33333333333,751.33333333333) scale(2.7466666666667)"><rect width="6" height="6"/></g>
<g transform="translate(815.33333333333,751.33333333333) scale(2.7466666666667)"><path d="M0,5.2L0,5.2C0,3.8,4.6,0,6,0l0,0v6H0.8C0.4,6,0,5.6,0,5.2z"/></g>
<g transform="translate(831.33333333333,751.33333333333) scale(2.7466666666667)"><rect width="6" height="6"/></g>
<g transform="translate(847.33333333333,751.33333333333) scale(2.7466666666667)"><rect width="6" height="6"/></g>
<g transform="translate(399.33333333333,767.33333333333) scale(2.7466666666667)"><path d="M6,6H0V2c0-1.1,0.9-2,2-2h4V6z"/></g>
<g transform="translate(415.33333333333,767.33333333333) scale(2.7466666666667)"><rect width="6" height="6"/></g>
<g transform="translate(431.33333333333,767.33333333333) scale(2.7466666666667)"><path d="M6,0.8L6,0.8C6,2.2,1.4,6,0,6l0,0V0h5.2C5.6,0,6,0.4,6,0.8z"/></g>
<g transform="translate(463.33333333333,767.33333333333) scale(2.7466666666667)"><path d="M0.8,0L0.8,0C2.2,0,6,4.6,6,6l0,0H0V0.8C0,0.4,0.4,0,0.8,0z"/></g>
<g transform="translate(511.33333333333,767.33333333333) scale(2.7466666666667)"><rect width="6" height="6"/></g>
<g transform="translate(543.33333333333,767.33333333333) scale(2.7466666666667)"><path d="M6,0v6H2C0.9,6,0,5.1,0,4V0H6z"/></g>
<g transform="translate(559.33333333333,767.33333333333) scale(2.7466666666667)"><rect width="6" height="6"/></g>
<g transform="translate(575.33333333333,767.33333333333) scale(2.7466666666667)"><path d="M6,0.8L6,0.8C6,2.2,1.4,6,0,6l0,0V0h5.2C5.6,0,6,0.4,6,0.8z"/></g>
<g transform="translate(623.33333333333,767.33333333333) scale(2.7466666666667)"><path d="M6,0v6H2C0.9,6,0,5.1,0,4V0H6z"/></g>
<g transform="translate(639.33333333333,767.33333333333) scale(2.7466666666667)"><path d="M6,0.8L6,0.8C6,2.2,1.4,6,0,6l0,0V0h5.2C5.6,0,6,0.4,6,0.8z"/></g>
<g transform="translate(671.33333333333,767.33333333333) scale(2.7466666666667)"><path d="M0.8,0L0.8,0C2.2,0,6,4.6,6,6l0,0H0V0.8C0,0.4,0.4,0,0.8,0z"/></g>
<g transform="translate(719.33333333333,767.33333333333) scale(2.7466666666667)"><rect width="6" height="6"/></g>
<g transform="translate(783.33333333333,767.33333333333) scale(2.7466666666667)"><rect width="6" height="6"/></g>
<g transform="translate(799.33333333333,767.33333333333) scale(2.7466666666667)"><path d="M6,0.8L6,0.8C6,2.2,1.4,6,0,6l0,0V0h5.2C5.6,0,6,0.4,6,0.8z"/></g>
<g transform="translate(847.33333333333,767.33333333333) scale(2.7466666666667)"><rect width="6" height="6"/></g>
<g transform="translate(399.33333333333,783.33333333333) scale(2.7466666666667)"><rect width="6" height="6"/></g>
<g transform="translate(415.33333333333,783.33333333333) scale(2.7466666666667)"><rect width="6" height="6"/></g>
<g transform="translate(447.33333333333,783.33333333333) scale(2.7466666666667)"><path d="M0,5.2L0,5.2C0,3.8,4.6,0,6,0l0,0v6H0.8C0.4,6,0,5.6,0,5.2z"/></g>
<g transform="translate(463.33333333333,783.33333333333) scale(2.7466666666667)"><rect width="6" height="6"/></g>
<g transform="translate(479.33333333333,783.33333333333) scale(2.7466666666667)"><rect width="6" height="6"/></g>
<g transform="translate(495.33333333333,783.33333333333) scale(2.7466666666667)"><rect width="6" height="6"/></g>
<g transform="translate(511.33333333333,783.33333333333) scale(2.7466666666667)"><rect width="6" height="6"/></g>
<g transform="translate(527.33333333333,783.33333333333) scale(2.7466666666667)"><path d="M6,0.8L6,0.8C6,2.2,1.4,6,0,6l0,0V0h5.2C5.6,0,6,0.4,6,0.8z"/></g>
<g transform="translate(655.33333333333,783.33333333333) scale(2.7466666666667)"><path d="M6,6H0V2c0-1.1,0.9-2,2-2h4V6z"/></g>
<g transform="translate(671.33333333333,783.33333333333) scale(2.7466666666667)"><rect width="6" height="6"/></g>
<g transform="translate(687.33333333333,783.33333333333) scale(2.7466666666667)"><rect width="6" height="6"/></g>
<g transform="translate(703.33333333333,783.33333333333) scale(2.7466666666667)"><rect width="6" height="6"/></g>
<g transform="translate(719.33333333333,783.33333333333) scale(2.7466666666667)"><rect width="6" height="6"/></g>
<g transform="translate(735.33333333333,783.33333333333) scale(2.7466666666667)"><rect width="6" height="6"/></g>
<g transform="translate(751.33333333333,783.33333333333) scale(2.7466666666667)"><rect width="6" height="6"/></g>
<g transform="translate(767.33333333333,783.33333333333) scale(2.7466666666667)"><rect width="6" height="6"/></g>
<g transform="translate(783.33333333333,783.33333333333) scale(2.7466666666667)"><rect width="6" height="6"/></g>
<g transform="translate(815.33333333333,783.33333333333) scale(2.7466666666667)"><path d="M0.8,0L0.8,0C2.2,0,6,4.6,6,6l0,0H0V0.8C0,0.4,0.4,0,0.8,0z"/></g>
<g transform="translate(847.33333333333,783.33333333333) scale(2.7466666666667)"><path d="M5.2,6L5.2,6C3.8,6,0,1.4,0,0l0,0h6v5.2C6,5.6,5.6,6,5.2,6z"/></g>
<g transform="translate(399.33333333333,799.33333333333) scale(2.7466666666667)"><rect width="6" height="6"/></g>
<g transform="translate(415.33333333333,799.33333333333) scale(2.7466666666667)"><rect width="6" height="6"/></g>
<g transform="translate(431.33333333333,799.33333333333) scale(2.7466666666667)"><path d="M6,0.8L6,0.8C6,2.2,1.4,6,0,6l0,0V0h5.2C5.6,0,6,0.4,6,0.8z"/></g>
<g transform="translate(495.33333333333,799.33333333333) scale(2.7466666666667)"><path d="M6,0v6H2C0.9,6,0,5.1,0,4V0H6z"/></g>
<g transform="translate(511.33333333333,799.33333333333) scale(2.7466666666667)"><rect width="6" height="6"/></g>
<g transform="translate(543.33333333333,799.33333333333) scale(2.7466666666667)"><path d="M6,6H0V2c0-1.1,0.9-2,2-2h4V6z"/></g>
<g transform="translate(559.33333333333,799.33333333333) scale(2.7466666666667)"><rect width="6" height="6"/></g>
<g transform="translate(575.33333333333,799.33333333333) scale(2.7466666666667)"><path d="M6,0.8L6,0.8C6,2.2,1.4,6,0,6l0,0V0h5.2C5.6,0,6,0.4,6,0.8z"/></g>
<g transform="translate(607.33333333333,799.33333333333) scale(2.7466666666667)"><path d="M0.8,0L0.8,0C2.2,0,6,4.6,6,6l0,0H0V0.8C0,0.4,0.4,0,0.8,0z"/></g>
<g transform="translate(639.33333333333,799.33333333333) scale(2.7466666666667)"><path d="M6,6H0V2c0-1.1,0.9-2,2-2h4V6z"/></g>
<g transform="translate(655.33333333333,799.33333333333) scale(2.7466666666667)"><path d="M0,0h6v4c0,1.1-0.9,2-2,2H0V0z"/></g>
<g transform="translate(703.33333333333,799.33333333333) scale(2.7466666666667)"><rect width="6" height="6"/></g>
<g transform="translate(735.33333333333,799.33333333333) scale(2.7466666666667)"><path d="M6,0v6H2C0.9,6,0,5.1,0,4V0H6z"/></g>
<g transform="translate(751.33333333333,799.33333333333) scale(2.7466666666667)"><path d="M0,0h6v4c0,1.1-0.9,2-2,2H0V0z"/></g>
<g transform="translate(783.33333333333,799.33333333333) scale(2.7466666666667)"><path d="M5.2,6L5.2,6C3.8,6,0,1.4,0,0l0,0h6v5.2C6,5.6,5.6,6,5.2,6z"/></g>
<g transform="translate(815.33333333333,799.33333333333) scale(2.7466666666667)"><path d="M5.2,6L5.2,6C3.8,6,0,1.4,0,0l0,0h6v5.2C6,5.6,5.6,6,5.2,6z"/></g>
<g transform="translate(399.33333333333,815.33333333333) scale(2.7466666666667)"><path d="M6,0v6H2C0.9,6,0,5.1,0,4V0H6z"/></g>
<g transform="translate(415.33333333333,815.33333333333) scale(2.7466666666667)"><path d="M0,0h6v4c0,1.1-0.9,2-2,2H0V0z"/></g>
<g transform="translate(479.33333333333,815.33333333333) scale(2.7466666666667)"><path d="M5.4,2.8C4.5,1.1,2.6-0.1,1.2,0c-1.3,0.1-1.6,1.6-0.7,3.2c1,1.7,2.8,2.9,4.2,2.8C6.1,5.9,6.4,4.4,5.4,2.8z"/></g>
<g transform="translate(511.33333333333,815.33333333333) scale(2.7466666666667)"><rect width="6" height="6"/></g>
<g transform="translate(527.33333333333,815.33333333333) scale(2.7466666666667)"><rect width="6" height="6"/></g>
<g transform="translate(543.33333333333,815.33333333333) scale(2.7466666666667)"><path d="M0,0h6v4c0,1.1-0.9,2-2,2H0V0z"/></g>
<g transform="translate(591.33333333333,815.33333333333) scale(2.7466666666667)"><path d="M6,6H0V2c0-1.1,0.9-2,2-2h4V6z"/></g>
<g transform="translate(607.33333333333,815.33333333333) scale(2.7466666666667)"><rect width="6" height="6"/></g>
<g transform="translate(623.33333333333,815.33333333333) scale(2.7466666666667)"><rect width="6" height="6"/></g>
<g transform="translate(639.33333333333,815.33333333333) scale(2.7466666666667)"><path d="M0,0h6v4c0,1.1-0.9,2-2,2H0V0z"/></g>
<g transform="translate(687.33333333333,815.33333333333) scale(2.7466666666667)"><path d="M0,5.2L0,5.2C0,3.8,4.6,0,6,0l0,0v6H0.8C0.4,6,0,5.6,0,5.2z"/></g>
<g transform="translate(703.33333333333,815.33333333333) scale(2.7466666666667)"><rect width="6" height="6"/></g>
<g transform="translate(719.33333333333,815.33333333333) scale(2.7466666666667)"><path d="M0,6V0h4c1.1,0,2,0.9,2,2v4H0z"/></g>
<g transform="translate(799.33333333333,815.33333333333) scale(2.7466666666667)"><path d="M0.8,0L0.8,0C2.2,0,6,4.6,6,6l0,0H0V0.8C0,0.4,0.4,0,0.8,0z"/></g>
<g transform="translate(847.33333333333,815.33333333333) scale(2.7466666666667)"><path d="M0.8,0L0.8,0C2.2,0,6,4.6,6,6l0,0H0V0.8C0,0.4,0.4,0,0.8,0z"/></g>
<g transform="translate(431.33333333333,831.33333333333) scale(2.7466666666667)"><path d="M0,5.2L0,5.2C0,3.8,4.6,0,6,0l0,0v6H0.8C0.4,6,0,5.6,0,5.2z"/></g>
<g transform="translate(447.33333333333,831.33333333333) scale(2.7466666666667)"><path d="M0,6V0h4c1.1,0,2,0.9,2,2v4H0z"/></g>
<g transform="translate(511.33333333333,831.33333333333) scale(2.7466666666667)"><rect width="6" height="6"/></g>
<g transform="translate(559.33333333333,831.33333333333) scale(2.7466666666667)"><path d="M0.8,0L0.8,0C2.2,0,6,4.6,6,6l0,0H0V0.8C0,0.4,0.4,0,0.8,0z"/></g>
<g transform="translate(591.33333333333,831.33333333333) scale(2.7466666666667)"><rect width="6" height="6"/></g>
<g transform="translate(607.33333333333,831.33333333333) scale(2.7466666666667)"><rect width="6" height="6"/></g>
<g transform="translate(623.33333333333,831.33333333333) scale(2.7466666666667)"><rect width="6" height="6"/></g>
<g transform="translate(703.33333333333,831.33333333333) scale(2.7466666666667)"><rect width="6" height="6"/></g>
<g transform="translate(719.33333333333,831.33333333333) scale(2.7466666666667)"><rect width="6" height="6"/></g>
<g transform="translate(735.33333333333,831.33333333333) scale(2.7466666666667)"><rect width="6" height="6"/></g>
<g transform="translate(751.33333333333,831.33333333333) scale(2.7466666666667)"><path d="M0,6V0h4c1.1,0,2,0.9,2,2v4H0z"/></g>
<g transform="translate(783.33333333333,831.33333333333) scale(2.7466666666667)"><path d="M6,6H0V2c0-1.1,0.9-2,2-2h4V6z"/></g>
<g transform="translate(799.33333333333,831.33333333333) scale(2.7466666666667)"><rect width="6" height="6"/></g>
<g transform="translate(815.33333333333,831.33333333333) scale(2.7466666666667)"><path d="M6,0.8L6,0.8C6,2.2,1.4,6,0,6l0,0V0h5.2C5.6,0,6,0.4,6,0.8z"/></g>
<g transform="translate(847.33333333333,831.33333333333) scale(2.7466666666667)"><rect width="6" height="6"/></g>
<g transform="translate(399.33333333333,847.33333333333) scale(2.7466666666667)"><path d="M5.4,2.8C4.5,1.1,2.6-0.1,1.2,0c-1.3,0.1-1.6,1.6-0.7,3.2c1,1.7,2.8,2.9,4.2,2.8C6.1,5.9,6.4,4.4,5.4,2.8z"/></g>
<g transform="translate(447.33333333333,847.33333333333) scale(2.7466666666667)"><path d="M6,0v6H2C0.9,6,0,5.1,0,4V0H6z"/></g>
<g transform="translate(463.33333333333,847.33333333333) scale(2.7466666666667)"><path d="M6,0.8L6,0.8C6,2.2,1.4,6,0,6l0,0V0h5.2C5.6,0,6,0.4,6,0.8z"/></g>
<g transform="translate(495.33333333333,847.33333333333) scale(2.7466666666667)"><path d="M0,5.2L0,5.2C0,3.8,4.6,0,6,0l0,0v6H0.8C0.4,6,0,5.6,0,5.2z"/></g>
<g transform="translate(511.33333333333,847.33333333333) scale(2.7466666666667)"><path d="M0,0h6v4c0,1.1-0.9,2-2,2H0V0z"/></g>
<g transform="translate(543.33333333333,847.33333333333) scale(2.7466666666667)"><path d="M0,5.2L0,5.2C0,3.8,4.6,0,6,0l0,0v6H0.8C0.4,6,0,5.6,0,5.2z"/></g>
<g transform="translate(559.33333333333,847.33333333333) scale(2.7466666666667)"><rect width="6" height="6"/></g>
<g transform="translate(575.33333333333,847.33333333333) scale(2.7466666666667)"><rect width="6" height="6"/></g>
<g transform="translate(591.33333333333,847.33333333333) scale(2.7466666666667)"><path d="M0,0h6v4c0,1.1-0.9,2-2,2H0V0z"/></g>
<g transform="translate(623.33333333333,847.33333333333) scale(2.7466666666667)"><path d="M5.2,6L5.2,6C3.8,6,0,1.4,0,0l0,0h6v5.2C6,5.6,5.6,6,5.2,6z"/></g>
<g transform="translate(671.33333333333,847.33333333333) scale(2.7466666666667)"><path d="M0,5.2L0,5.2C0,3.8,4.6,0,6,0l0,0v6H0.8C0.4,6,0,5.6,0,5.2z"/></g>
<g transform="translate(687.33333333333,847.33333333333) scale(2.7466666666667)"><rect width="6" height="6"/></g>
<g transform="translate(703.33333333333,847.33333333333) scale(2.7466666666667)"><rect width="6" height="6"/></g>
<g transform="translate(719.33333333333,847.33333333333) scale(2.7466666666667)"><rect width="6" height="6"/></g>
<g transform="translate(735.33333333333,847.33333333333) scale(2.7466666666667)"><rect width="6" height="6"/></g>
<g transform="translate(751.33333333333,847.33333333333) scale(2.7466666666667)"><path d="M0,0h6v4c0,1.1-0.9,2-2,2H0V0z"/></g>
<g transform="translate(783.33333333333,847.33333333333) scale(2.7466666666667)"><path d="M6,0v6H2C0.9,6,0,5.1,0,4V0H6z"/></g>
<g transform="translate(799.33333333333,847.33333333333) scale(2.7466666666667)"><path d="M0,0h6v4c0,1.1-0.9,2-2,2H0V0z"/></g>
<g transform="translate(831.33333333333,847.33333333333) scale(2.7466666666667)"><path d="M0,5.2L0,5.2C0,3.8,4.6,0,6,0l0,0v6H0.8C0.4,6,0,5.6,0,5.2z"/></g>
<g transform="translate(847.33333333333,847.33333333333) scale(2.7466666666667)"><path d="M0,0h6v4c0,1.1-0.9,2-2,2H0V0z"/></g>
</g></g></mask></defs><rect width="668.50777777778" height="668.50777777778" fill="#ffffff" x="236.38888888889" y="236.38888888889"/><g fill="#000000" transform="scale(47.277777777778)"><path d="M4.5,4.5L4.5,4.5L4.5,4.5l0,17.2c0,0.3,0.3,0.6,0.6,0.6h13.8c0.3,0,0.6-0.3,0.6-0.6V4.5H4.5z M19,18.6         c0,0.2-0.2,0.4-0.4,0.4H5.4C5.2,19,5,18.8,5,18.6V5.4C5,5.2,5.2,5,5.4,5h13.1C18.8,5,19,5.2,19,5.4V18.6z"/><path d="M19.1,0.1L4.2,1.7l0.3,2.8l14.9-1.6L19.1,0.1z M6.8,3.8L4.9,4l1.7-2.1l1.9-0.2L6.8,3.8z M10.5,3.4L8.6,3.6l1.7-2.1l1.9-0.2 L10.5,3.4z M14.2,3l-1.9,0.2L14,1.1l1.9-0.2L14.2,3z M18,2.6l-1.9,0.2l1.7-2.1l0.9-0.1l0.1,0.9L18,2.6z"/></g><rect x="0" y="0" width="1134.6666666667" height="1078.6611111111" mask="url(#qrmask)" fill="url(#pattern-gradient)"/><g><g transform="translate(271.33333333333,271.33333333333)" fill="#000000"><g transform="scale(8)"><path d="M0,0v14h14V0H0z M12,12H2V2h10V12z"/></g></g>
<g transform="translate(303.33333333333,303.33333333333)" fill="#000000"><g transform="scale(8)"><rect width="6" height="6"/></g></g>
<g transform="translate(751.33333333333,271.33333333333)" fill="#000000"><g transform="scale(8)"><path d="M0,0v14h14V0H0z M12,12H2V2h10V12z"/></g></g>
<g transform="translate(783.33333333333,303.33333333333)" fill="#000000"><g transform="scale(8)"><rect width="6" height="6"/></g></g>
<g transform="translate(271.33333333333,751.33333333333)" fill="#000000"><g transform="scale(8)"><path d="M0,0v14h14V0H0z M12,12H2V2h10V12z"/></g></g>
<g transform="translate(303.33333333333,783.33333333333)" fill="#000000"><g transform="scale(8)"><rect width="6" height="6"/></g></g></g><text fill="#FFFFFF" font-family="Arial, Helvetica, sans-serif" font-size="95.501111111111px" textLength="573.95222222222" lengthAdjust="spacing" x="283.66666666667" y="143.1061965812" transform="translate(0,869.91111111111)">SCAN ME</text></svg>
